<svg width="20" height="20" viewBox="0 0 20 20" fill="none" xmlns="http://www.w3.org/2000/svg">
<path opacity="0.3" fill-rule="evenodd" clip-rule="evenodd" d="M7.50033 9.16667C5.65938 9.16667 4.16699 7.67428 4.16699 5.83333C4.16699 3.99238 5.65938 2.5 7.50033 2.5C9.34128 2.5 10.8337 3.99238 10.8337 5.83333C10.8337 7.67428 9.34128 9.16667 7.50033 9.16667ZM15.8337 9.16667C15.3734 9.16667 15.0003 8.79358 15.0003 8.33334V6.66667H13.3337C12.8734 6.66667 12.5003 6.29358 12.5003 5.83334C12.5003 5.3731 12.8734 5.00001 13.3337 5.00001H15.0003V3.33334C15.0003 2.8731 15.3734 2.50001 15.8337 2.50001C16.2939 2.50001 16.667 2.8731 16.667 3.33334V5.00001H18.3337C18.7939 5.00001 19.167 5.3731 19.167 5.83334C19.167 6.29358 18.7939 6.66667 18.3337 6.66667H16.667V8.33334C16.667 8.79358 16.2939 9.16667 15.8337 9.16667Z" fill="white"/>
<path d="M0.00054307 16.8323C0.323549 12.8551 3.55159 10.833 7.48612 10.833C11.476 10.833 14.7541 12.744 14.9983 16.833C15.008 16.9959 14.9983 17.4997 14.3722 17.4997C11.2843 17.4997 6.6956 17.4997 0.606252 17.4997C0.39726 17.4997 -0.0170515 17.049 0.00054307 16.8323Z" fill="white"/>
</svg>
