<svg width="37" height="36" viewBox="0 0 37 36" fill="none" xmlns="http://www.w3.org/2000/svg">
<g clip-path="url(#clip0_1987_1910)">
<path d="M 34.4 24.3 L 34.4 21.6 L 36.5 21.6 L 36.5 14.3 L 34.4 14.3 L 34.4 11.7 C 34.4 9.9 33 8.5 31.3 8.5 L 3.6 8.5 C 1.9 8.5 0.5 9.9 0.5 11.7 L 0.5 24.3 C 0.5 26.1 1.9 27.5 3.6 27.5 L 31.3 27.5 C 33 27.5 34.4 26.1 34.4 24.3 Z M 3.6 25.4 C 3 25.4 2.6 24.9 2.6 24.3 L 2.6 11.7 C 2.6 11.1 3 10.6 3.6 10.6 L 31.3 10.6 C 31.9 10.6 32.3 11.1 32.3 11.7 L 32.3 24.3 C 32.3 24.9 31.9 25.4 31.3 25.4 L 3.6 25.4 Z M 3.8 24.3 L 3.8 11.7 L 8.4 11.7 L 8.4 24.3 L 3.8 24.3 Z M 9.5 24.3 L 9.5 11.7 L 14 11.7 L 14 24.3 L 9.5 24.3 Z M 15.2 24.3 L 15.2 11.7 L 19.7 11.7 L 19.7 24.3 L 15.2 24.3 Z" fill="#ffa800"/>
</g>
<defs>
<clipPath id="clip0_1987_1910">
<rect width="36" height="36" fill="white" transform="translate(36.5) rotate(90)"/>
</clipPath>
</defs>
</svg>
