<svg width="37" height="36" viewBox="0 0 37 36" fill="none" xmlns="http://www.w3.org/2000/svg">
<g clip-path="url(#clip0_1987_7640)">
<path d="M34.4231 24.3462L34.4231 21.5627L36.5 21.5627L36.5 14.2939L34.4231 14.2939L34.4231 11.6538C34.4231 9.93576 33.0255 8.53857 31.3076 8.53857L3.61528 8.53857C1.8978 8.53857 0.5 9.93614 0.5 11.6538L0.499999 24.3462C0.499999 26.0648 1.8978 27.4617 3.61528 27.4617L31.3077 27.4617C33.0255 27.4617 34.4231 26.0648 34.4231 24.3462ZM3.61505 25.3851C3.04274 25.3851 2.57685 24.9191 2.57685 24.3462L2.57685 11.6538C2.57685 11.0809 3.0419 10.615 3.61505 10.615L31.3077 10.615C31.88 10.615 32.3462 11.0809 32.3462 11.6538L32.3462 24.3462C32.3462 24.9191 31.8801 25.3851 31.3077 25.3851L3.61505 25.3851ZM3.80595 24.2526L3.80595 11.7475L8.36244 11.7475L8.36244 24.2523L3.80595 24.2523L3.80595 24.2526ZM9.4848 24.2526L9.4848 11.7475L14.0411 11.7475L14.0411 24.2523L9.4848 24.2523L9.4848 24.2526ZM15.1638 24.2526L15.1638 11.7475L19.7204 11.7475L19.7204 24.2523L15.1638 24.2523L15.1638 24.2526ZM20.8299 24.2526L20.8299 11.7476L25.3864 11.7476L25.3864 24.2523L20.8299 24.2523L20.8299 24.2526ZM26.509 24.2526L26.509 11.7476L31.0658 11.7476L31.0658 24.2523L26.509 24.2523L26.509 24.2526Z" fill="#50CD89"/>
</g>
<defs>
<clipPath id="clip0_1987_7640">
<rect width="36" height="36" fill="white" transform="translate(36.5) rotate(90)"/>
</clipPath>
</defs>
</svg>
