<svg width="36" height="36" viewBox="0 0 36 36" fill="none" xmlns="http://www.w3.org/2000/svg">
<g clip-path="url(#clip0_2018_20048)">
<path d="M33.9231 24.3462L33.9231 21.5627L36 21.5627L36 14.2939L33.9231 14.2939L33.9231 11.6538C33.9231 9.93576 32.5255 8.53857 30.8076 8.53857L3.11528 8.53857C1.3978 8.53857 -6.10895e-08 9.93614 -1.3617e-07 11.6538L-6.90975e-07 24.3462C-7.66096e-07 26.0648 1.3978 27.4617 3.11528 27.4617L30.8077 27.4617C32.5255 27.4617 33.9231 26.0648 33.9231 24.3462ZM3.11505 25.3851C2.54273 25.3851 2.07685 24.9191 2.07685 24.3462L2.07685 11.6538C2.07685 11.0809 2.54189 10.615 3.11505 10.615L30.8077 10.615C31.38 10.615 31.8462 11.0809 31.8462 11.6538L31.8462 24.3462C31.8462 24.9191 31.3801 25.3851 30.8077 25.3851L3.11505 25.3851Z" fill="#A1A5B7"/>
</g>
<defs>
<clipPath id="clip0_2018_20048">
<rect width="36" height="36" fill="white" transform="translate(36) rotate(90)"/>
</clipPath>
</defs>
</svg>
