<svg width="21" height="21" viewBox="5.5 2 21 21" fill="none" xmlns="http://www.w3.org/2000/svg">
<g filter="url(#filter0_d_4269_18029)">
<rect x="6" y="2" width="20.4" height="20.4" rx="5" fill="#50cd89"/>
<g clip-path="url(#clip0_4269_18029)">
<g clip-path="url(#clip1_4269_18029)">
<g clip-path="url(#clip2_4269_18029)">
<path d="M 20.4 14.2 L 20.4 13.5 L 20.9 13.5 L 20.9 11.6 L 20.4 11.6 L 20.4 10.9 C 20.4 10.5 20 10.1 19.6 10.1 L 12.4 10.1 C 11.9 10.1 11.6 10.5 11.6 10.9 L 11.6 14.2 C 11.6 14.7 11.9 15 12.4 15 L 19.6 15 C 20 15 20.4 14.7 20.4 14.2 Z M 12.4 14.5 C 12.2 14.5 12.1 14.4 12.1 14.2 L 12.1 10.9 C 12.1 10.8 12.2 10.7 12.4 10.7 L 19.6 10.7 C 19.7 10.7 19.8 10.8 19.8 10.9 L 19.8 14.2 C 19.8 14.4 19.7 14.5 19.6 14.5 L 12.4 14.5 Z M 12.4 14.2 L 12.4 10.9 L 13.6 10.9 L 13.6 14.2 L 12.4 14.2 L 12.4 14.2 Z M 13.9 14.2 L 13.9 10.9 L 15.1 10.9 L 15.1 14.2 L 13.9 14.2 L 13.9 14.2 Z M 15.4 14.2 L 15.4 10.9 L 16.6 10.9 L 16.6 14.2 L 15.4 14.2 L 15.4 14.2 Z M 16.8 14.2 L 16.8 10.9 L 18 10.9 L 18 14.2 L 16.8 14.2 L 16.8 14.2 Z M 18.3 14.2 L 18.3 10.9 L 19.5 10.9 L 19.5 14.2 L 18.3 14.2 L 18.3 14.2 Z" fill="white"/>
</g>
</g>
</g>
</g>
<defs>
<filter id="filter0_d_4269_18029" x="0.5" y="0.00585914" width="31.3569" height="31.3569" filterUnits="userSpaceOnUse" color-interpolation-filters="sRGB">
<feFlood flood-opacity="0" result="BackgroundImageFix"/>
<feColorMatrix in="SourceAlpha" type="matrix" values="0 0 0 0 0 0 0 0 0 0 0 0 0 0 0 0 0 0 127 0" result="hardAlpha"/>
<feOffset dy="3.5"/>
<feGaussianBlur stdDeviation="2.75"/>
<feColorMatrix type="matrix" values="0 0 0 0 0 0 0 0 0 0 0 0 0 0 0 0 0 0 0.02 0"/>
<feBlend mode="normal" in2="BackgroundImageFix" result="effect1_dropShadow_4269_18029"/>
<feBlend mode="normal" in="SourceGraphic" in2="effect1_dropShadow_4269_18029" result="shape"/>
</filter>
<clipPath id="clip0_4269_18029">
<rect x="10" y="6.1" width="12.2" height="12.2" rx="5" fill="white"/>
</clipPath>
<clipPath id="clip1_4269_18029">
<rect width="11.7" height="11.4" fill="white" transform="translate(10.3,6.6)"/>
</clipPath>
<clipPath id="clip2_4269_18029">
<rect width="9.4" height="9.4" fill="white" transform="translate(20.9,7.9) rotate(90)"/>
</clipPath>
</defs>
</svg>
