<svg width="21" height="21" viewBox="5.5 2 21 21" fill="none" xmlns="http://www.w3.org/2000/svg">
<g filter="url(#filter0_d_4269_17961)">
<rect x="6" y="2" width="20.4" height="20.4" rx="5" fill="#5151f9"/>
<g clip-path="url(#clip0_4269_17961)">
<path d="M 13.6 10.1 H 13.7 C 13.9 10.1 14.1 9.9 14.1 9.7 V 8.6 V 8.2 C 14.1 8 13.9 7.9 13.7 7.9 H 13.6 C 13.3 7.9 13.2 8 13.2 8.2 V 8.6 V 9.7 C 13.2 9.9 13.3 10.1 13.6 10.1 Z" fill="white"/>
<path d="M 18.5 10.1 H 18.6 C 18.8 10.1 19 9.9 19 9.7 V 8.5 V 8.2 C 19 8 18.8 7.9 18.6 7.9 H 18.5 C 18.3 7.9 18.1 8 18.1 8.2 V 8.5 V 9.7 C 18.1 9.9 18.3 10.1 18.5 10.1 Z" fill="white"/>
<path d="M 20.3 8.6 H 19.3 V 9.8 C 19.3 10.2 19 10.4 18.6 10.4 H 18.5 C 18.1 10.4 17.8 10.1 17.8 9.7 V 8.6 H 14.4 V 9.7 C 14.4 10.1 14.1 10.4 13.7 10.4 H 13.6 C 13.2 10.4 12.9 10.1 12.9 9.7 V 8.6 H 11.8 C 11.4 8.6 11.2 8.9 11.2 9.3 V 16.8 C 11.2 17.1 11.4 17.4 11.8 17.4 H 20.3 C 20.6 17.4 20.9 17.1 20.9 16.8 V 9.3 C 20.9 8.9 20.6 8.6 20.3 8.6 Z M 20.3 16.8 H 11.8 L 11.8 11.1 H 20.3 L 20.3 16.8 C 20.3 16.8 20.3 16.8 20.3 16.8 Z" fill="white"/>
<path d="M 16.4 13 H 17.5 C 17.5 13 17.6 13 17.6 12.9 V 12 C 17.6 11.9 17.5 11.9 17.5 11.9 H 16.4 C 16.3 11.9 16.3 11.9 16.3 12 V 12.9 C 16.3 13 16.3 13 16.4 13 Z" fill="white"/>
<path d="M 18.2 13 H 19.3 C 19.4 13 19.4 13 19.4 12.9 V 12 C 19.4 11.9 19.4 11.9 19.3 11.9 H 18.2 C 18.1 11.9 18.1 11.9 18.1 12 V 12.9 C 18.1 13 18.1 13 18.2 13 Z" fill="white"/>
<path d="M 12.7 14.6 H 13.8 C 13.9 14.6 13.9 14.6 13.9 14.5 V 13.6 C 13.9 13.5 13.9 13.5 13.8 13.5 H 12.7 C 12.7 13.5 12.6 13.5 12.6 13.6 V 14.5 C 12.6 14.6 12.7 14.6 12.7 14.6 Z" fill="white"/>
<path d="M 14.5 14.6 H 15.7 C 15.7 14.6 15.7 14.6 15.7 14.5 V 13.6 C 15.7 13.5 15.7 13.5 15.7 13.5 H 14.5 C 14.5 13.5 14.5 13.5 14.5 13.6 V 14.5 C 14.5 14.6 14.5 14.6 14.5 14.6 Z" fill="white"/>
<path d="M 16.4 14.6 H 17.5 C 17.5 14.6 17.6 14.6 17.6 14.5 V 13.6 C 17.6 13.5 17.5 13.5 17.5 13.5 H 16.4 C 16.3 13.5 16.3 13.5 16.3 13.6 V 14.5 C 16.3 14.6 16.3 14.6 16.4 14.6 Z" fill="white"/>
<path d="M 18.2 14.6 H 19.3 C 19.4 14.6 19.4 14.6 19.4 14.5 V 13.6 C 19.4 13.5 19.4 13.5 19.3 13.5 H 18.2 C 18.1 13.5 18.1 13.5 18.1 13.6 V 14.5 C 18.1 14.6 18.1 14.6 18.2 14.6 Z" fill="white"/>
<path d="M 13.8 15.1 H 12.7 C 12.7 15.1 12.6 15.1 12.6 15.1 V 16.1 C 12.6 16.2 12.7 16.2 12.7 16.2 H 13.8 C 13.9 16.2 13.9 16.2 13.9 16.1 V 15.1 C 13.9 15.1 13.9 15.1 13.8 15.1 Z" fill="white"/>
<path d="M 15.7 15.1 H 14.5 C 14.5 15.1 14.5 15.1 14.5 15.1 V 16.1 C 14.5 16.2 14.5 16.2 14.5 16.2 H 15.7 C 15.7 16.2 15.7 16.2 15.7 16.1 V 15.1 C 15.7 15.1 15.7 15.1 15.7 15.1 Z" fill="white"/>
<path d="M 17.5 15.1 H 16.4 C 16.3 15.1 16.3 15.1 16.3 15.1 V 16.1 C 16.3 16.2 16.3 16.2 16.4 16.2 H 17.5 C 17.5 16.2 17.6 16.2 17.6 16.1 V 15.1 C 17.6 15.1 17.5 15.1 17.5 15.1 Z" fill="white"/>
<path d="M 19.3 15.1 H 18.2 C 18.1 15.1 18.1 15.1 18.1 15.1 V 16.1 C 18.1 16.2 18.1 16.2 18.2 16.2 H 19.3 C 19.4 16.2 19.4 16.2 19.4 16.1 V 15.1 C 19.4 15.1 19.4 15.1 19.3 15.1 Z" fill="white"/>
</g>
</g>
<defs>
<filter id="filter0_d_4269_17961" x="0.5" y="0.00585914" width="31.3569" height="31.3569" filterUnits="userSpaceOnUse" color-interpolation-filters="sRGB">
<feFlood flood-opacity="0" result="BackgroundImageFix"/>
<feColorMatrix in="SourceAlpha" type="matrix" values="0 0 0 0 0 0 0 0 0 0 0 0 0 0 0 0 0 0 127 0" result="hardAlpha"/>
<feOffset dy="3.5"/>
<feGaussianBlur stdDeviation="2.75"/>
<feColorMatrix type="matrix" values="0 0 0 0 0 0 0 0 0 0 0 0 0 0 0 0 0 0 0.02 0"/>
<feBlend mode="normal" in2="BackgroundImageFix" result="effect1_dropShadow_4269_17961"/>
<feBlend mode="normal" in="SourceGraphic" in2="effect1_dropShadow_4269_17961" result="shape"/>
</filter>
<clipPath id="clip0_4269_17961">
<rect width="9.7" height="9.7" fill="white" transform="translate(11.2,7.8)"/>
</clipPath>
</defs>
    <rect x="3.2" y="1.6" width="0" height="0" fill="rgb(255, 255, 255)"/>
</svg>
