<svg width="18" height="19" viewBox="0 0 18 19" fill="none" xmlns="http://www.w3.org/2000/svg">
<g clip-path="url(#clip0_2151_17942)">
<path d="M5.23331 6.58896H5.43878C5.75104 6.58896 6.00416 6.33575 6.00416 6.02358V4.46339V3.8798C6.00416 3.56763 5.75104 3.31445 5.43878 3.31445H5.23331C4.92109 3.31445 4.66797 3.56763 4.66797 3.8798V4.46342V6.02358C4.66797 6.33575 4.92109 6.58896 5.23331 6.58896Z" fill="#5E6278"/>
<path d="M12.4848 6.5748H12.6903C13.0025 6.5748 13.2557 6.32162 13.2557 6.00942V4.31516V3.86561C13.2557 3.55347 13.0025 3.30029 12.6903 3.30029H12.4848C12.1726 3.30029 11.9194 3.55347 11.9194 3.86561V4.31516V6.00939C11.9195 6.32162 12.1726 6.5748 12.4848 6.5748Z" fill="#5E6278"/>
<path d="M15.1662 4.46338H13.7152V6.15761C13.7152 6.72278 13.2555 7.0345 12.6904 7.0345H12.4849C11.9197 7.0345 11.46 6.5747 11.46 6.00954V4.46338H6.46356V6.02354C6.46356 6.58871 6.00379 7.04851 5.43863 7.04851H5.23316C4.66802 7.04851 4.20825 6.58871 4.20825 6.02354V4.46338H2.64276C2.13596 4.46338 1.72363 4.87571 1.72363 5.38253V16.489C1.72363 16.9958 2.13596 17.4081 2.64276 17.4081H15.1662C15.673 17.4081 16.0853 16.9958 16.0853 16.489V5.38253C16.0854 4.87573 15.673 4.46338 15.1662 4.46338ZM15.1662 16.489H2.64279L2.64276 8.10167H15.1664L15.1669 16.4889C15.1668 16.4889 15.1667 16.489 15.1662 16.489Z" fill="#5E6278"/>
<path d="M9.3792 10.915H11.0295C11.095 10.915 11.148 10.862 11.148 10.7965V9.36748C11.148 9.30206 11.095 9.24902 11.0295 9.24902H9.3792C9.31378 9.24902 9.26074 9.30206 9.26074 9.36748V10.7965C9.26074 10.862 9.31378 10.915 9.3792 10.915Z" fill="#5E6278"/>
<path d="M12.0721 10.915H13.7224C13.7878 10.915 13.8409 10.862 13.8409 10.7965V9.36748C13.8409 9.30206 13.7878 9.24902 13.7224 9.24902H12.0721C12.0067 9.24902 11.9536 9.30206 11.9536 9.36748V10.7965C11.9536 10.862 12.0067 10.915 12.0721 10.915Z" fill="#5E6278"/>
<path d="M3.99248 13.2544H5.64279C5.70821 13.2544 5.76125 13.2013 5.76125 13.1359V11.7068C5.76125 11.6414 5.70821 11.5884 5.64279 11.5884H3.99248C3.92706 11.5884 3.87402 11.6414 3.87402 11.7068V13.1359C3.87402 13.2013 3.92706 13.2544 3.99248 13.2544Z" fill="#5E6278"/>
<path d="M6.68584 13.2544H8.33615C8.40157 13.2544 8.45461 13.2013 8.45461 13.1359V11.7068C8.45461 11.6414 8.40157 11.5884 8.33615 11.5884H6.68584C6.62042 11.5884 6.56738 11.6414 6.56738 11.7068V13.1359C6.56738 13.2013 6.62042 13.2544 6.68584 13.2544Z" fill="#5E6278"/>
<path d="M9.3792 13.2544H11.0295C11.0949 13.2544 11.148 13.2013 11.148 13.1359V11.7068C11.148 11.6414 11.0949 11.5884 11.0295 11.5884H9.3792C9.31378 11.5884 9.26074 11.6414 9.26074 11.7068V13.1359C9.26074 13.2013 9.31378 13.2544 9.3792 13.2544Z" fill="#5E6278"/>
<path d="M12.0721 13.2544H13.7224C13.7878 13.2544 13.8409 13.2013 13.8409 13.1359V11.7068C13.8409 11.6414 13.7878 11.5884 13.7224 11.5884H12.0721C12.0067 11.5884 11.9536 11.6414 11.9536 11.7068V13.1359C11.9536 13.2013 12.0067 13.2544 12.0721 13.2544Z" fill="#5E6278"/>
<path d="M5.64276 13.9282H3.99248C3.92706 13.9282 3.87402 13.9813 3.87402 14.0467V15.4758C3.87402 15.5412 3.92706 15.5942 3.99248 15.5942H5.64279C5.70821 15.5942 5.76125 15.5412 5.76125 15.4758V14.0467C5.76122 13.9813 5.70818 13.9282 5.64276 13.9282Z" fill="#5E6278"/>
<path d="M8.33615 13.9282H6.68584C6.62042 13.9282 6.56738 13.9813 6.56738 14.0467V15.4758C6.56738 15.5412 6.62042 15.5942 6.68584 15.5942H8.33615C8.40157 15.5942 8.45461 15.5412 8.45461 15.4758V14.0467C8.45461 13.9813 8.40157 13.9282 8.33615 13.9282Z" fill="#5E6278"/>
<path d="M11.0295 13.9282H9.3792C9.31378 13.9282 9.26074 13.9813 9.26074 14.0467V15.4758C9.26074 15.5412 9.31378 15.5942 9.3792 15.5942H11.0295C11.095 15.5942 11.148 15.5412 11.148 15.4758V14.0467C11.148 13.9813 11.095 13.9282 11.0295 13.9282Z" fill="#5E6278"/>
<path d="M13.7224 13.9282H12.0721C12.0067 13.9282 11.9536 13.9813 11.9536 14.0467V15.4758C11.9536 15.5412 12.0067 15.5942 12.0721 15.5942H13.7224C13.7878 15.5942 13.8409 15.5412 13.8409 15.4758V14.0467C13.8409 13.9813 13.7878 13.9282 13.7224 13.9282Z" fill="#5E6278"/>
</g>
<defs>
<clipPath id="clip0_2151_17942">
<rect width="14.3617" height="14.3617" fill="white" transform="translate(1.72363 3.17334)"/>
</clipPath>
</defs>
</svg>
