<svg width="17" height="17" viewBox="0 0 17 17" fill="none" xmlns="http://www.w3.org/2000/svg">
<g clip-path="url(#clip0_629_19269)">
<g clip-path="url(#clip1_629_19269)">
<g clip-path="url(#clip2_629_19269)">
<path d="M14.5853 14.4434V10.1072H9.915V14.4434H9.1021V9.2943H11.8437V4.65821H10.9299V2.84189H9.89576V1.38281H9.08286V2.84189H8.04874V4.65821H7.13488V14.4434H6.32197V6.47456H2.7765V14.4434H1.74414V15.2563H15.6177V14.4434H14.5853ZM9.99101 5.66166H10.8039V6.47456H9.99101V5.66166ZM9.99101 7.47798H10.8039V8.29088H9.99101V7.47798ZM4.93774 14.1247H4.12483V13.3117H4.93774V14.1247ZM4.93774 12.1801H4.12483V11.3672H4.93774V12.1801ZM4.93774 10.2355H4.12483V9.42258H4.93774V10.2355ZM4.93774 8.29088H4.12483V7.47798H4.93774V8.29088ZM8.98759 8.29088H8.17469V7.47798H8.98759V8.29088ZM8.98759 6.47456H8.17469V5.66166H8.98759V6.47456ZM9.08283 3.84531H9.89574V4.65821H9.08283V3.84531ZM11.7428 14.4434H10.9299V11.181H11.7428V14.4434ZM13.5705 14.4434H12.7576V11.181H13.5705V14.4434Z" fill="#5E6278"/>
</g>
</g>
</g>
<defs>
<clipPath id="clip0_629_19269">
<rect width="17" height="17" fill="white"/>
</clipPath>
<clipPath id="clip1_629_19269">
<rect width="13.7447" height="13.7447" fill="white" transform="translate(1.80859 1.44727)"/>
</clipPath>
<clipPath id="clip2_629_19269">
<rect width="13.8735" height="13.8735" fill="white" transform="translate(1.74414 1.38281)"/>
</clipPath>
</defs>
</svg>
