<svg width="18" height="19" viewBox="0 0 18 19" fill="none" xmlns="http://www.w3.org/2000/svg">
<path fill-rule="evenodd" clip-rule="evenodd" d="M14.1936 5.35983C14.4213 5.35983 14.6107 5.54882 14.6107 5.78929V6.01162C14.6107 6.24624 14.4213 6.44107 14.1936 6.44107H4.49677C4.26859 6.44107 4.0791 6.24624 4.0791 6.01162V5.78929C4.0791 5.54882 4.26859 5.35983 4.49677 5.35983H6.20273C6.54927 5.35983 6.85086 5.11351 6.92881 4.76597L7.01815 4.36694C7.157 3.8234 7.61393 3.4624 8.13687 3.4624H10.553C11.0702 3.4624 11.5323 3.8234 11.666 4.33828L11.7616 4.76539C11.839 5.11351 12.1406 5.35983 12.4877 5.35983H14.1936ZM13.3269 13.5603C13.505 11.9004 13.8169 7.95691 13.8169 7.91712C13.8282 7.79659 13.789 7.6825 13.711 7.59064C13.6274 7.50464 13.5215 7.45373 13.4049 7.45373H5.28934C5.17212 7.45373 5.06059 7.50464 4.9832 7.59064C4.90467 7.6825 4.86598 7.79659 4.87167 7.91712C4.87271 7.92443 4.8839 8.06334 4.90261 8.29558C4.98571 9.32724 5.21716 12.2006 5.36673 13.5603C5.47257 14.5619 6.1298 15.1915 7.08179 15.2143C7.81641 15.2313 8.57322 15.2371 9.3471 15.2371C10.076 15.2371 10.8163 15.2313 11.5737 15.2143C12.5587 15.1973 13.2154 14.5789 13.3269 13.5603Z" fill="#5E6278"/>
</svg>
