<svg width="10" height="12" viewBox="0 0 10 12" fill="none" xmlns="http://www.w3.org/2000/svg">
<path fill-rule="evenodd" clip-rule="evenodd" d="M9.36054 2.54619C9.55937 2.54619 9.7249 2.71128 9.7249 2.92134V3.11556C9.7249 3.32051 9.55937 3.49071 9.36054 3.49071H0.889761C0.690431 3.49071 0.524902 3.32051 0.524902 3.11556V2.92134C0.524902 2.71128 0.690431 2.54619 0.889761 2.54619H2.38001C2.68274 2.54619 2.94619 2.33101 3.01429 2.02742L3.09233 1.67884C3.21362 1.20402 3.61278 0.888672 4.0696 0.888672H6.18021C6.63206 0.888672 7.03569 1.20402 7.1525 1.6538L7.23601 2.0269C7.30361 2.33101 7.56707 2.54619 7.87029 2.54619H9.36054ZM8.6034 9.64615C8.75899 8.19614 9.03139 4.75129 9.03139 4.71653C9.04133 4.61125 9.00703 4.51158 8.93893 4.43134C8.86586 4.3562 8.7734 4.31174 8.6715 4.31174H1.58211C1.47971 4.31174 1.38229 4.3562 1.31468 4.43134C1.24609 4.51158 1.21228 4.61125 1.21725 4.71653C1.21817 4.72292 1.22794 4.84426 1.24428 5.04713C1.31688 5.94834 1.51907 8.4584 1.64972 9.64615C1.74217 10.5212 2.3163 11.0711 3.14792 11.091C3.78966 11.1059 4.45077 11.111 5.12681 11.111C5.76357 11.111 6.41027 11.1059 7.07189 11.091C7.93234 11.0762 8.50597 10.536 8.6034 9.64615Z" fill="#FF0000"/>
</svg>
