<svg width="21" height="21" viewBox="5.5 2 21 21" fill="none" xmlns="http://www.w3.org/2000/svg">
<g filter="url(#filter0_d_618_8367)">
<rect x="5.5" y="2" width="21" height="21" rx="6" fill="#5151F9"/>
<g clip-path="url(#clip0_618_8367)">
<g clip-path="url(#clip1_618_8367)">
<path d="M17.7318 14.9863C17.6973 15.1166 17.6786 15.2532 17.6786 15.3946C17.6786 15.5356 17.6973 15.6725 17.7318 15.8028H16.046C16.2203 15.5593 16.2203 15.2293 16.046 14.9861H17.7318V14.9863ZM14.8548 14.198C14.6956 14.0382 14.4369 14.0382 14.2772 14.198C14.1174 14.3572 14.1174 14.6158 14.2772 14.7756L14.4879 14.9863H13.2927C13.0071 14.9863 12.7474 14.869 12.5589 14.6806C12.3705 14.4921 12.2537 14.2324 12.2537 13.9473C12.2537 13.6617 12.3705 13.4025 12.5589 13.2141C12.7474 13.0256 13.0071 12.9083 13.2927 12.9083H13.9941C13.8197 12.6648 13.8197 12.3348 13.9941 12.0911H13.2927C12.7818 12.0911 12.3174 12.2999 11.9813 12.6365C11.6453 12.9725 11.4365 13.4366 11.4365 13.9473C11.4365 14.4583 11.6453 14.9221 11.9813 15.2582C12.3174 15.5942 12.7818 15.803 13.2927 15.803H14.4879L14.2772 16.0137C14.1174 16.1734 14.1174 16.4316 14.2772 16.5913C14.4369 16.751 14.6956 16.751 14.8548 16.5913L15.7629 15.6832C15.9221 15.524 15.9221 15.2653 15.7629 15.1056L14.8548 14.198ZM15.5522 12.9083H16.7473C17.2583 12.9083 17.7221 12.6996 18.0587 12.3635C18.3948 12.0275 18.6035 11.5636 18.6035 11.0527C18.6035 10.5417 18.3948 10.0779 18.0587 9.74129C17.7221 9.40524 17.2583 9.19648 16.7473 9.19648H16.046C16.2203 9.44 16.2203 9.76999 16.046 10.0137H16.7473C17.0329 10.0137 17.2927 10.131 17.4806 10.3194C17.669 10.5079 17.7863 10.7671 17.7863 11.0527C17.7863 11.3377 17.669 11.5975 17.4806 11.7859C17.2927 11.9744 17.0329 12.0911 16.7473 12.0911H15.5522L15.7629 11.8809C15.9221 11.7212 15.9221 11.4625 15.7629 11.3033C15.6032 11.1436 15.3445 11.1436 15.1853 11.3033L14.2772 12.2109C14.1174 12.3707 14.1174 12.6293 14.2772 12.7885L15.1853 13.6967C15.3445 13.8564 15.6032 13.8564 15.7629 13.6967C15.9221 13.5369 15.9221 13.2783 15.7629 13.1191L15.5522 12.9083ZM11.845 10.0139H14.4879L14.2772 10.2246C14.1174 10.3838 14.1174 10.6425 14.2772 10.8022C14.4369 10.9614 14.6956 10.9614 14.8548 10.8022L15.7629 9.89407C15.9221 9.73487 15.9221 9.47619 15.7629 9.31646L14.8548 8.40886C14.6956 8.24913 14.4369 8.24913 14.2772 8.40886C14.1174 8.56806 14.1174 8.82674 14.2772 8.98647L14.4879 9.19666H11.845C11.6194 9.19666 11.4365 9.37957 11.4365 9.60544C11.4365 9.83078 11.6194 10.0139 11.845 10.0139ZM20.5642 15.3947C20.5642 16.1082 19.9825 16.6904 19.269 16.6904C18.555 16.6904 17.9733 16.1082 17.9733 15.3947C17.9733 14.6811 18.555 14.099 19.269 14.099C19.9825 14.099 20.5642 14.6811 20.5642 15.3947ZM19.9745 14.9359C19.9174 14.8788 19.8238 14.8788 19.7662 14.9359L19.1613 15.5413L18.7713 15.1507C18.7137 15.0931 18.6201 15.0931 18.5631 15.1507C18.5055 15.2083 18.5055 15.3013 18.5631 15.3589L19.0572 15.8536C19.1148 15.9107 19.2079 15.9107 19.2655 15.8536L19.9745 15.1441C20.032 15.0865 20.032 14.9934 19.9745 14.9359Z" fill="white"/>
</g>
</g>
</g>
<defs>
<filter id="filter0_d_618_8367" x="-4.76837e-07" y="-2.38419e-07" width="32" height="32" filterUnits="userSpaceOnUse" color-interpolation-filters="sRGB">
<feFlood flood-opacity="0" result="BackgroundImageFix"/>
<feColorMatrix in="SourceAlpha" type="matrix" values="0 0 0 0 0 0 0 0 0 0 0 0 0 0 0 0 0 0 127 0" result="hardAlpha"/>
<feOffset dy="3.5"/>
<feGaussianBlur stdDeviation="2.75"/>
<feColorMatrix type="matrix" values="0 0 0 0 0 0 0 0 0 0 0 0 0 0 0 0 0 0 0.02 0"/>
<feBlend mode="normal" in2="BackgroundImageFix" result="effect1_dropShadow_618_8367"/>
<feBlend mode="normal" in="SourceGraphic" in2="effect1_dropShadow_618_8367" result="shape"/>
</filter>
<clipPath id="clip0_618_8367">
<rect width="13" height="13" fill="white" transform="translate(9.5 6)"/>
</clipPath>
<clipPath id="clip1_618_8367">
<rect width="9.12766" height="9.12766" fill="white" transform="translate(11.4365 7.93604)"/>
</clipPath>
</defs>
</svg>
