<svg width="21" height="21" viewBox="5.5 2 21 21" fill="none" xmlns="http://www.w3.org/2000/svg">
<g filter="url(#filter0_d_4269_17923)">
<rect x="6" y="2.00586" width="20.3569" height="20.3569" rx="5" fill="#5151F9"/>
<g clip-path="url(#clip0_4269_17923)">
<path fill-rule="evenodd" clip-rule="evenodd" d="M18.0819 7.98141C17.9236 7.91581 17.7003 7.86662 17.4815 7.83635C17.4628 7.83377 17.4535 7.83248 17.4383 7.83181C17.3177 7.82648 17.1885 7.90208 17.134 8.00986C17.1272 8.02339 17.1223 8.03584 17.1125 8.06075C17.1017 8.08839 17.0962 8.10222 17.0902 8.11442C17.0398 8.2166 16.9396 8.28492 16.826 8.29444C16.8125 8.29558 16.7976 8.29558 16.7679 8.29558H15.7065C15.6768 8.29558 15.6619 8.29558 15.6484 8.29444C15.5349 8.28492 15.4346 8.2166 15.3842 8.11442C15.3782 8.10222 15.3728 8.08839 15.3619 8.06075C15.3521 8.03584 15.3472 8.02339 15.3404 8.00986C15.2859 7.90208 15.1567 7.82648 15.0361 7.83181C15.0209 7.83248 15.0116 7.83377 14.993 7.83635C14.7741 7.86662 14.5509 7.91581 14.3925 7.98141C13.8353 8.2122 13.3926 8.65487 13.1618 9.21203C13.0686 9.43731 13.0278 9.67988 13.0081 9.96821C12.9888 10.2511 12.9888 10.6008 12.9888 11.0448V13.0178C12.9888 13.4618 12.9888 13.8115 13.0081 14.0944C13.0278 14.3827 13.0686 14.6253 13.1618 14.8506C13.3926 15.4077 13.8353 15.8504 14.3925 16.0812C14.6178 16.1745 14.8603 16.2153 15.1487 16.235C15.4316 16.2543 15.7813 16.2543 16.2252 16.2543H16.2492C16.6931 16.2543 17.0429 16.2543 17.3258 16.235C17.6141 16.2153 17.8567 16.1745 18.0819 16.0812C18.6391 15.8504 19.0818 15.4077 19.3126 14.8506C19.4059 14.6253 19.4467 14.3827 19.4664 14.0944C19.4857 13.8115 19.4857 13.4618 19.4857 13.0178V11.0448C19.4857 10.6008 19.4857 10.2511 19.4664 9.96821C19.4467 9.67988 19.4059 9.43731 19.3126 9.21203C19.0818 8.65487 18.6391 8.2122 18.0819 7.98141ZM14.9378 14.6301C14.9378 14.4506 15.0833 14.3052 15.2627 14.3052H17.2118C17.3912 14.3052 17.5366 14.4506 17.5366 14.6301C17.5366 14.8095 17.3912 14.9549 17.2118 14.9549H15.2627C15.0833 14.9549 14.9378 14.8095 14.9378 14.6301Z" fill="white"/>
</g>
</g>
<defs>
<filter id="filter0_d_4269_17923" x="0.5" y="0.00585914" width="31.3569" height="31.3569" filterUnits="userSpaceOnUse" color-interpolation-filters="sRGB">
<feFlood flood-opacity="0" result="BackgroundImageFix"/>
<feColorMatrix in="SourceAlpha" type="matrix" values="0 0 0 0 0 0 0 0 0 0 0 0 0 0 0 0 0 0 127 0" result="hardAlpha"/>
<feOffset dy="3.5"/>
<feGaussianBlur stdDeviation="2.75"/>
<feColorMatrix type="matrix" values="0 0 0 0 0 0 0 0 0 0 0 0 0 0 0 0 0 0 0.02 0"/>
<feBlend mode="normal" in2="BackgroundImageFix" result="effect1_dropShadow_4269_17923"/>
<feBlend mode="normal" in="SourceGraphic" in2="effect1_dropShadow_4269_17923" result="shape"/>
</filter>
<clipPath id="clip0_4269_17923">
<rect x="10" y="6.07715" width="12.2142" height="12.2142" rx="5" fill="white"/>
</clipPath>
</defs>
</svg>
