<svg width="31" height="30" viewBox="0 0 31 30" fill="none" xmlns="http://www.w3.org/2000/svg">
<circle opacity="0.1" cx="15.1748" cy="15" r="15" fill="#50CD89"/>
<path fill-rule="evenodd" clip-rule="evenodd" d="M14.0088 18.568L17.9138 13.518C18.1261 13.2456 18.2015 12.9308 18.1308 12.6102C18.0695 12.3188 17.8902 12.0417 17.6214 11.8315L16.9659 11.3107C16.3952 10.8568 15.6877 10.9046 15.2821 11.4254L14.8435 11.9944C14.7869 12.0656 14.8011 12.1707 14.8718 12.228C14.8718 12.228 15.9802 13.1166 16.0037 13.1358C16.0792 13.2074 16.1358 13.303 16.1499 13.4176C16.1735 13.6422 16.0179 13.8524 15.7868 13.8811C15.6783 13.8954 15.5746 13.862 15.4991 13.7999L14.3342 12.873C14.2776 12.8305 14.1927 12.8395 14.1455 12.8969L11.3771 16.4801C11.1979 16.7047 11.1366 16.9961 11.1979 17.278L11.5516 18.8116C11.5705 18.8928 11.6412 18.9502 11.7261 18.9502L13.2825 18.9311C13.5654 18.9263 13.8295 18.7973 14.0088 18.568ZM16.1881 18.0903H18.7259C18.9735 18.0903 19.1749 18.2943 19.1749 18.5451C19.1749 18.7964 18.9735 18.9999 18.7259 18.9999H16.1881C15.9405 18.9999 15.7391 18.7964 15.7391 18.5451C15.7391 18.2943 15.9405 18.0903 16.1881 18.0903Z" fill="#50CD89"/>
</svg>
