<svg width="9" height="8" viewBox="0 0 9 8" fill="none" xmlns="http://www.w3.org/2000/svg">
<path fill-rule="evenodd" clip-rule="evenodd" d="M3.20895 7.56796L7.11401 2.51797C7.32625 2.24565 7.40171 1.9308 7.33096 1.61022C7.26965 1.31878 7.09043 1.04168 6.82161 0.83146L6.16605 0.310695C5.59538 -0.143182 4.88794 -0.0954059 4.48234 0.425359L4.04373 0.994378C3.98714 1.06556 4.00129 1.17067 4.07203 1.22801C4.07203 1.22801 5.18035 2.11665 5.20393 2.13576C5.27939 2.20742 5.33599 2.30298 5.35013 2.41764C5.37372 2.64219 5.21808 2.85241 4.98698 2.88107C4.87851 2.89541 4.77475 2.86196 4.69929 2.79985L3.53438 1.87299C3.47778 1.83047 3.39289 1.83955 3.34573 1.89688L0.577284 5.48012C0.398066 5.70467 0.336755 5.99611 0.398066 6.27799L0.751785 7.81162C0.77065 7.89284 0.841394 7.95017 0.926287 7.95017L2.48265 7.93106C2.76563 7.92628 3.02974 7.79728 3.20895 7.56796ZM5.38828 7.09027H7.9261C8.1737 7.09027 8.37508 7.29428 8.37508 7.5451C8.37508 7.79641 8.1737 7.99994 7.9261 7.99994H5.38828C5.14067 7.99994 4.93929 7.79641 4.93929 7.5451C4.93929 7.29428 5.14067 7.09027 5.38828 7.09027Z" fill="#50CD89"/>
</svg>
