<svg width="17" height="17" viewBox="0 0 17 17" fill="none" xmlns="http://www.w3.org/2000/svg">
<path d="M1.93276 3.8877L6.21094 8.13832L1.93276 12.3889C1.85543 12.2273 1.80851 12.0486 1.80851 11.8578V4.41886C1.80851 4.22801 1.85543 4.04934 1.93276 3.8877Z" fill="#5E6278"/>
<path d="M3.04814 3.17871H14.6749C14.8657 3.17871 15.0444 3.22563 15.2061 3.30297L9.7381 8.74338C9.25462 9.22685 8.46841 9.22685 7.98494 8.74338L2.51698 3.30297C2.67862 3.22563 2.85729 3.17871 3.04814 3.17871Z" fill="#5E6278"/>
<path d="M15.7908 3.8877C15.8681 4.04934 15.915 4.22801 15.915 4.41886V11.8578C15.915 12.0486 15.8681 12.2273 15.7908 12.3889L11.5126 8.13832L15.7908 3.8877Z" fill="#5E6278"/>
<path d="M6.79515 8.72266L7.40054 9.32805C8.20612 10.1336 9.51694 10.1336 10.3225 9.32805L10.9279 8.72266L15.2061 12.9733C15.0444 13.0506 14.8657 13.0975 14.6749 13.0975H3.04814C2.85729 13.0975 2.67862 13.0506 2.51698 12.9733L6.79515 8.72266Z" fill="#5E6278"/>
</svg>
