<svg width="24" height="19" viewBox="0 0 24 19" fill="none" xmlns="http://www.w3.org/2000/svg">
<path d="M9.83457 17.127H14.165C14.5372 17.127 14.8389 17.4286 14.8389 17.8008C14.8389 18.1729 14.5372 18.4746 14.165 18.4746H9.83457C9.46244 18.4746 9.16074 18.1729 9.16074 17.8008C9.16074 17.4286 9.46244 17.127 9.83457 17.127Z" fill="#5151F9"/>
<path d="M10.1049 12.9688C9.96345 12.6849 9.88344 12.365 9.88344 12.0262C9.88344 10.8572 10.8311 9.90957 12.0001 9.90957C12.339 9.90957 12.6589 9.98963 12.9429 10.1312L16.1168 6.95713C16.3799 6.69398 16.8066 6.69398 17.0697 6.95713C17.3329 7.22024 17.3329 7.64686 17.0697 7.91006L13.8956 11.0843C14.0369 11.3681 14.1167 11.6878 14.1167 12.0262C14.1167 13.1953 13.1691 14.1429 12.0001 14.1429C11.6615 14.1429 11.3417 14.063 11.058 13.9217L10.3113 14.6684C10.0482 14.9316 9.62159 14.9317 9.35839 14.6685C9.09524 14.4054 9.09519 13.9788 9.35835 13.7156L10.1049 12.9688ZM12.0001 12.7953C12.4241 12.7953 12.7691 12.4503 12.7691 12.0263C12.7691 11.6023 12.4242 11.2573 12.0001 11.2573C11.576 11.2573 11.2311 11.6023 11.2311 12.0263C11.2311 12.4503 11.5761 12.7953 12.0001 12.7953Z" fill="#5151F9"/>
<path d="M12 0.526367C18.3411 0.526367 23.5 5.68524 23.5 12.0264C23.5 14.0474 22.9671 16.036 21.959 17.7771C21.7727 18.0988 21.3611 18.2088 21.0392 18.0231C21.0391 18.023 19.1637 16.9404 19.1637 16.9404C18.8414 16.7543 18.731 16.3423 18.9171 16.02C19.1031 15.6977 19.5152 15.5871 19.8375 15.7733L21.1102 16.5081C21.6949 15.3213 22.041 14.0255 22.1291 12.7002H20.6609C20.2888 12.7002 19.9871 12.3985 19.9871 12.0264C19.9871 11.6543 20.2888 11.3526 20.6609 11.3526H22.1294C22.0399 9.99388 21.6821 8.70745 21.1083 7.54577L19.8375 8.27948C19.5151 8.46568 19.103 8.35513 18.917 8.03286C18.731 7.71054 18.8414 7.29843 19.1636 7.11241L20.4329 6.37955C19.6942 5.27995 18.7464 4.33215 17.6468 3.59341L16.914 4.86254C16.7279 5.18485 16.3158 5.29536 15.9936 5.10916C15.6713 4.92305 15.5609 4.51098 15.7469 4.18871L16.4806 2.91801C15.3189 2.34422 14.0324 1.98664 12.6738 1.89702V3.36547C12.6738 3.73761 12.3721 4.0393 12 4.0393C11.6279 4.0393 11.3262 3.73761 11.3262 3.36547V1.89702C9.96756 1.98664 8.68108 2.34427 7.5194 2.91801L8.25307 4.18871C8.43913 4.51098 8.32872 4.9231 8.00645 5.10916C7.68418 5.29536 7.27206 5.18485 7.08599 4.86254L6.35323 3.59341C5.25363 4.3321 4.30578 5.27991 3.56709 6.37955L4.83631 7.11232C5.15858 7.29838 5.269 7.71045 5.08293 8.03277C4.89691 8.35504 4.48484 8.46559 4.16248 8.27939L2.89164 7.54568C2.31785 8.70736 1.96001 9.99379 1.87052 11.3525H3.33906C3.71119 11.3525 4.01289 11.6542 4.01289 12.0263C4.01289 12.3985 3.71119 12.7002 3.33906 12.7002H1.87093C1.95902 14.0254 2.30514 15.3212 2.88975 16.508L4.16248 15.7733C4.48484 15.5871 4.89686 15.6976 5.08293 16.0199C5.269 16.3422 5.15858 16.7543 4.83631 16.9403C4.83631 16.9403 2.96091 18.0229 2.96078 18.023C2.63882 18.2087 2.22729 18.0987 2.04104 17.777C1.03286 16.036 0.5 14.0474 0.5 12.0264C0.5 5.68524 5.65887 0.526367 12 0.526367Z" fill="#5151F9"/>
</svg>
