<svg width="21" height="21" viewBox="5.5 2 21 21" fill="none" xmlns="http://www.w3.org/2000/svg">
<g filter="url(#filter0_d_4269_17911)">
<rect x="6" y="2.00586" width="20.3569" height="20.3569" rx="5" fill="#5151F9"/>
<g clip-path="url(#clip0_4269_17911)">
<path d="M12.3076 11.42C12.1815 11.42 12.0792 11.3178 12.0792 11.1916V10.284C12.0792 10.1579 12.1815 10.0556 12.3076 10.0556H13.6824L13.3919 8.42542C13.38 8.35891 13.3982 8.29057 13.4416 8.23875C13.485 8.18695 13.549 8.15698 13.6166 8.15694L14.5403 8.15625C14.5404 8.15625 14.5404 8.15625 14.5405 8.15625C14.651 8.15625 14.7457 8.23539 14.7653 8.34417L15.0736 10.0556H16.1342L15.835 8.42798C15.8227 8.36134 15.8407 8.29272 15.884 8.24062C15.9273 8.18853 15.9915 8.15838 16.0593 8.15828L16.9945 8.15694C16.9946 8.15694 16.9947 8.15694 16.9948 8.15694C17.1052 8.15694 17.1998 8.23581 17.2195 8.34437L17.5316 10.0556H19.6471C19.7732 10.0556 19.8755 10.1579 19.8755 10.284V11.1916C19.8755 11.3178 19.7732 11.42 19.6471 11.42H17.7805L17.9759 12.4919H19.6471C19.7732 12.4919 19.8755 12.5942 19.8755 12.7203V13.628C19.8755 13.7541 19.7732 13.8564 19.6471 13.8564H18.2247L18.5552 15.6682C18.5673 15.7349 18.5493 15.8035 18.5059 15.8555C18.4625 15.9075 18.3982 15.9376 18.3305 15.9376H17.4059C17.2956 15.9376 17.2011 15.8589 17.1812 15.7505L16.833 13.8564H15.7583L16.0858 15.6746C16.0977 15.7408 16.0799 15.8089 16.037 15.8607C15.9941 15.9126 15.9305 15.9428 15.8632 15.9435L14.9267 15.9525C14.9259 15.9525 14.9252 15.9525 14.9244 15.9525C14.8139 15.9525 14.719 15.8732 14.6996 15.7642L14.3596 13.8564H12.3076C12.1815 13.8564 12.0792 13.7541 12.0792 13.628V12.7203C12.0792 12.5942 12.1815 12.4919 12.3076 12.4919H14.1165L13.9255 11.42H12.3076ZM16.5821 12.4919L16.3851 11.42H15.3194L15.5125 12.4919H16.5821Z" fill="white"/>
</g>
</g>
<defs>
<filter id="filter0_d_4269_17911" x="0.5" y="0.00585914" width="31.3569" height="31.3569" filterUnits="userSpaceOnUse" color-interpolation-filters="sRGB">
<feFlood flood-opacity="0" result="BackgroundImageFix"/>
<feColorMatrix in="SourceAlpha" type="matrix" values="0 0 0 0 0 0 0 0 0 0 0 0 0 0 0 0 0 0 127 0" result="hardAlpha"/>
<feOffset dy="3.5"/>
<feGaussianBlur stdDeviation="2.75"/>
<feColorMatrix type="matrix" values="0 0 0 0 0 0 0 0 0 0 0 0 0 0 0 0 0 0 0.02 0"/>
<feBlend mode="normal" in2="BackgroundImageFix" result="effect1_dropShadow_4269_17911"/>
<feBlend mode="normal" in="SourceGraphic" in2="effect1_dropShadow_4269_17911" result="shape"/>
</filter>
<clipPath id="clip0_4269_17911">
<rect width="7.79627" height="7.79627" fill="white" transform="matrix(-1 0 0 1 19.8755 8.15625)"/>
</clipPath>
</defs>
</svg>
