<svg width="40" height="40" viewBox="0 0 40 40" fill="none" xmlns="http://www.w3.org/2000/svg">
<path d="M9.5 7C9.5 5.067 11.067 3.5 13 3.5H24.1716C24.5694 3.5 24.9509 3.65804 25.2322 3.93934L34.0607 12.7678C34.342 13.0491 34.5 13.4306 34.5 13.8284V33C34.5 34.933 32.933 36.5 31 36.5H13C11.067 36.5 9.5 34.933 9.5 33V7Z" fill="white" stroke="#9FA5B2"/>
<path d="M24.5 3.56445V9.21387C24.5 11.423 26.2909 13.2139 28.5 13.2139H34.0414" stroke="#9FA5B2"/>
<rect x="5" y="20" width="22" height="12" rx="3" fill="#D946EF"/>
<path d="M10.5926 22.9545H11.7687V27.5568C11.7666 27.9787 11.6771 28.342 11.5002 28.6467C11.3234 28.9492 11.0762 29.1825 10.7587 29.3466C10.4434 29.5085 10.0759 29.5895 9.65612 29.5895C9.2726 29.5895 8.92743 29.5213 8.62061 29.3849C8.31592 29.2464 8.07409 29.0419 7.89511 28.7713C7.71613 28.5007 7.62664 28.1641 7.62664 27.7614H8.80598C8.80811 27.9382 8.84646 28.0906 8.92103 28.2184C8.99774 28.3462 9.10321 28.4442 9.23744 28.5124C9.37167 28.5806 9.52615 28.6147 9.70086 28.6147C9.89049 28.6147 10.0514 28.5753 10.1835 28.4964C10.3156 28.4155 10.4157 28.2962 10.4839 28.1385C10.5542 27.9808 10.5904 27.7869 10.5926 27.5568V22.9545ZM12.8751 29.5V22.9545H15.3296C15.8325 22.9545 16.2544 23.0483 16.5953 23.2358C16.9383 23.4233 17.1972 23.6811 17.3719 24.0092C17.5487 24.3352 17.6372 24.706 17.6372 25.1214C17.6372 25.5412 17.5487 25.9141 17.3719 26.2401C17.195 26.5661 16.934 26.8228 16.5889 27.0103C16.2437 27.1957 15.8186 27.2884 15.3137 27.2884H13.6869V26.3136H15.1539C15.4479 26.3136 15.6887 26.2624 15.8762 26.1602C16.0637 26.0579 16.2021 25.9173 16.2916 25.7383C16.3833 25.5593 16.4291 25.3537 16.4291 25.1214C16.4291 24.8892 16.3833 24.6847 16.2916 24.5078C16.2021 24.331 16.0626 24.1935 15.873 24.0955C15.6855 23.9954 15.4436 23.9453 15.1475 23.9453H14.0608V29.5H12.8751ZM22.872 25.0447C22.8188 24.8722 22.7452 24.7177 22.6515 24.5813C22.5599 24.4428 22.4491 24.3246 22.3191 24.2266C22.1913 24.1286 22.0443 24.055 21.8781 24.006C21.7119 23.9549 21.5308 23.9293 21.3347 23.9293C20.9832 23.9293 20.67 24.0178 20.3951 24.1946C20.1202 24.3714 19.904 24.6314 19.7463 24.9744C19.5908 25.3153 19.513 25.7308 19.513 26.2209C19.513 26.7152 19.5908 27.1339 19.7463 27.4769C19.9019 27.82 20.1181 28.081 20.3951 28.2599C20.6721 28.4368 20.9938 28.5252 21.3603 28.5252C21.6927 28.5252 21.9803 28.4613 22.2232 28.3335C22.4683 28.2056 22.6568 28.0245 22.7889 27.7901C22.921 27.5536 22.9871 27.2766 22.9871 26.9592L23.2555 27.0007H21.4786V26.0739H24.1345V26.8601C24.1345 27.4205 24.0151 27.9052 23.7765 28.3143C23.5379 28.7234 23.2097 29.0387 22.7921 29.2603C22.3745 29.4798 21.8951 29.5895 21.3539 29.5895C20.7509 29.5895 20.2215 29.4542 19.7655 29.1836C19.3117 28.9109 18.9569 28.5241 18.7012 28.0234C18.4477 27.5206 18.3209 26.924 18.3209 26.2337C18.3209 25.7053 18.3955 25.2333 18.5446 24.8178C18.6959 24.4023 18.9068 24.0497 19.1774 23.7599C19.448 23.468 19.7655 23.2464 20.1298 23.0952C20.4942 22.9418 20.8905 22.8651 21.3188 22.8651C21.681 22.8651 22.0187 22.9183 22.3319 23.0249C22.6451 23.1293 22.9232 23.2784 23.1661 23.4723C23.4111 23.6662 23.6124 23.8963 23.7701 24.1626C23.9278 24.429 24.0311 24.723 24.0801 25.0447H22.872Z" fill="white"/>
</svg>
