<svg width="21" height="21" viewBox="0 0 21 21" fill="none" xmlns="http://www.w3.org/2000/svg">
<path d="M5.08317 15.0837H3.83317V5.91699H10.3332L9.6665 6.58366C9.49984 6.75033 9.4165 6.91699 9.4165 7.16699C9.4165 7.66699 9.74984 8.00033 10.2498 8.00033C10.4998 8.00033 10.6665 7.91699 10.8332 7.75033L12.9165 5.66699C13.2498 5.33366 13.2498 4.83366 12.9165 4.50033L10.8332 2.41699C10.4998 2.08366 9.99984 2.08366 9.6665 2.41699C9.33317 2.75033 9.33317 3.25033 9.6665 3.58366L10.3332 4.25033H2.99984C2.49984 4.25033 2.1665 4.58366 2.1665 5.08366V15.917C2.1665 16.417 2.49984 16.7503 2.99984 16.7503H5.08317C5.58317 16.7503 5.9165 16.417 5.9165 15.917C5.9165 15.417 5.58317 15.0837 5.08317 15.0837ZM17.9998 4.25033H15.9165C15.4165 4.25033 15.0832 4.58366 15.0832 5.08366C15.0832 5.58366 15.4165 5.91699 15.9165 5.91699H17.1665V15.0837H10.1665L10.8332 14.417C11.1665 14.0837 11.1665 13.5837 10.8332 13.2503C10.4998 12.917 9.99984 12.917 9.6665 13.2503L7.58317 15.3337C7.24984 15.667 7.24984 16.167 7.58317 16.5003L9.6665 18.5837C9.83317 18.7503 9.99984 18.8337 10.2498 18.8337C10.4998 18.8337 10.6665 18.7503 10.8332 18.5837C11.1665 18.2503 11.1665 17.7503 10.8332 17.417L10.1665 16.7503H17.9998C18.4998 16.7503 18.8332 16.417 18.8332 15.917V5.08366C18.8332 4.58366 18.4998 4.25033 17.9998 4.25033Z" fill="#5151F9"/>
</svg>
