<svg width="28" height="27" viewBox="0 0 28 27" fill="none" xmlns="http://www.w3.org/2000/svg">
<g clip-path="url(#clip0_618_8073)">
<path d="M22.8149 17.3097C22.5134 17.1469 22.1348 17.2551 21.9693 17.5513C21.8037 17.8476 21.9138 18.2197 22.2152 18.3824C22.957 18.7829 23.3824 19.2268 23.3824 19.6005C23.3824 20.0575 22.7236 20.7657 20.8744 21.3831C19.0476 21.9932 16.6063 22.3291 14.0002 22.3291C11.3942 22.3291 8.95283 21.9932 7.12599 21.3831C5.27682 20.7658 4.61799 20.0575 4.61799 19.6005C4.61799 19.2268 5.04343 18.7829 5.7852 18.3823C6.08664 18.2196 6.19673 17.8475 6.03113 17.5513C5.86553 17.2551 5.48705 17.1469 5.18553 17.3096C4.35848 17.7562 3.37256 18.5161 3.37256 19.6005C3.37256 20.4317 3.95426 21.6168 6.72534 22.5421C8.67784 23.194 11.2614 23.553 14.0002 23.553C16.739 23.553 19.3226 23.194 21.2751 22.5421C24.0462 21.6168 24.6279 20.4317 24.6279 19.6005C24.6279 18.5161 23.642 17.7562 22.8149 17.3097Z" fill="#5E6278"/>
<path d="M9.19933 20.1934C10.4902 20.5078 12.1952 20.6809 14.0002 20.6809C15.8052 20.6809 17.5102 20.5078 18.801 20.1934C20.3803 19.8088 21.181 19.252 21.181 18.5386C21.181 17.8252 20.3803 17.2684 18.801 16.8838C18.4505 16.7984 18.0692 16.7236 17.6638 16.6597C17.4437 16.9876 17.213 17.3251 16.9719 17.6724C17.4205 17.7304 17.8418 17.8016 18.2243 17.8856C19.3866 18.1408 19.8112 18.4282 19.8985 18.5386C19.8111 18.6491 19.3866 18.9364 18.2244 19.1916C17.1243 19.4332 15.709 19.571 14.2184 19.5833C14.1462 19.5879 14.0734 19.5905 14.0002 19.5905C13.9269 19.5905 13.8542 19.5879 13.782 19.5833C12.2913 19.571 10.876 19.4332 9.77595 19.1916C8.61372 18.9364 8.18916 18.6491 8.10188 18.5386C8.18916 18.4282 8.61376 18.1408 9.77599 17.8856C10.1585 17.8016 10.5798 17.7304 11.0285 17.6724C10.7874 17.3252 10.5567 16.9876 10.3365 16.6597C9.93119 16.7236 9.54987 16.7984 9.19933 16.8838C7.62009 17.2684 6.81934 17.8252 6.81934 18.5386C6.81934 19.252 7.62009 19.8087 9.19933 20.1934Z" fill="#5E6278"/>
<path d="M14.0002 18.9574C14.5778 18.9574 15.1025 18.6673 15.4038 18.1812C17.5152 14.7755 20.0321 10.287 20.0321 8.24458C20.0321 4.96554 17.3262 2.29785 14.0002 2.29785C10.6741 2.29785 7.96826 4.96554 7.96826 8.24458C7.96826 10.287 10.4852 14.7755 12.5965 18.1812C12.8979 18.6673 13.4226 18.9574 14.0002 18.9574ZM11.5757 7.83627C11.5757 6.51834 12.6633 5.44609 14.0002 5.44609C15.337 5.44609 16.4247 6.51834 16.4247 7.83627C16.4247 9.15425 15.337 10.2265 14.0002 10.2265C12.6633 10.2265 11.5757 9.15429 11.5757 7.83627Z" fill="#5E6278"/>
</g>
<defs>
<clipPath id="clip0_618_8073">
<rect width="27" height="27" fill="white" transform="translate(0.5)"/>
</clipPath>
</defs>
</svg>
