<svg width="28" height="27" viewBox="0 0 28 27" fill="none" xmlns="http://www.w3.org/2000/svg">
<g clip-path="url(#clip0_618_8071)">
<path d="M7.98547 13.5718H6.95497C6.68464 13.5718 6.4406 13.7206 6.33366 13.9499L3.48096 20.0942L10.2558 16.8936C9.44478 15.8555 8.64237 14.7107 7.98547 13.5718Z" fill="#5E6278"/>
<path d="M21.0921 13.9499C20.9854 13.7206 20.7412 13.5718 20.471 13.5718H19.4405C18.2 15.7221 16.3927 17.9442 15.243 19.1668C14.4344 20.0247 12.9902 20.0237 12.1829 19.1668C12.1003 19.0791 11.6692 18.6174 11.0754 17.9074L9.854 18.4847L14.4742 22.7502L23.2287 18.552L21.0921 13.9499Z" fill="#5E6278"/>
<path d="M2.64736 21.8896L2.27885 22.6834C2.08811 23.0942 2.4149 23.5529 2.89999 23.5529H12.8208C12.8829 23.5103 12.8836 23.5129 13.2167 23.3531L8.58962 19.082L2.64736 21.8896Z" fill="#5E6278"/>
<path d="M25.147 22.6837L23.7627 19.7021L15.7319 23.5532H24.5258C25.0099 23.5532 25.3381 23.0953 25.147 22.6837Z" fill="#5E6278"/>
<path d="M14.3888 7.91584C14.3888 7.57173 14.0855 7.29199 13.7129 7.29199C13.3402 7.29199 13.0371 7.57173 13.0371 7.91584C13.0371 8.25979 13.3402 8.53969 13.7129 8.53969C14.0855 8.53969 14.3888 8.25979 14.3888 7.91584Z" fill="#5E6278"/>
<path d="M14.2232 18.3065C14.4507 18.0649 19.7955 12.3459 19.7955 8.41474C19.7955 0.308424 7.63086 0.209503 7.63086 8.41474C7.63086 12.3459 12.9757 18.0649 13.2032 18.3065C13.4727 18.5924 13.9543 18.5921 14.2232 18.3065ZM11.6857 7.91576C11.6857 6.88374 12.5952 6.04421 13.7132 6.04421C14.831 6.04421 15.7405 6.88374 15.7405 7.91576C15.7405 8.94762 14.831 9.78714 13.7132 9.78714C12.5952 9.78714 11.6857 8.94762 11.6857 7.91576Z" fill="#5E6278"/>
</g>
<defs>
<clipPath id="clip0_618_8071">
<rect width="27" height="27" fill="white" transform="translate(0.5)"/>
</clipPath>
</defs>
</svg>
