<svg width="21" height="21" viewBox="6 2 21 21" fill="none" xmlns="http://www.w3.org/2000/svg">
<g filter="url(#filter0_d_618_8252)">
<rect x="6" y="2" width="21" height="21" rx="6" fill="#5151F9"/>
<g clip-path="url(#clip0_618_8252)">
<path fill-rule="evenodd" clip-rule="evenodd" d="M13.3535 9.51506L13.705 8.17314C13.7156 8.12521 13.7582 8.09326 13.8061 8.09326H19.4561C19.504 8.09326 19.5466 8.12521 19.5572 8.17314L19.9087 9.51506H13.3535Z" fill="white"/>
<path fill-rule="evenodd" clip-rule="evenodd" d="M19.4561 17.183H13.8061C13.7582 17.183 13.7156 17.1457 13.705 17.1031L13.3535 15.7559H19.9087L19.5572 17.1031C19.5466 17.1457 19.504 17.183 19.4561 17.183Z" fill="white"/>
<path fill-rule="evenodd" clip-rule="evenodd" d="M20.6811 15.543H12.5816C12.523 15.543 12.4751 15.4951 12.4751 15.4365V9.83453C12.4751 9.77595 12.523 9.72803 12.5816 9.72803H20.6811C20.7396 9.72803 20.7876 9.77595 20.7876 9.83453V15.4365C20.7876 15.4951 20.7396 15.543 20.6811 15.543ZM16.0323 15.0744C16.0003 15.0744 15.9737 15.0638 15.9524 15.0425L15.4305 14.5046V14.9679C15.4305 15.0265 15.3826 15.0744 15.324 15.0744C15.2654 15.0744 15.2175 15.0265 15.2175 14.9679V13.5142C15.2175 13.4556 15.2654 13.4077 15.324 13.4077C15.3826 13.4077 15.4305 13.4556 15.4305 13.5142V13.9774L15.9524 13.4396C15.995 13.397 16.0642 13.397 16.1068 13.4343C16.1494 13.4769 16.1494 13.5461 16.1068 13.5887L15.4731 14.2384L16.1068 14.8934C16.1494 14.936 16.1494 15.0052 16.1068 15.0478C16.0855 15.0638 16.0589 15.0744 16.0323 15.0744ZM16.5062 15.0744C16.5009 15.0744 16.4902 15.0744 16.4796 15.0691C16.421 15.0584 16.389 14.9999 16.405 14.9413L16.7618 13.5994C16.7724 13.5514 16.815 13.5195 16.863 13.5195C16.9109 13.5195 16.9535 13.5514 16.9695 13.5994L17.2197 14.5526L17.4754 13.5994C17.486 13.5514 17.5286 13.5195 17.5765 13.5195C17.6245 13.5195 17.6671 13.5514 17.683 13.5994L18.0398 14.9413C18.0558 14.9999 18.0185 15.0584 17.9653 15.0691C17.9067 15.0851 17.8481 15.0531 17.8321 14.9945L17.5765 14.0413L17.3262 14.9945C17.3103 15.0425 17.2677 15.0744 17.2197 15.0744C17.1718 15.0744 17.1292 15.0425 17.1186 14.9945L16.863 14.0413L16.6127 14.9945C16.5967 15.0425 16.5541 15.0744 16.5062 15.0744ZM13.9555 14.8028C13.6519 14.8028 13.407 14.5579 13.407 14.2543C13.407 13.9561 13.6519 13.7112 13.9555 13.7112C14.2537 13.7112 14.4986 13.9561 14.4986 14.2543C14.4986 14.5579 14.2537 14.8028 13.9555 14.8028ZM13.9555 13.9242C13.7691 13.9242 13.62 14.0733 13.62 14.2543C13.62 14.4407 13.7691 14.5898 13.9555 14.5898C14.1365 14.5898 14.2856 14.4407 14.2856 14.2543C14.2856 14.0733 14.1365 13.9242 13.9555 13.9242ZM19.3072 14.8028C19.009 14.8028 18.764 14.5579 18.764 14.2543C18.764 13.9561 19.009 13.7112 19.3072 13.7112C19.6054 13.7112 19.8503 13.9561 19.8503 14.2543C19.8503 14.5579 19.6054 14.8028 19.3072 14.8028ZM19.3072 13.9242C19.1261 13.9242 18.977 14.0733 18.977 14.2543C18.977 14.4407 19.1261 14.5898 19.3072 14.5898C19.4882 14.5898 19.6373 14.4407 19.6373 14.2543C19.6373 14.0733 19.4882 13.9242 19.3072 13.9242ZM18.9291 13.184H14.3336C14.275 13.184 14.2271 13.1361 14.2271 13.0775V10.7132C14.2271 10.6546 14.275 10.6067 14.3336 10.6067H18.9291C18.9877 10.6067 19.0356 10.6546 19.0356 10.7132V13.0722C19.0356 13.1361 18.9877 13.184 18.9291 13.184Z" fill="white"/>
<path fill-rule="evenodd" clip-rule="evenodd" d="M15.3932 12.6356C15.3346 12.6356 15.2867 12.5877 15.2867 12.5291V11.4641L14.9406 11.7197C14.8926 11.7517 14.8234 11.741 14.7915 11.6931C14.7542 11.6452 14.7648 11.5813 14.8128 11.544L15.3346 11.1712C15.3666 11.1499 15.4092 11.1446 15.4411 11.1659C15.4784 11.1819 15.4997 11.2192 15.4997 11.2564V12.5291C15.4997 12.5877 15.4518 12.6356 15.3932 12.6356Z" fill="white"/>
<path fill-rule="evenodd" clip-rule="evenodd" d="M15.7661 12.6354H15.0259C14.9674 12.6354 14.9194 12.5874 14.9194 12.5289C14.9194 12.4703 14.9674 12.4224 15.0259 12.4224H15.7661C15.8247 12.4224 15.8726 12.4703 15.8726 12.5289C15.8726 12.5874 15.8247 12.6354 15.7661 12.6354Z" fill="white"/>
<path fill-rule="evenodd" clip-rule="evenodd" d="M16.7033 12.6356C16.6447 12.6356 16.5967 12.5877 16.5967 12.5291V11.4641L16.2506 11.7197C16.2027 11.7517 16.1335 11.741 16.1015 11.6931C16.0642 11.6452 16.0749 11.5813 16.1228 11.544L16.6393 11.1712C16.6713 11.1499 16.7192 11.1446 16.7512 11.1659C16.7885 11.1819 16.8098 11.2192 16.8098 11.2564V12.5291C16.8098 12.5877 16.7618 12.6356 16.7033 12.6356Z" fill="white"/>
<path fill-rule="evenodd" clip-rule="evenodd" d="M17.0761 12.6354H16.3306C16.272 12.6354 16.2241 12.5874 16.2241 12.5289C16.2241 12.4703 16.272 12.4224 16.3306 12.4224H17.0761C17.1347 12.4224 17.1826 12.4703 17.1826 12.5289C17.1826 12.5874 17.1347 12.6354 17.0761 12.6354Z" fill="white"/>
<path fill-rule="evenodd" clip-rule="evenodd" d="M18.013 12.6356C17.9544 12.6356 17.9065 12.5877 17.9065 12.5291V11.4641L17.5551 11.7197C17.5071 11.7517 17.4432 11.741 17.406 11.6931C17.374 11.6452 17.3847 11.5813 17.4326 11.544L17.9491 11.1712C17.9811 11.1499 18.0237 11.1446 18.0609 11.1659C18.0982 11.1819 18.1195 11.2192 18.1195 11.2564V12.5291C18.1195 12.5877 18.0716 12.6356 18.013 12.6356Z" fill="white"/>
<path fill-rule="evenodd" clip-rule="evenodd" d="M18.3857 12.6354H17.6402C17.5816 12.6354 17.5337 12.5874 17.5337 12.5289C17.5337 12.4703 17.5816 12.4224 17.6402 12.4224H18.3857C18.4443 12.4224 18.4922 12.4703 18.4922 12.5289C18.4922 12.5874 18.4443 12.6354 18.3857 12.6354Z" fill="white"/>
</g>
</g>
<defs>
<filter id="filter0_d_618_8252" x="0.5" y="-2.38419e-07" width="32" height="32" filterUnits="userSpaceOnUse" color-interpolation-filters="sRGB">
<feFlood flood-opacity="0" result="BackgroundImageFix"/>
<feColorMatrix in="SourceAlpha" type="matrix" values="0 0 0 0 0 0 0 0 0 0 0 0 0 0 0 0 0 0 127 0" result="hardAlpha"/>
<feOffset dy="3.5"/>
<feGaussianBlur stdDeviation="2.75"/>
<feColorMatrix type="matrix" values="0 0 0 0 0 0 0 0 0 0 0 0 0 0 0 0 0 0 0.02 0"/>
<feBlend mode="normal" in2="BackgroundImageFix" result="effect1_dropShadow_618_8252"/>
<feBlend mode="normal" in="SourceGraphic" in2="effect1_dropShadow_618_8252" result="shape"/>
</filter>
<clipPath id="clip0_618_8252">
<rect width="13" height="13" fill="white" transform="translate(10 6)"/>
</clipPath>
</defs>
</svg>
