<svg width="5" height="21" viewBox="0 0 5 21" fill="none" xmlns="http://www.w3.org/2000/svg">
<path fill-rule="evenodd" clip-rule="evenodd" d="M4.99996 2.72972C4.99996 3.94092 3.98293 4.92383 2.72776 4.92383C1.4726 4.92383 0.455566 3.94092 0.455566 2.72972C0.455566 1.51761 1.4726 0.535604 2.72776 0.535604C3.98293 0.535604 4.99996 1.51761 4.99996 2.72972Z" fill="#DADADA"/>
<path fill-rule="evenodd" clip-rule="evenodd" d="M4.99996 10.5001C4.99996 11.704 3.98293 12.6797 2.72776 12.6797C1.4726 12.6797 0.455566 11.704 0.455566 10.5001C0.455566 9.29612 1.4726 8.32045 2.72776 8.32045C3.98293 8.32045 4.99996 9.29612 4.99996 10.5001Z" fill="#DADADA"/>
<path fill-rule="evenodd" clip-rule="evenodd" d="M4.99996 18.2707C4.99996 19.4828 3.98293 20.4648 2.72776 20.4648C1.4726 20.4648 0.455566 19.4828 0.455566 18.2707C0.455566 17.0595 1.4726 16.0766 2.72776 16.0766C3.98293 16.0766 4.99996 17.0595 4.99996 18.2707Z" fill="#DADADA"/>
</svg>
