<svg
        width="25"
        height="25"
        viewBox="0 0 25 25"
        fill="none"
        xmlns="http://www.w3.org/2000/svg"
>
    <path
            d="M12.6079 22.7373C14.2648 22.7373 15.6079 21.3942 15.6079 19.7373C15.6079 18.0805 14.2648 16.7373 12.6079 16.7373C10.9511 16.7373 9.60791 18.0805 9.60791 19.7373C9.60791 21.3942 10.9511 22.7373 12.6079 22.7373Z"
            fill="#E9E9ED"
    />
    <path
            d="M19.6079 15.7373V18.7373C19.6079 19.3373 19.2079 19.7373 18.6079 19.7373H6.60791C6.00791 19.7373 5.60791 19.3373 5.60791 18.7373V15.7373C6.70791 15.7373 7.60791 14.8373 7.60791 13.7373V10.7373C7.60791 8.3373 9.30791 6.3373 11.6079 5.8373V3.7373C11.6079 3.1373 12.0079 2.7373 12.6079 2.7373C13.2079 2.7373 13.6079 3.1373 13.6079 3.7373V5.8373C15.9079 6.3373 17.6079 8.3373 17.6079 10.7373V13.7373C17.6079 14.8373 18.5079 15.7373 19.6079 15.7373ZM11.6079 10.7373C11.6079 10.1373 12.0079 9.7373 12.6079 9.7373C13.2079 9.7373 13.6079 9.3373 13.6079 8.7373C13.6079 8.1373 13.2079 7.7373 12.6079 7.7373C10.9079 7.7373 9.60791 9.0373 9.60791 10.7373C9.60791 11.3373 10.0079 11.7373 10.6079 11.7373C11.2079 11.7373 11.6079 11.3373 11.6079 10.7373Z"
            fill="#B5B5C3"
    />
</svg>