<svg width="21" height="21" viewBox="5.5 2 21 21" fill="none" xmlns="http://www.w3.org/2000/svg">
<g filter="url(#filter0_d_1987_1916)">
<rect x="5.5" y="2" width="21" height="21" rx="6" fill="#ff0000"/>
</g>
<path d="M 18.1 8.9 C 17.9 9 17.9 9.2 17.9 9.4 C 17.9 9.6 17.9 9.8 18.1 10 C 18.6 10.5 18.9 11.1 19.1 11.8 C 19.2 12.5 19.1 13.2 18.9 13.9 C 18.6 14.5 18.1 15.1 17.5 15.4 C 17 15.8 16.3 16 15.6 16 C 14.9 16 14.2 15.8 13.6 15.4 C 13 15.1 12.6 14.5 12.3 13.9 C 12 13.2 12 12.5 12.1 11.8 C 12.2 11.1 12.6 10.5 13.1 10 C 13.2 9.8 13.3 9.6 13.3 9.4 C 13.3 9.2 13.2 9 13.1 8.9 C 12.9 8.7 12.7 8.7 12.5 8.7 C 12.3 8.7 12.1 8.7 12 8.9 C 11.2 9.6 10.8 10.5 10.6 11.5 C 10.4 12.5 10.5 13.5 10.9 14.5 C 11.2 15.4 11.9 16.2 12.7 16.8 C 13.6 17.3 14.6 17.6 15.6 17.6 C 16.6 17.6 17.6 17.3 18.4 16.8 C 19.3 16.2 19.9 15.4 20.3 14.5 C 20.7 13.5 20.8 12.5 20.6 11.5 C 20.4 10.5 19.9 9.6 19.2 8.9 C 19.1 8.7 18.9 8.7 18.6 8.7 C 18.4 8.7 18.2 8.7 18.1 8.9 Z" fill="white"/>
<path d="M 15.6 12.4 C 15.8 12.4 16 12.3 16.1 12.2 C 16.3 12 16.4 11.8 16.4 11.6 V 8.2 C 16.4 8 16.3 7.8 16.1 7.6 C 16 7.5 15.8 7.4 15.6 7.4 C 15.4 7.4 15.2 7.5 15 7.6 C 14.9 7.8 14.8 8 14.8 8.2 V 11.6 C 14.8 11.8 14.9 12 15 12.2 C 15.2 12.3 15.4 12.4 15.6 12.4 Z" fill="white"/>
<defs>
<filter id="filter0_d_1987_1916" x="-4.76837e-07" y="-2.38419e-07" width="32" height="32" filterUnits="userSpaceOnUse" color-interpolation-filters="sRGB">
<feFlood flood-opacity="0" result="BackgroundImageFix"/>
<feColorMatrix in="SourceAlpha" type="matrix" values="0 0 0 0 0 0 0 0 0 0 0 0 0 0 0 0 0 0 127 0" result="hardAlpha"/>
<feOffset dy="3.5"/>
<feGaussianBlur stdDeviation="2.75"/>
<feColorMatrix type="matrix" values="0 0 0 0 0 0 0 0 0 0 0 0 0 0 0 0 0 0 0.02 0"/>
<feBlend mode="normal" in2="BackgroundImageFix" result="effect1_dropShadow_1987_1916"/>
<feBlend mode="normal" in="SourceGraphic" in2="effect1_dropShadow_1987_1916" result="shape"/>
</filter>
</defs>
</svg>
