<svg width="21" height="21" viewBox="5.5 2 21 21" fill="none" xmlns="http://www.w3.org/2000/svg">
<g filter="url(#filter0_d_1987_7646)">
<rect x="5.5" y="2" width="21" height="21" rx="6" fill="#50CD89"/>
</g>
<path d="M18.0865 8.88096C17.9389 9.02864 17.8559 9.22891 17.8559 9.43772C17.8559 9.64654 17.9389 9.84681 18.0865 9.99448C18.5821 10.4901 18.9196 11.1215 19.0563 11.8089C19.1931 12.4964 19.1229 13.2089 18.8547 13.8564C18.5864 14.504 18.1322 15.0574 17.5495 15.4468C16.9667 15.8362 16.2816 16.044 15.5807 16.044C14.8798 16.044 14.1946 15.8362 13.6119 15.4468C13.0291 15.0574 12.5749 14.504 12.3067 13.8564C12.0385 13.2089 11.9683 12.4964 12.105 11.8089C12.2417 11.1215 12.5792 10.4901 13.0748 9.99448C13.2183 9.84596 13.2977 9.64704 13.2959 9.44056C13.2941 9.23408 13.2113 9.03656 13.0652 8.89055C12.9192 8.74454 12.7217 8.66172 12.5152 8.65993C12.3088 8.65814 12.1098 8.73751 11.9613 8.88096C11.2454 9.59681 10.7578 10.5089 10.5603 11.5018C10.3628 12.4948 10.4641 13.524 10.8515 14.4594C11.2389 15.3947 11.895 16.1942 12.7368 16.7567C13.5786 17.3191 14.5683 17.6194 15.5807 17.6194C16.5931 17.6194 17.5828 17.3191 18.4245 16.7567C19.2663 16.1942 19.9224 15.3947 20.3098 14.4594C20.6972 13.524 20.7986 12.4948 20.601 11.5018C20.4035 10.5089 19.9159 9.59681 19.2 8.88096C19.0523 8.73333 18.8521 8.65039 18.6433 8.65039C18.4344 8.65039 18.2342 8.73333 18.0865 8.88096Z" fill="white"/>
<path d="M15.5805 12.4213C15.789 12.4203 15.9887 12.337 16.1362 12.1896C16.2836 12.0421 16.3669 11.8424 16.368 11.6338V8.16885C16.368 7.95999 16.285 7.75969 16.1373 7.612C15.9896 7.46432 15.7893 7.38135 15.5805 7.38135C15.3716 7.38135 15.1713 7.46432 15.0236 7.612C14.8759 7.75969 14.793 7.95999 14.793 8.16885V11.6338C14.794 11.8424 14.8773 12.0421 15.0248 12.1896C15.1722 12.337 15.3719 12.4203 15.5805 12.4213Z" fill="white"/>
<defs>
<filter id="filter0_d_1987_7646" x="-4.76837e-07" y="-2.38419e-07" width="32" height="32" filterUnits="userSpaceOnUse" color-interpolation-filters="sRGB">
<feFlood flood-opacity="0" result="BackgroundImageFix"/>
<feColorMatrix in="SourceAlpha" type="matrix" values="0 0 0 0 0 0 0 0 0 0 0 0 0 0 0 0 0 0 127 0" result="hardAlpha"/>
<feOffset dy="3.5"/>
<feGaussianBlur stdDeviation="2.75"/>
<feColorMatrix type="matrix" values="0 0 0 0 0 0 0 0 0 0 0 0 0 0 0 0 0 0 0.02 0"/>
<feBlend mode="normal" in2="BackgroundImageFix" result="effect1_dropShadow_1987_7646"/>
<feBlend mode="normal" in="SourceGraphic" in2="effect1_dropShadow_1987_7646" result="shape"/>
</filter>
</defs>
</svg>
