<svg width="44" height="44" viewBox="0 0 44 44" fill="none" xmlns="http://www.w3.org/2000/svg">
<rect width="44" height="44" rx="6" fill="#D7F9EF"/>
<path fill-rule="evenodd" clip-rule="evenodd" d="M14.8335 13.875C14.2812 13.875 13.8335 14.3227 13.8335 14.875V30.125C13.8335 30.6773 14.2812 31.125 14.8335 31.125H15.7085C16.2608 31.125 16.7085 30.6773 16.7085 30.125V14.875C16.7085 14.3227 16.2608 13.875 15.7085 13.875H14.8335ZM19.6252 13.875C19.0729 13.875 18.6252 14.3227 18.6252 14.875V30.125C18.6252 30.6773 19.0729 31.125 19.6252 31.125H20.5002C21.0524 31.125 21.5002 30.6773 21.5002 30.125V14.875C21.5002 14.3227 21.0524 13.875 20.5002 13.875H19.6252Z" fill="#0BB783"/>
<rect opacity="0.3" x="22.9155" y="14.7607" width="2.875" height="17.25" rx="1" transform="rotate(-19 22.9155 14.7607)" fill="#0BB783"/>
</svg>
