<svg width="40" height="40" viewBox="0 0 40 40" fill="none" xmlns="http://www.w3.org/2000/svg">
<path d="M9.5 7C9.5 5.067 11.067 3.5 13 3.5H24.1716C24.5694 3.5 24.9509 3.65804 25.2322 3.93934L34.0607 12.7678C34.342 13.0491 34.5 13.4306 34.5 13.8284V33C34.5 34.933 32.933 36.5 31 36.5H13C11.067 36.5 9.5 34.933 9.5 33V7Z" fill="white" stroke="#9FA5B2"/>
<path d="M24.5 3.59082V9.21397C24.5 11.4231 26.2909 13.214 28.5 13.214H34.0414" stroke="#9FA5B2"/>
<rect x="5" y="20" width="22" height="12" rx="3" fill="#EF4444"/>
<path d="M8.12214 29.5V22.9545H10.5767C11.0795 22.9545 11.5014 23.0483 11.8423 23.2358C12.1854 23.4233 12.4442 23.6811 12.6189 24.0092C12.7958 24.3352 12.8842 24.706 12.8842 25.1214C12.8842 25.5412 12.7958 25.9141 12.6189 26.2401C12.4421 26.5661 12.1811 26.8228 11.8359 27.0103C11.4907 27.1957 11.0657 27.2884 10.5607 27.2884H8.93393V26.3136H10.4009C10.6949 26.3136 10.9357 26.2624 11.1232 26.1602C11.3107 26.0579 11.4492 25.9173 11.5387 25.7383C11.6303 25.5593 11.6761 25.3537 11.6761 25.1214C11.6761 24.8892 11.6303 24.6847 11.5387 24.5078C11.4492 24.331 11.3096 24.1935 11.12 24.0955C10.9325 23.9954 10.6907 23.9453 10.3945 23.9453H9.30786V29.5H8.12214ZM15.8622 29.5H13.6441V22.9545H15.9069C16.5568 22.9545 17.115 23.0856 17.5816 23.3477C18.0504 23.6076 18.4105 23.9815 18.6619 24.4695C18.9133 24.9574 19.039 25.5412 19.039 26.2209C19.039 26.9027 18.9122 27.4886 18.6587 27.9787C18.4073 28.4687 18.044 28.8448 17.5688 29.1069C17.0958 29.369 16.5269 29.5 15.8622 29.5ZM14.8299 28.4741H15.8046C16.2606 28.4741 16.6409 28.391 16.9456 28.2248C17.2503 28.0565 17.4794 27.8061 17.6328 27.4737C17.7862 27.1392 17.8629 26.7216 17.8629 26.2209C17.8629 25.7202 17.7862 25.3047 17.6328 24.9744C17.4794 24.642 17.2524 24.3938 16.952 24.2298C16.6537 24.0636 16.283 23.9805 15.8398 23.9805H14.8299V28.4741ZM19.8956 29.5V22.9545H24.0888V23.9485H21.0813V25.7255H23.8012V26.7195H21.0813V29.5H19.8956Z" fill="white"/>
</svg>
