<svg width="17" height="17" viewBox="0 0 17 17" fill="none" xmlns="http://www.w3.org/2000/svg">
<g clip-path="url(#clip0_629_19263)">
<path d="M14.4413 11.1691L12.741 9.46885C12.1338 8.86161 11.1015 9.10453 10.8586 9.89391C10.6764 10.4405 10.0692 10.7441 9.52268 10.6226C8.30821 10.319 6.66866 8.74016 6.36505 7.46496C6.18287 6.91843 6.54722 6.31119 7.09373 6.12904C7.88314 5.88615 8.12603 4.85384 7.5188 4.2466L5.81853 2.54634C5.33274 2.12127 4.60406 2.12127 4.17899 2.54634L3.02524 3.70009C1.87149 4.91457 3.14669 8.13292 6.0007 10.9869C8.85472 13.841 12.0731 15.1769 13.2876 13.9624L14.4413 12.8087C14.8664 12.3229 14.8664 11.5942 14.4413 11.1691Z" fill="#5E6278"/>
</g>
<defs>
<clipPath id="clip0_629_19263">
<rect width="17" height="17" fill="white"/>
</clipPath>
</defs>
</svg>
