<svg width="16" height="16" viewBox="0 0 16 16" fill="none" xmlns="http://www.w3.org/2000/svg">
<g clip-path="url(#clip0_4050_15468)">
<path d="M3.94474 4.5539C3.9084 4.54187 3.87218 4.54187 3.83596 4.54187C3.66677 4.54187 3.52188 4.65065 3.47351 4.81973C3.44932 4.91636 3.46147 5.01311 3.50973 5.09758C3.5581 5.18218 3.6427 5.24259 3.73933 5.27881C3.94474 5.33922 4.15004 5.2184 4.21045 5.02514C4.23464 4.92851 4.2226 4.83188 4.17423 4.74728C4.12597 4.65065 4.04137 4.59024 3.94474 4.5539Z" fill="#FFA800"/>
<path d="M5.98649 6.31793C6.32476 6.31793 6.65099 6.23334 6.941 6.06414C7.06182 5.9917 7.20682 6.02792 7.27926 6.14874C7.35171 6.26956 7.31549 6.41456 7.19467 6.48701C6.83221 6.70457 6.40935 6.81324 5.98649 6.81324C5.91405 6.81324 5.84149 6.81324 5.76904 6.8012" fill="#FFA800"/>
<path d="M4.83859 5.93124C5.15278 6.17287 5.5393 6.30573 5.9381 6.31788C6.21595 5.1097 5.47889 3.87734 4.25868 3.53907C4.13787 3.50285 4.01705 3.4907 3.90827 3.46651L4.30706 3.6357C4.2345 3.78071 4.18624 3.93775 4.1499 4.10694C4.35531 4.17938 4.52451 4.31224 4.63317 4.50561C4.74195 4.71103 4.77818 4.94051 4.71777 5.15796C4.6091 5.5446 4.25868 5.78623 3.87204 5.78623C3.7996 5.78623 3.715 5.7742 3.63041 5.75001C3.40093 5.6896 3.2197 5.5446 3.09888 5.33918C2.9901 5.13389 2.95388 4.90429 3.01429 4.68684C3.09888 4.37264 3.35255 4.1552 3.64256 4.08275C3.67878 3.8653 3.73919 3.65989 3.83582 3.45448C3.35255 3.4061 2.88132 3.50285 2.44642 3.74449C1.89071 4.05857 1.49191 4.55387 1.31069 5.17011C1.03283 6.10043 1.33487 7.06697 2.05978 7.64687C2.096 7.68309 2.10815 7.73147 2.096 7.76769L1.61273 9.61618C1.61273 9.6524 1.61273 9.67658 1.62488 9.70077L1.90274 10.329C1.92693 10.3895 1.90274 10.4499 1.85437 10.4861L1.39528 10.7881C1.34703 10.8244 1.32284 10.8848 1.34703 10.9452L1.57651 11.4284C1.6007 11.4888 1.58866 11.5493 1.52825 11.5855L1.0812 11.8755C1.03283 11.9117 1.00864 11.9721 1.03283 12.0325L1.26243 12.5158C1.28662 12.5762 1.26243 12.6487 1.21406 12.6728L0.815382 12.8903C0.754973 12.9266 0.730786 12.9991 0.767008 13.0595L1.21406 13.869C1.22621 13.8932 1.26243 13.9172 1.28662 13.9294H1.32284C1.34703 13.9294 1.3711 13.9294 1.38325 13.9172L2.31357 13.3736C2.33764 13.3615 2.36182 13.3373 2.37398 13.3011L3.81164 8.35963C3.82379 8.31137 3.86001 8.27515 3.90827 8.27515C4.68155 8.16636 5.39442 7.58646 5.74472 6.81318C5.29767 6.77696 4.86277 6.60777 4.50032 6.32991C4.39154 6.24532 4.36747 6.08828 4.45195 5.97961C4.57276 5.87083 4.72992 5.84664 4.83859 5.93124Z" fill="#FFA800"/>
<path d="M3.82373 3.44241C4.21025 2.64495 5.04394 2.08923 5.9863 2.08923C7.09784 2.08923 8.07642 2.87455 8.31805 3.93772C8.34224 4.07057 8.25764 4.20354 8.12479 4.22773C7.99194 4.2518 7.85897 4.16732 7.82275 4.03435C7.62949 3.18863 6.85621 2.5725 5.97426 2.5725C5.2372 2.5725 4.58486 2.99537 4.27066 3.62364" fill="#FFA800"/>
<path d="M15.6761 8.54085L11.4355 4.34857C11.3387 4.25183 11.073 4.03438 10.7588 4.02234L8.01625 3.76855C8.00421 3.76855 8.00421 3.76855 7.99218 3.76855H7.93177C7.64176 3.76855 7.40012 3.87734 7.18268 4.09479C6.95308 4.32439 6.85645 4.56602 6.85645 4.90429V4.92847L7.09808 7.64687C7.09808 7.96095 7.32768 8.21474 7.42431 8.31137L11.665 12.5038C11.7133 12.552 11.7737 12.5762 11.8462 12.5762C11.9188 12.5762 11.9792 12.552 12.0274 12.5038L15.6882 8.89127C15.7728 8.79464 15.7728 8.6376 15.6761 8.54085ZM9.96148 8.25096C9.90107 8.25096 9.82851 8.22677 9.78026 8.1784C9.68362 8.08177 9.68362 7.92473 9.78026 7.8281L10.9884 6.63196C11.0851 6.53533 11.2421 6.53533 11.3387 6.63196C11.4355 6.72859 11.4355 6.88574 11.3387 6.98237L10.1306 8.1784C10.0823 8.22677 10.0219 8.25096 9.96148 8.25096ZM12.7523 8.37178L11.5441 9.5678C11.4959 9.61618 11.4355 9.64036 11.3629 9.64036C11.2905 9.64036 11.2301 9.61618 11.1817 9.5678C11.0851 9.47117 11.0851 9.31413 11.1817 9.2175L12.3899 8.02136C12.4865 7.92473 12.6437 7.92473 12.7403 8.02136C12.849 8.11799 12.849 8.27515 12.7523 8.37178Z" fill="#FFA800"/>
</g>
<defs>
<clipPath id="clip0_4050_15468">
<rect width="15" height="15" fill="white" transform="translate(0.75 0.5)"/>
</clipPath>
</defs>
</svg>
