<svg width="28" height="27" viewBox="0 0 28 27" fill="none" xmlns="http://www.w3.org/2000/svg">
<g clip-path="url(#clip0_618_8072)">
<path d="M24.3199 17.6551L18.6106 14.3885C18.3713 14.2517 18.0701 14.292 17.8753 14.4868L17.1502 15.212L16.1917 14.2535L18.9885 11.4565L15.7818 8.24985L12.9852 11.0467L12.1217 10.1832L12.8468 9.45788C13.0417 9.26305 13.0819 8.96185 12.9451 8.72271L9.67872 3.01312C9.51911 2.73412 9.17052 2.62659 8.88138 2.76719L4.12435 5.08137C3.94678 5.16773 3.8219 5.33471 3.7892 5.52947C3.7565 5.72422 3.81998 5.92281 3.95965 6.06247L9.66899 11.7721C9.78353 11.8867 9.93887 11.951 10.1009 11.951C10.2629 11.951 10.4182 11.8867 10.5328 11.7721L11.2579 11.0469L12.2344 12.0235C12.0108 12.5422 11.9892 13.1278 12.1706 13.6592C11.6697 13.3882 11.1064 13.2439 10.5209 13.2439C9.59305 13.2439 8.72071 13.6053 8.06461 14.2614C7.82613 14.4999 7.82613 14.8866 8.06461 15.1252L9.65718 16.7178L9.25171 17.1233C9.01323 17.3618 9.01323 17.7485 9.25175 17.987C9.37102 18.1063 9.52733 18.1659 9.68361 18.1659C9.83989 18.1659 9.99624 18.1063 10.1155 17.987L10.5209 17.5816L12.1134 19.1741C12.228 19.2887 12.3833 19.3531 12.5453 19.3531C12.7073 19.3531 12.8627 19.2887 12.9772 19.1741C14.087 18.0644 14.2867 16.3845 13.5779 15.0687C13.8119 15.1489 14.0601 15.1912 14.3149 15.1912C14.6301 15.1912 14.9352 15.1268 15.216 15.0051L16.2866 16.0757L15.5614 16.801C15.3228 17.0395 15.3228 17.4262 15.5614 17.6647L21.2707 23.3744C21.3862 23.4898 21.5419 23.5533 21.7025 23.5533C21.7361 23.5533 21.77 23.5505 21.8037 23.5448C21.9984 23.5121 22.1654 23.3873 22.2518 23.2096L24.5659 18.4524C24.7065 18.1633 24.5989 17.8147 24.3199 17.6551Z" fill="#5E6278"/>
<path d="M9.68364 22.2377C7.10182 22.2377 5.00133 20.1371 5.00133 17.5551C5.00133 17.2178 4.72787 16.9443 4.39056 16.9443C4.05325 16.9443 3.77979 17.2178 3.77979 17.5551C3.77979 20.8107 6.42822 23.4593 9.6836 23.4593C10.0209 23.4593 10.2944 23.1858 10.2944 22.8485C10.2944 22.5112 10.021 22.2377 9.68364 22.2377Z" fill="#5E6278"/>
<path d="M9.68356 19.591C8.56104 19.591 7.64782 18.6777 7.64782 17.5551C7.64782 17.2178 7.37435 16.9443 7.03704 16.9443C6.69973 16.9443 6.42627 17.2178 6.42627 17.5551C6.42627 19.3513 7.88748 20.8126 9.68356 20.8126C10.0209 20.8126 10.2943 20.5391 10.2943 20.2018C10.2943 19.8645 10.0209 19.591 9.68356 19.591Z" fill="#5E6278"/>
<path d="M20.1796 10.265C21.0527 9.39184 21.0527 7.97105 20.1796 7.09789L20.14 7.05827C19.717 6.63525 19.1546 6.40234 18.5565 6.40234C17.9583 6.40234 17.3959 6.63529 16.973 7.05827L16.6455 7.38581L19.8522 10.5925L20.1796 10.265Z" fill="#5E6278"/>
</g>
<defs>
<clipPath id="clip0_618_8072">
<rect width="27" height="27" fill="white" transform="translate(0.5)"/>
</clipPath>
</defs>
</svg>
