<svg width="21" height="21" viewBox="5.5 2 21 21" fill="none" xmlns="http://www.w3.org/2000/svg">
<g filter="url(#filter0_d_1987_7672)">
<rect x="5.5" y="2" width="21" height="21" rx="6" fill="#5151F9"/>
</g>
<g clip-path="url(#clip0_1987_7672)">
<g clip-path="url(#clip1_1987_7672)">
<g clip-path="url(#clip2_1987_7672)">
<path d="M15.4469 10.7197C14.7481 10.7197 14.1797 11.3011 14.1797 12.0157C14.1797 12.6078 14.57 13.108 15.1013 13.2623V17.2938C15.1013 17.489 15.256 17.6472 15.4469 17.6472C15.6377 17.6472 15.7924 17.489 15.7924 17.2938V13.2623C16.3237 13.108 16.714 12.6078 16.714 12.0157C16.714 11.3011 16.1456 10.7197 15.4469 10.7197Z" fill="white"/>
<path d="M13.848 10.126C13.7131 9.98795 13.4943 9.98795 13.3593 10.126C12.2879 11.2217 12.2877 12.9955 13.3593 14.0914C13.4943 14.2295 13.7131 14.2295 13.848 14.0914C13.983 13.9534 13.983 13.7296 13.848 13.5916C13.0467 12.7721 13.0466 11.4455 13.848 10.6258C13.983 10.4878 13.983 10.264 13.848 10.126Z" fill="white"/>
<path d="M17.5343 10.126C17.3994 9.98796 17.1805 9.98796 17.0456 10.126C16.9106 10.264 16.9106 10.4878 17.0456 10.6258C17.845 11.4435 17.845 12.7739 17.0456 13.5916C16.9106 13.7296 16.9106 13.9534 17.0456 14.0914C17.1805 14.2294 17.3993 14.2294 17.5343 14.0914C18.6033 12.9982 18.6033 11.2192 17.5343 10.126Z" fill="white"/>
<path d="M12.8052 9.5594C12.9401 9.42139 12.9401 9.19759 12.8052 9.05956C12.6702 8.92155 12.4514 8.92155 12.3164 9.05956C10.6725 10.7408 10.6725 13.4764 12.3164 15.1577C12.4513 15.2957 12.6702 15.2958 12.8052 15.1577C12.9401 15.0197 12.9401 14.7959 12.8052 14.6578C11.4308 13.2522 11.4308 10.9651 12.8052 9.5594Z" fill="white"/>
<path d="M18.5768 9.05956C18.4418 8.92155 18.223 8.92155 18.088 9.05956C17.9531 9.19757 17.9531 9.42137 18.088 9.5594C19.4624 10.9651 19.4624 13.2522 18.088 14.6578C17.9531 14.7959 17.9531 15.0197 18.088 15.1577C18.223 15.2957 18.4418 15.2957 18.5768 15.1577C20.2207 13.4764 20.2207 10.7408 18.5768 9.05956Z" fill="white"/>
<path d="M11.7626 8.493C11.8976 8.35499 11.8976 8.13119 11.7626 7.99315C11.6277 7.85515 11.4089 7.85515 11.2739 7.99315C8.97131 10.348 8.97631 13.8742 11.2739 16.224C11.4088 16.362 11.6276 16.362 11.7626 16.224C11.8976 16.086 11.8976 15.8622 11.7626 15.7241C9.74725 13.6629 9.74725 10.5542 11.7626 8.493Z" fill="white"/>
<path d="M19.6197 7.99315C19.4848 7.85515 19.266 7.85515 19.131 7.99315C18.996 8.13116 18.996 8.35496 19.131 8.493C21.1464 10.5542 21.1464 13.6629 19.131 15.7241C18.996 15.8621 18.996 16.0859 19.131 16.224C19.266 16.362 19.4848 16.362 19.6197 16.224C21.9223 13.8691 21.9173 10.343 19.6197 7.99315Z" fill="white"/>
</g>
</g>
</g>
<defs>
<filter id="filter0_d_1987_7672" x="-4.76837e-07" y="-2.38419e-07" width="32" height="32" filterUnits="userSpaceOnUse" color-interpolation-filters="sRGB">
<feFlood flood-opacity="0" result="BackgroundImageFix"/>
<feColorMatrix in="SourceAlpha" type="matrix" values="0 0 0 0 0 0 0 0 0 0 0 0 0 0 0 0 0 0 127 0" result="hardAlpha"/>
<feOffset dy="3.5"/>
<feGaussianBlur stdDeviation="2.75"/>
<feColorMatrix type="matrix" values="0 0 0 0 0 0 0 0 0 0 0 0 0 0 0 0 0 0 0.02 0"/>
<feBlend mode="normal" in2="BackgroundImageFix" result="effect1_dropShadow_1987_7672"/>
<feBlend mode="normal" in="SourceGraphic" in2="effect1_dropShadow_1987_7672" result="shape"/>
</filter>
<clipPath id="clip0_1987_7672">
<rect width="12.6" height="12.6" fill="white" transform="translate(9.28076 6.2002)"/>
</clipPath>
<clipPath id="clip1_1987_7672">
<rect width="12.0638" height="11.7957" fill="white" transform="translate(9.54883 6.73633)"/>
</clipPath>
<clipPath id="clip2_1987_7672">
<rect width="11.7957" height="12.0638" fill="white" transform="translate(9.54883 6.73633)"/>
</clipPath>
</defs>
</svg>
