<svg width="11" height="13" viewBox="0 0 11 13" fill="none" xmlns="http://www.w3.org/2000/svg">
<path opacity="0.3" d="M7.02827 9.30506C6.76792 9.04471 6.76792 8.6226 7.02827 8.36225C7.28862 8.1019 7.71073 8.1019 7.97108 8.36225L10.6377 11.0289C10.8981 11.2893 10.8981 11.7114 10.6377 11.9717C10.3774 12.2321 9.95529 12.2321 9.69494 11.9717L7.02827 9.30506Z" fill="white"/>
<path fill-rule="evenodd" clip-rule="evenodd" d="M0.166504 5.50016C0.166504 8.07749 2.25584 10.1668 4.83317 10.1668C7.4105 10.1668 9.49984 8.07749 9.49984 5.50016C9.49984 2.92283 7.4105 0.833496 4.83317 0.833496C2.25584 0.833496 0.166504 2.92283 0.166504 5.50016ZM8.16648 5.50017C8.16648 7.34111 6.6741 8.8335 4.83315 8.8335C2.9922 8.8335 1.49981 7.34111 1.49981 5.50017C1.49981 3.65922 2.9922 2.16683 4.83315 2.16683C6.6741 2.16683 8.16648 3.65922 8.16648 5.50017Z" fill="white"/>
</svg>
