<svg width="21" height="21" viewBox="5.5 2 21 21" fill="none" xmlns="http://www.w3.org/2000/svg">
<g filter="url(#filter0_d_4269_18092)">
<rect x="6" y="2" width="20.4" height="20.4" rx="5" fill="#5151f9"/>
<g clip-path="url(#clip0_4269_18092)">
<g clip-path="url(#clip1_4269_18092)">
<g clip-path="url(#clip2_4269_18092)">
<path d="M 15.8 7.1 C 14.4 7.2 13.2 7.7 12.2 8.6 L 13.7 10.1 C 14.3 9.7 15 9.4 15.8 9.3 V 7.1 Z" fill="white"/>
<path d="M 13.3 10.6 L 11.7 9.1 C 10.9 10.1 10.3 11.3 10.3 12.6 H 12.4 C 12.5 11.9 12.8 11.2 13.3 10.6 Z" fill="white"/>
<path d="M 19.8 12.6 H 22 C 21.9 11.3 21.4 10.1 20.5 9.1 L 19 10.6 C 19.4 11.2 19.7 11.9 19.8 12.6 Z" fill="white"/>
<path d="M 19.8 13.3 C 19.7 13.9 19.6 14.3 19.4 14.6 C 19.6 14.9 19.7 15.1 19.8 15.3 C 20.1 15.7 20 16.2 19.7 16.6 C 19.6 16.7 19.5 16.7 19.4 16.8 L 19.8 17.1 C 19.8 17.2 19.9 17.2 20 17.2 C 20.1 17.2 20.2 17.2 20.2 17.1 C 21.3 16.1 21.9 14.8 22 13.3 H 19.8 Z" fill="white"/>
<path d="M 12.4 13.3 H 10.3 C 10.3 14.8 10.9 16.1 12 17.1 C 12 17.2 12.1 17.2 12.2 17.2 C 12.3 17.2 12.4 17.2 12.5 17.1 L 13.5 16.1 C 13.6 16 13.6 15.7 13.5 15.6 C 13.2 15.3 12.5 14.6 12.4 13.3 Z" fill="white"/>
<path d="M 20 8.6 C 19 7.7 17.8 7.2 16.4 7.1 V 9.3 C 17.2 9.4 17.9 9.7 18.5 10.1 L 20 8.6 Z" fill="white"/>
<path d="M 16.9 12.2 C 16.4 11.8 15.8 11.8 15.3 12.2 C 14.9 12.6 14.9 13.3 15.3 13.8 C 15.9 14.3 18.5 15.9 18.8 16.1 C 18.9 16.2 19.1 16.2 19.2 16.1 C 19.3 16 19.3 15.8 19.3 15.7 C 19.1 15.4 17.4 12.8 16.9 12.2 Z" fill="white"/>
</g>
</g>
</g>
</g>
<defs>
<filter id="filter0_d_4269_18092" x="0.5" y="0.00585914" width="31.3569" height="31.3569" filterUnits="userSpaceOnUse" color-interpolation-filters="sRGB">
<feFlood flood-opacity="0" result="BackgroundImageFix"/>
<feColorMatrix in="SourceAlpha" type="matrix" values="0 0 0 0 0 0 0 0 0 0 0 0 0 0 0 0 0 0 127 0" result="hardAlpha"/>
<feOffset dy="3.5"/>
<feGaussianBlur stdDeviation="2.75"/>
<feColorMatrix type="matrix" values="0 0 0 0 0 0 0 0 0 0 0 0 0 0 0 0 0 0 0.02 0"/>
<feBlend mode="normal" in2="BackgroundImageFix" result="effect1_dropShadow_4269_18092"/>
<feBlend mode="normal" in="SourceGraphic" in2="effect1_dropShadow_4269_18092" result="shape"/>
</filter>
<clipPath id="clip0_4269_18092">
<rect x="10" y="6.1" width="12.2" height="12.2" rx="5" fill="white"/>
</clipPath>
<clipPath id="clip1_4269_18092">
<rect width="11.7" height="11.4" fill="white" transform="translate(10.3,6.6)"/>
</clipPath>
<clipPath id="clip2_4269_18092">
<rect width="11.7" height="11.7" fill="white" transform="translate(10.3,6.3)"/>
</clipPath>
</defs>
</svg>
