<svg width="44" height="44" viewBox="0 0 44 44" fill="none" xmlns="http://www.w3.org/2000/svg">
<rect width="44" height="44" rx="6" fill="#EEE5FF"/>
<rect opacity="0.3" x="13.1665" y="14.167" width="8.33333" height="16.6667" fill="#8950FC"/>
<path fill-rule="evenodd" clip-rule="evenodd" d="M27.7498 16.2503H24.6248C24.6248 16.2503 23.5832 16.0716 23.5832 15.2087C23.5832 14.3457 24.6248 14.167 24.6248 14.167H29.8332V19.3753C29.8332 19.3753 29.8332 20.417 28.7915 20.417C27.7498 20.417 27.7498 19.3753 27.7498 19.3753V16.2503ZM27.7498 25.6253L27.7498 28.7503H24.6248C24.6248 28.7503 23.5832 28.7503 23.5832 29.792C23.5832 30.8337 24.6248 30.8337 24.6248 30.8337H29.8332V25.6253C29.8332 25.6253 29.6544 24.5837 28.7915 24.5837C27.9286 24.5837 27.7498 25.6253 27.7498 25.6253ZM18.3748 28.7503H15.2498V25.6253C15.2498 25.6253 15.2498 24.5837 14.2082 24.5837C13.1665 24.5837 13.1665 25.6253 13.1665 25.6253V30.8337H18.3748C18.3748 30.8337 19.4165 30.6549 19.4165 29.792C19.4165 28.929 18.3748 28.7503 18.3748 28.7503ZM15.2498 19.3753V16.2503H18.3748C18.3748 16.2503 19.4165 16.2503 19.4165 15.2087C19.4165 14.167 18.3748 14.167 18.3748 14.167H13.1665V19.3753C13.1665 19.3753 13.3452 20.417 14.2082 20.417C15.0711 20.417 15.2498 19.3753 15.2498 19.3753Z" fill="#8950FC"/>
</svg>
