<svg width="30" height="31" viewBox="0 0 30 31" fill="none" xmlns="http://www.w3.org/2000/svg">
<path d="M15.0005 0C9.12701 0 4.34863 4.77838 4.34863 10.6518C4.34863 17.9408 13.881 28.6416 14.2868 29.0936C14.668 29.5182 15.3336 29.5174 15.7141 29.0936C16.1199 28.6416 25.6523 17.9408 25.6523 10.6518C25.6522 4.77838 20.8738 0 15.0005 0Z" fill="#FF0000"/>
<ellipse cx="14.9998" cy="30.0003" rx="2.94118" ry="0.588235" fill="#B40000"/>
<path d="M15.3452 16.8235C14.7185 16.8235 14.1569 16.7213 13.6604 16.5167C13.1639 16.3122 12.7651 16.0095 12.4639 15.6086C12.1709 15.2077 12.0163 14.725 12 14.1605H14.222C14.2545 14.4796 14.3644 14.725 14.5516 14.8968C14.7388 15.0605 14.983 15.1423 15.2841 15.1423C15.5934 15.1423 15.8376 15.0727 16.0166 14.9337C16.1957 14.7864 16.2852 14.5859 16.2852 14.3323C16.2852 14.1196 16.212 13.9437 16.0655 13.8046C15.9271 13.6655 15.7521 13.551 15.5405 13.461C15.337 13.371 15.044 13.2688 14.6615 13.1542C14.108 12.9824 13.6563 12.8106 13.3063 12.6388C12.9563 12.467 12.6552 12.2134 12.4029 11.8779C12.1506 11.5425 12.0244 11.1048 12.0244 10.5648C12.0244 9.76307 12.3134 9.1372 12.8912 8.68723C13.4691 8.22908 14.222 8 15.1498 8C16.094 8 16.855 8.22908 17.4329 8.68723C18.0107 9.1372 18.32 9.76716 18.3607 10.5771H16.1021C16.0858 10.2989 15.9841 10.0821 15.7969 9.9267C15.6097 9.76307 15.3696 9.68126 15.0766 9.68126C14.8243 9.68126 14.6208 9.7508 14.4661 9.88988C14.3115 10.0208 14.2342 10.213 14.2342 10.4667C14.2342 10.7448 14.3644 10.9616 14.6249 11.1171C14.8853 11.2725 15.2923 11.4402 15.8457 11.6202C16.3992 11.8084 16.8468 11.9884 17.1887 12.1602C17.5387 12.332 17.8398 12.5815 18.0921 12.9088C18.3444 13.236 18.4706 13.6574 18.4706 14.1728C18.4706 14.6637 18.3444 15.1095 18.0921 15.5104C17.8479 15.9113 17.4898 16.2304 17.0178 16.4676C16.5457 16.7049 15.9882 16.8235 15.3452 16.8235Z" fill="#F1F1F4"/>
</svg>
