<svg width="17" height="16" viewBox="0 0 17 16" fill="none" xmlns="http://www.w3.org/2000/svg">
<g clip-path="url(#clip0_1477_20717)">
<path d="M16.6483 7.68906C16.5054 7.49353 13.0996 2.90137 8.74992 2.90137C4.40019 2.90137 0.994313 7.49353 0.851531 7.68888C0.716156 7.87438 0.716156 8.12597 0.851531 8.31147C0.994313 8.507 4.40019 13.0992 8.74992 13.0992C13.0996 13.0992 16.5054 8.50697 16.6483 8.31163C16.7839 8.12616 16.7839 7.87438 16.6483 7.68906ZM8.74992 12.0442C5.54588 12.0442 2.77085 8.99632 1.94938 7.99991C2.76979 7.00263 5.53901 3.95631 8.74992 3.95631C11.9538 3.95631 14.7287 7.00369 15.5505 8.00063C14.7301 8.99788 11.9608 12.0442 8.74992 12.0442Z" fill="#5271FF"/>
<path d="M8.74981 4.83496C7.00474 4.83496 5.58496 6.25474 5.58496 7.99981C5.58496 9.74488 7.00474 11.1647 8.74981 11.1647C10.4949 11.1647 11.9147 9.74488 11.9147 7.99981C11.9147 6.25474 10.4949 4.83496 8.74981 4.83496ZM8.74981 10.1097C7.58637 10.1097 6.63993 9.16322 6.63993 7.99981C6.63993 6.8364 7.5864 5.88993 8.74981 5.88993C9.91322 5.88993 10.8597 6.8364 10.8597 7.99981C10.8597 9.16322 9.91325 10.1097 8.74981 10.1097Z" fill="#5271FF"/>
</g>
<defs>
<clipPath id="clip0_1477_20717">
<rect width="16" height="16" fill="white" transform="translate(0.75)"/>
</clipPath>
</defs>
</svg>
