<svg width="31" height="30" viewBox="0 0 31 30" fill="none" xmlns="http://www.w3.org/2000/svg">
<circle opacity="0.1" cx="15.1748" cy="15" r="15" fill="#5271FF"/>
<g clip-path="url(#clip0_1477_22000)">
<path d="M22.6171 15.1891C22.4741 14.9935 19.0684 10.4014 14.7187 10.4014C10.3689 10.4014 6.96306 14.9935 6.82028 15.1889C6.68491 15.3744 6.68491 15.626 6.82028 15.8115C6.96306 16.007 10.3689 20.5992 14.7187 20.5992C19.0684 20.5992 22.4741 16.007 22.6171 15.8116C22.7526 15.6262 22.7526 15.3744 22.6171 15.1891ZM14.7187 19.5442C11.5146 19.5442 8.7396 16.4963 7.91813 15.4999C8.73854 14.5026 11.5078 11.4563 14.7187 11.4563C17.9226 11.4563 20.6974 14.5037 21.5192 15.5006C20.6988 16.4979 17.9296 19.5442 14.7187 19.5442Z" fill="#5271FF"/>
<path d="M14.7186 12.335C12.9735 12.335 11.5537 13.7547 11.5537 15.4998C11.5537 17.2449 12.9735 18.6647 14.7186 18.6647C16.4636 18.6647 17.8834 17.2449 17.8834 15.4998C17.8834 13.7547 16.4636 12.335 14.7186 12.335ZM14.7186 17.6097C13.5551 17.6097 12.6087 16.6632 12.6087 15.4998C12.6087 14.3364 13.5552 13.3899 14.7186 13.3899C15.882 13.3899 16.8284 14.3364 16.8284 15.4998C16.8284 16.6632 15.882 17.6097 14.7186 17.6097Z" fill="#5271FF"/>
</g>
<defs>
<clipPath id="clip0_1477_22000">
<rect width="16" height="16" fill="white" transform="translate(6.71875 7.5)"/>
</clipPath>
</defs>
</svg>
