<svg width="12" height="14" viewBox="0 0 12 14" fill="none" xmlns="http://www.w3.org/2000/svg">
<path fill-rule="evenodd" clip-rule="evenodd" d="M9.19361 0.243807C8.93223 0.13709 8.56372 0.0570608 8.2025 0.00781378C8.17173 0.00361782 8.15634 0.0015199 8.1313 0.000431272C7.93222 -0.00824073 7.71893 0.114747 7.62907 0.290079C7.61781 0.3121 7.60971 0.332356 7.59358 0.372868C7.57561 0.417845 7.56666 0.440336 7.55674 0.460179C7.47353 0.626416 7.30806 0.737551 7.12067 0.75304C7.09831 0.75489 7.07376 0.75489 7.02475 0.75489H5.27287C5.22386 0.75489 5.19931 0.75489 5.17695 0.75304C4.98956 0.737551 4.8241 0.626416 4.74088 0.460179C4.73096 0.440336 4.72201 0.417845 4.70405 0.372868C4.68791 0.332356 4.67981 0.3121 4.66855 0.290079C4.57869 0.114747 4.3654 -0.00824073 4.16632 0.000431272C4.14128 0.0015199 4.1259 0.00361782 4.09512 0.00781378C3.7339 0.0570608 3.36539 0.13709 3.10401 0.243807C2.18437 0.619256 1.45373 1.3394 1.07278 2.24579C0.918793 2.61227 0.85145 3.00687 0.818958 3.47593C0.787104 3.93617 0.787109 4.50511 0.787109 5.22735V8.43705C0.787109 9.15924 0.787104 9.72823 0.818958 10.1884C0.85145 10.6575 0.918793 11.0521 1.07278 11.4186C1.45373 12.325 2.18437 13.0451 3.10401 13.4206C3.47584 13.5723 3.87615 13.6387 4.35211 13.6707C4.81906 13.7021 5.3963 13.7021 6.12903 13.7021H6.1686C6.90133 13.7021 7.47857 13.7021 7.94552 13.6707C8.42148 13.6387 8.82178 13.5723 9.19361 13.4206C10.1133 13.0451 10.8439 12.325 11.2248 11.4186C11.3788 11.0521 11.4462 10.6575 11.4787 10.1884C11.5105 9.72823 11.5105 9.15924 11.5105 8.43705V5.22735C11.5105 4.50511 11.5105 3.93617 11.4787 3.47593C11.4462 3.00687 11.3788 2.61227 11.2248 2.24579C10.8439 1.3394 10.1133 0.619256 9.19361 0.243807ZM4.00413 11.0598C4.00413 10.768 4.24417 10.5314 4.5403 10.5314H7.75732C8.05345 10.5314 8.29349 10.768 8.29349 11.0598C8.29349 11.3517 8.05345 11.5883 7.75732 11.5883H4.5403C4.24417 11.5883 4.00413 11.3517 4.00413 11.0598Z" fill="white"/>
</svg>
