<svg width="428" height="293" viewBox="0 0 428 293" fill="none" xmlns="http://www.w3.org/2000/svg">
<g clip-path="url(#clip0_629_18651)">
<path d="M439.002 221.336C439.002 260.913 406.241 293.002 365.836 293.002C325.427 293.002 292.67 260.913 292.67 221.336C292.67 181.756 325.427 149.671 365.836 149.671C406.241 149.671 439.002 181.756 439.002 221.336Z" fill="#3B3C42"/>
<path d="M347.545 51.1255C347.545 85.7608 318.883 113.835 283.523 113.835C248.163 113.835 219.501 85.7608 219.501 51.1255C219.501 16.4942 248.163 -11.584 283.523 -11.584C318.883 -11.584 347.545 16.4942 347.545 51.1255Z" fill="#3B3C42"/>
<path d="M219.501 185.498C219.501 244.87 170.362 293.001 109.748 293.001C49.1385 293.001 0 244.87 0 185.498C0 126.127 49.1385 78 109.748 78C170.362 78 219.501 126.127 219.501 185.498Z" fill="#3B3C42"/>
<path d="M182.922 -47.4139C182.922 2.06221 141.973 42.1721 91.4611 42.1721C40.9494 42.1721 0 2.06221 0 -47.4139C0 -96.8901 40.9494 -137 91.4611 -137C141.973 -137 182.922 -96.8901 182.922 -47.4139Z" fill="#3B3C42"/>
<path d="M420.706 95.9123C420.706 105.808 412.517 113.829 402.414 113.829C392.312 113.829 384.123 105.808 384.123 95.9123C384.123 86.0212 392.312 78 402.414 78C412.517 78 420.706 86.0212 420.706 95.9123Z" fill="#3B3C42"/>
</g>
<defs>
<clipPath id="clip0_629_18651">
<rect width="439" height="430" fill="white" transform="translate(0 -137)"/>
</clipPath>
</defs>
</svg>
