<svg width="24" height="24" viewBox="0 0 24 24" fill="none" xmlns="http://www.w3.org/2000/svg">
<path d="M11.0581 15.07C11.6078 15.5132 12.3922 15.5129 12.9416 15.0694L18.4727 10.6045C19.2137 10.0095 19.2149 8.8819 18.4752 8.28533L12.9417 3.82285C12.3922 3.37968 11.608 3.37968 11.0585 3.82285L5.51967 8.28963C4.78182 8.88467 4.78134 10.0088 5.51868 10.6045L11.0581 15.07Z" fill="#5271FF"/>
<path opacity="0.3" fill-rule="evenodd" clip-rule="evenodd" d="M12.6982 17.5447C12.1417 18.0092 11.3327 18.0093 10.7761 17.5449L5.92444 13.497C5.56169 13.1944 5.01896 13.2597 4.73846 13.6399C4.47707 13.9941 4.54176 14.4915 4.88508 14.767L10.8059 19.5195C11.3543 19.9598 12.135 19.9598 12.6836 19.5197L18.6016 14.7712C18.9479 14.4934 19.0129 13.9917 18.749 13.6348C18.4662 13.2522 17.9196 13.1867 17.5544 13.4915L12.6982 17.5447Z" fill="#5271FF"/>
</svg>
