<svg width="77" height="40" viewBox="0 0 77 40" fill="none" xmlns="http://www.w3.org/2000/svg">
<path d="M18.4299 8.36933V10.3419C18.4299 10.9828 17.9104 11.5021 17.2695 11.5021H4.81353C4.52614 11.5021 4.29313 11.7351 4.29313 12.0225V17.1666C4.29313 17.8064 3.77457 18.3249 3.13471 18.3249H0.639865C0.286029 18.3249 0 18.0388 0 17.6869V8.36933C0 7.72842 0.51944 7.20898 1.16034 7.20898H17.2695C17.9104 7.20898 18.4299 7.72842 18.4299 8.36933Z" fill="white"/>
<path d="M21.9857 0.638825V3.65415C21.9857 4.0071 21.6997 4.29297 21.3468 4.29297H0.639313C0.286596 4.29297 0.000488281 4.0071 0.000488281 3.65415V0.638825C0.000488281 0.286108 0.286596 0 0.639313 0H21.3468C21.6997 0 21.9857 0.286108 21.9857 0.638825Z" fill="white"/>
<path d="M76.961 0.638825V3.65415C76.961 4.0071 76.6747 4.29297 76.3221 4.29297H55.6143C55.2617 4.29297 54.9756 4.0071 54.9756 3.65415V0.638825C54.9756 0.286108 55.2617 0 55.6143 0H76.3221C76.6747 0 76.961 0.286108 76.961 0.638825Z" fill="white"/>
<path d="M76.9611 14.9588V17.974C76.9611 18.326 76.6748 18.612 76.3206 18.612H55.6136C55.2617 18.612 54.9756 18.326 54.9756 17.974V7.79728C54.9756 7.44529 55.2617 7.15918 55.6136 7.15918H72.7166C73.0709 7.15918 73.3564 7.44529 73.3564 7.79728V10.8144C73.3564 11.1663 73.0709 11.4524 72.7166 11.4524H59.2688V14.3189H76.3206C76.6748 14.3189 76.9611 14.605 76.9611 14.9588Z" fill="white"/>
<path d="M48.4387 14.9593V17.9745C48.4387 18.3268 48.153 18.6125 47.8007 18.6125H34.5559C31.2941 18.6125 28.6499 15.9683 28.6499 12.7065V0.638025C28.6499 0.285709 28.9356 0 29.2879 0H32.3032C32.6555 0 32.9412 0.285709 32.9412 0.638025V11.7286C32.9412 13.1594 34.1011 14.3194 35.532 14.3194H47.8007C48.1526 14.3194 48.4387 14.6055 48.4387 14.9593Z" fill="white"/>
<path d="M76.1623 39.3176H74.6732C74.3748 39.3176 74.0985 39.158 73.949 38.8996L73.3335 37.8325L71.6238 34.8714L71.4837 34.628C71.2372 34.2011 70.7816 33.938 70.2886 33.938H67.5381C67.045 33.938 66.5895 34.2011 66.3435 34.6279L64.4931 37.8325L63.876 38.9007C63.7271 39.1587 63.4513 39.3176 63.1535 39.3176H61.6632C61.0207 39.3176 60.6181 38.6218 60.9385 38.0649L61.0737 37.8325L62.7834 34.8714L63.3222 33.938L64.1026 32.5866L63.1744 30.9782L62.6356 30.0448L60.9259 27.0837L60.7918 26.8514C60.4703 26.2944 60.8724 25.5986 61.5165 25.5986H63.0057C63.304 25.5986 63.5804 25.7583 63.7298 26.0166L64.3453 27.0837L66.1951 30.2884C66.4417 30.7152 66.8972 30.9782 67.3903 30.9782H70.1408C70.6338 30.9782 71.0888 30.7152 71.3354 30.2884L73.1857 27.0837L73.8029 26.0156C73.9518 25.7575 74.2276 25.5986 74.5254 25.5986H76.0156C76.6581 25.5986 77.0608 26.2944 76.7398 26.8514L76.6052 27.0837L74.8955 30.0448L74.3566 30.9782L73.5762 32.3296L74.5044 33.938L75.0433 34.8714L76.753 37.8325L76.8865 38.0649C77.2086 38.6218 76.806 39.3176 76.1623 39.3176Z" fill="#5271FF"/>
<path d="M56.5153 38.9105H54.6037C54.3677 38.9105 54.1509 38.7785 54.0434 38.5686L49.0659 30.4912C48.8155 30.0044 48.1167 30.0044 47.8663 30.4912L42.8595 38.5686C42.7514 38.7785 42.5352 38.9105 42.2992 38.9105H40.3876C39.9155 38.9105 39.611 38.4111 39.8267 37.9915L46.8007 26.6164C47.1482 25.9388 47.8078 25.5986 48.4663 25.5986C49.1243 25.5986 49.7823 25.9375 50.1303 26.6138L50.1314 26.6164L57.0757 37.9915C57.2919 38.4111 56.9869 38.9105 56.5153 38.9105Z" fill="#5271FF"/>
<path d="M22.7536 38.8656H20.6738C20.4306 38.8656 20.2332 38.6684 20.2332 38.425V31.5041C20.2332 31.2606 20.4306 31.0635 20.6738 31.0635H22.7536C22.9968 31.0635 23.1943 31.2606 23.1943 31.5041V38.425C23.1943 38.6684 22.9968 38.8656 22.7536 38.8656Z" fill="#5271FF"/>
<path d="M15.8794 26.5543V28.6197C15.8794 28.8676 15.6797 29.0675 15.4315 29.0675H9.53794V38.4195C9.53794 38.6662 9.33828 38.8661 9.0901 38.8661H7.02463C6.7781 38.8661 6.5768 38.6662 6.5768 38.4195V29.0675H0.683189C0.436657 29.0675 0.235352 28.8676 0.235352 28.6197V26.5543C0.235352 26.3064 0.436657 26.1064 0.683189 26.1064H15.4315C15.6797 26.1064 15.8794 26.3064 15.8794 26.5543Z" fill="#5271FF"/>
<path d="M35.3204 39.0102H33.2825C33.0514 39.0102 32.8413 38.8778 32.7409 38.6701L31.0185 35.0949C30.6859 34.4056 29.9877 33.9668 29.2216 33.9668H20.6735C20.4303 33.9668 20.2334 33.7695 20.2334 33.5267V31.4458C20.2334 31.203 20.4303 31.0057 20.6735 31.0057H31.3588C31.8932 31.0057 32.3284 30.5722 32.3284 30.036C32.3284 29.5011 31.8932 29.0675 31.3588 29.0675H20.6735C20.4303 29.0675 20.2334 28.8703 20.2334 28.6262V26.5465C20.2334 26.3038 20.4303 26.1064 20.6735 26.1064H31.8143C33.4276 26.1064 34.813 27.0931 35.3971 28.495C35.589 28.9546 35.6954 29.4596 35.6954 29.988C35.6954 31.4523 34.883 32.7284 33.6846 33.3891L35.8681 38.1586C36.0501 38.5571 35.7594 39.0102 35.3204 39.0102Z" fill="#5271FF"/>
</svg>
