<svg width="24" height="24" viewBox="0 0 24 24" fill="none" xmlns="http://www.w3.org/2000/svg">
<g clip-path="url(#clip0_948_26319)">
<path fill-rule="evenodd" clip-rule="evenodd" d="M17.4749 0.417955C17.0268 0.235012 16.3951 0.0978185 15.7758 0.0133951C15.7231 0.00620198 15.6967 0.00260554 15.6538 0.000739324C15.3125 -0.014127 14.9468 0.19671 14.7928 0.497279C14.7735 0.535029 14.7596 0.569753 14.7319 0.639202C14.7012 0.716305 14.6858 0.754861 14.6688 0.788879C14.5262 1.07386 14.2425 1.26437 13.9213 1.29093C13.8829 1.2941 13.8408 1.2941 13.7568 1.2941H10.7536C10.6696 1.2941 10.6275 1.2941 10.5892 1.29093C10.2679 1.26437 9.98427 1.07386 9.84162 0.788879C9.82461 0.754861 9.80926 0.716305 9.77847 0.639202C9.75081 0.569753 9.73693 0.535029 9.71762 0.497279C9.56357 0.19671 9.19794 -0.014127 8.85666 0.000739324C8.81373 0.00260554 8.78735 0.00620198 8.73459 0.0133951C8.11536 0.0978185 7.48363 0.235012 7.03555 0.417955C5.45902 1.06158 4.2065 2.29611 3.55344 3.84992C3.28946 4.47818 3.17402 5.15464 3.11832 5.95874C3.06371 6.74771 3.06372 7.72304 3.06372 8.96117V14.4635C3.06372 15.7015 3.06371 16.677 3.11832 17.4658C3.17402 18.27 3.28946 18.9464 3.55344 19.5747C4.2065 21.1285 5.45902 22.363 7.03555 23.0067C7.67298 23.2669 8.35921 23.3806 9.17514 23.4355C9.97563 23.4894 10.9652 23.4894 12.2213 23.4894H12.2891C13.5452 23.4894 14.5348 23.4894 15.3353 23.4355C16.1512 23.3806 16.8374 23.2669 17.4749 23.0067C19.0514 22.363 20.3039 21.1285 20.957 19.5747C21.221 18.9464 21.3364 18.27 21.3921 17.4658C21.4467 16.677 21.4467 15.7015 21.4467 14.4635V8.96117C21.4467 7.72304 21.4467 6.74771 21.3921 5.95874C21.3364 5.15464 21.221 4.47818 20.957 3.84992C20.3039 2.29611 19.0514 1.06158 17.4749 0.417955ZM8.57861 18.9597C8.57861 18.4594 8.99012 18.0538 9.49776 18.0538H15.0127C15.5203 18.0538 15.9318 18.4594 15.9318 18.9597C15.9318 19.4601 15.5203 19.8656 15.0127 19.8656H9.49776C8.99012 19.8656 8.57861 19.4601 8.57861 18.9597Z" fill="#4A4B68"/>
</g>
<defs>
<clipPath id="clip0_948_26319">
<rect width="24" height="24" fill="white"/>
</clipPath>
</defs>
</svg>
