<svg width="24" height="24" viewBox="0 0 24 24" fill="none" xmlns="http://www.w3.org/2000/svg">
<g clip-path="url(#clip0_1293_400)">
<path fill-rule="evenodd" clip-rule="evenodd" d="M15.5525 6.98646L9.83461 12.4899C9.80787 12.5156 9.82685 12.5595 9.86465 12.5594C11.4604 12.5566 12.3405 12.5556 13.0508 12.7712C13.0662 12.7759 13.082 12.7722 13.0935 12.7612L17.3229 8.69041C17.5378 8.48353 17.8154 8.38917 18.1231 8.42618L19.7497 8.62178C20.0544 8.65841 20.3327 8.56656 20.5499 8.35751L21.6656 7.2836C21.8626 7.09392 21.958 6.85923 21.9468 6.5912L21.8584 4.47378C21.8569 4.43826 21.8123 4.42149 21.7862 4.4466C21.0969 5.11003 20.4076 5.77351 19.7183 6.43694C19.504 6.6432 19.1545 6.64315 18.9402 6.43694L17.8939 5.42987C17.6797 5.22362 17.6797 4.88725 17.8939 4.681C18.5832 4.01756 19.2726 3.35408 19.9619 2.6906C19.988 2.66545 19.9706 2.62251 19.9337 2.62111L17.7337 2.53601C17.4553 2.52521 17.2113 2.61702 17.0143 2.80664L15.8985 3.88061C15.6813 4.08961 15.5859 4.3574 15.6239 4.65064L15.8272 6.21628C15.8655 6.51241 15.7674 6.77962 15.5525 6.98646ZM16.9113 18.0651C16.4464 18.2492 16.0851 18.6662 16.0851 19.3177C16.0851 20.085 16.7312 20.7068 17.5284 20.7068C18.3255 20.7068 18.9716 20.085 18.9716 19.3177C18.9716 18.6525 18.6053 18.2492 18.1309 18.0594L18.1307 18.0598C17.7317 17.9063 17.3127 17.9211 16.9126 18.0646C16.9121 18.0648 16.9117 18.0649 16.9113 18.0651ZM7.99556 18.3354C7.43199 17.793 6.518 17.793 5.95444 18.3354C5.39087 18.8778 5.39087 19.7575 5.95444 20.3C6.51805 20.8424 7.43199 20.8424 7.99556 20.3C8.55912 19.7575 8.55912 18.8778 7.99556 18.3354ZM14.8977 14.7434C15.2879 15.0738 16.3096 15.4419 16.7685 15.5658C18.1206 15.9311 19.6276 16.2165 20.9621 16.5063C21.5667 16.6376 22.0926 17.017 22.1892 17.5996C22.2503 17.9679 22.2099 18.4237 22.1903 18.8513C22.1859 18.9458 22.0995 19.012 21.9981 19.012H19.6236C19.6025 19.012 19.5848 18.9973 19.5818 18.9771C19.4678 18.2236 18.9753 17.7289 18.3663 17.4943L18.3665 17.4939C17.1786 17.0369 15.6822 17.6127 15.4751 18.9771C15.4721 18.9973 15.4544 19.012 15.4333 19.012H9.06516C9.04438 19.012 9.02696 18.9979 9.02345 18.9781C8.9495 18.5618 8.74187 18.1893 8.44452 17.9032C7.30732 16.8086 5.37815 17.3274 4.96825 18.7952C4.96244 18.816 4.94086 18.8289 4.91888 18.8245L2.91671 18.4286C2.72665 18.391 2.53564 18.2676 2.53564 18.0786V15.7483C2.53564 15.424 2.83275 15.2047 3.1628 15.1344L5.13357 14.7146C5.19976 14.7006 5.2618 14.6661 5.30846 14.612C6.555 13.167 6.73264 13.1671 9.22383 13.1685C9.41654 13.1686 9.62237 13.1687 9.84267 13.1683C11.4564 13.1647 12.2701 13.167 12.8871 13.3613C13.4862 13.55 13.9615 13.9506 14.8977 14.7434ZM17.6689 9.23312C17.6626 9.2178 17.6659 9.20132 17.678 9.18951C17.785 9.08431 17.8636 8.99434 18.0464 9.01632L19.6731 9.21192C20.1177 9.26541 20.5464 9.14286 20.8834 8.86938C20.9072 8.85006 20.9435 8.86105 20.9516 8.88996L21.4386 10.6395C21.4434 10.6568 21.4364 10.6744 21.4208 10.6842L19.9951 11.5754C19.9839 11.5823 19.9773 11.5927 19.976 11.6054C19.9018 12.3162 19.7069 13.0041 19.4069 13.6438C19.4014 13.6555 19.4017 13.6677 19.4077 13.6791L20.1806 15.1391C20.189 15.1551 20.186 15.1737 20.1728 15.1864L19.7386 15.6043C19.7281 15.6144 19.7142 15.6183 19.6997 15.6153C18.7676 15.4201 17.8341 15.2203 16.9397 14.9785C16.7375 14.9239 16.4328 14.822 16.1313 14.7012C16.1011 14.6892 16.0959 14.6505 16.1218 14.6313C17.8699 13.3442 18.4543 11.1259 17.6689 9.23312ZM9.80196 7.67909C8.44587 8.98432 8.06896 10.8751 8.67118 12.5058C8.68104 12.5325 8.66076 12.5601 8.63142 12.5602C6.93457 12.5661 6.38012 12.6367 5.61598 13.3622C5.59285 13.3842 5.55379 13.374 5.54538 13.3438L4.9666 11.2647C4.96179 11.2473 4.9688 11.2297 4.98442 11.22L6.41016 10.3288C6.42127 10.3218 6.42788 10.3114 6.42923 10.2987C6.50338 9.5879 6.6983 8.90008 6.99835 8.26036C7.00381 8.2487 7.00351 8.23651 6.9975 8.22508L6.22465 6.76517C6.21619 6.74917 6.21925 6.73057 6.23241 6.71789L8.80341 4.24338C8.81657 4.23071 8.83595 4.22772 8.85252 4.23586L10.3679 4.97905C10.3797 4.98483 10.3924 4.98517 10.4045 4.97992C11.0754 4.68972 11.7915 4.50496 12.5233 4.43349C12.5365 4.43219 12.5473 4.42588 12.5546 4.41513L13.4809 3.0422C13.4911 3.02716 13.5093 3.02037 13.5274 3.02504L15.3451 3.49383C15.3752 3.50159 15.3866 3.53658 15.3665 3.55947C15.0824 3.88384 14.9551 4.29644 15.0106 4.72441L15.2139 6.29016C15.2367 6.46605 15.1432 6.54171 15.0339 6.64469C15.0217 6.65621 15.0045 6.65949 14.9886 6.65337C13.2568 5.98772 11.2042 6.32943 9.80196 7.67909Z" fill="#4A4B68"/>
</g>
<defs>
<clipPath id="clip0_1293_400">
<rect width="21.9574" height="21.9574" fill="white" transform="translate(1.02124 1.02148)"/>
</clipPath>
</defs>
</svg>
