<svg width="24" height="24" viewBox="0 0 24 24" fill="none" xmlns="http://www.w3.org/2000/svg">
<path d="M13.9635 5.70793C14.9551 6.34121 15.6505 7.41284 15.7771 8.65677C16.1815 8.84923 16.6303 8.95991 17.1062 8.95991C18.8435 8.95991 20.2516 7.5257 20.2516 5.75646C20.2516 3.98694 18.8435 2.55273 17.1062 2.55273C15.3855 2.55328 13.9897 3.96186 13.9635 5.70793ZM11.9028 12.2675C13.6401 12.2675 15.0483 10.833 15.0483 9.06378C15.0483 7.29453 13.6399 5.86032 11.9028 5.86032C10.1658 5.86032 8.75687 7.2948 8.75687 9.06405C8.75687 10.8333 10.1658 12.2675 11.9028 12.2675ZM13.2371 12.4859H10.5681C8.34736 12.4859 6.54072 14.3263 6.54072 16.5881V19.9126L6.54902 19.9647L6.77385 20.0364C8.8931 20.7108 10.7343 20.9357 12.2497 20.9357C15.2096 20.9357 16.9253 20.0762 17.031 20.0214L17.2411 19.9131H17.2636V16.5881C17.2644 14.3263 15.4578 12.4859 13.2371 12.4859ZM18.441 9.17855H15.7926C15.7639 10.2578 15.3116 11.2297 14.5962 11.9286C16.5701 12.5265 18.0144 14.3909 18.0144 16.593V17.6175C20.6293 17.5199 22.1362 16.765 22.2355 16.7143L22.4456 16.6058H22.468V13.2803C22.468 11.0187 20.6614 9.17855 18.441 9.17855ZM6.38361 8.96046C6.99894 8.96046 7.57144 8.77753 8.05643 8.46594C8.21059 7.44174 8.74964 6.54676 9.51967 5.9372C9.52288 5.87723 9.5285 5.8178 9.5285 5.75728C9.5285 3.98776 8.12013 2.55355 6.38361 2.55355C4.64603 2.55355 3.23819 3.98776 3.23819 5.75728C3.23819 7.52598 4.64603 8.96046 6.38361 8.96046ZM9.20839 11.9286C8.49644 11.2332 8.04572 10.2665 8.0128 9.19381C7.91457 9.18645 7.81741 9.17855 7.71731 9.17855H5.04857C2.82788 9.17855 1.02124 11.0187 1.02124 13.2803V16.6053L1.02954 16.6565L1.25436 16.7288C2.95448 17.2694 4.47179 17.5185 5.7897 17.597V16.593C5.79023 14.3909 7.23394 12.527 9.20839 11.9286Z" fill="#4A4B68"/>
</svg>
