<svg width="24" height="24" viewBox="0 0 24 24" fill="none" xmlns="http://www.w3.org/2000/svg">
<g clip-path="url(#clip0_948_26289)">
<path d="M12.2554 2.04297C6.90569 2.04297 2.55322 6.39543 2.55322 11.7451C2.55322 17.0948 6.90569 21.4472 12.2554 21.4472C17.605 21.4472 21.9575 17.0948 21.9575 11.7451C21.9575 6.39543 17.605 2.04297 12.2554 2.04297ZM12.2554 19.0217C8.24318 19.0217 4.97875 15.7573 4.97875 11.7451C4.97875 10.2138 5.44302 8.76609 6.32576 7.53081L16.4696 17.6747C15.2344 18.5574 13.7867 19.0217 12.2554 19.0217ZM18.1849 15.9594L8.04106 5.8155C9.27634 4.93276 10.724 4.4685 12.2554 4.4685C16.2675 4.4685 19.5319 7.73293 19.5319 11.7451C19.5319 13.2764 19.0677 14.7241 18.1849 15.9594Z" fill="#4A4B68"/>
</g>
<defs>
<clipPath id="clip0_948_26289">
<rect width="24" height="24" fill="white"/>
</clipPath>
</defs>
</svg>
