<svg width="357" height="318" viewBox="0 0 357 318" fill="none" xmlns="http://www.w3.org/2000/svg">
<path fill-rule="evenodd" clip-rule="evenodd" d="M134.843 34.0528C134.843 33.9476 134.843 33.8423 134.843 33.737C134.843 27.8423 134.843 21.9476 134.843 16.0528C134.843 15.8423 134.843 15.6318 134.843 15.4213C111.817 15.316 88.7731 15.2809 65.71 15.316C77.1945 15.1757 88.7167 15.1055 100.276 15.1055C111.799 15.123 123.32 15.1405 134.843 15.1581C134.899 15.2107 134.955 15.2634 135.011 15.316C135.03 18.4388 135.048 21.5616 135.067 24.6844C135.067 27.8432 134.992 30.9659 134.843 34.0528Z" fill="#5151F9"/>
<path fill-rule="evenodd" clip-rule="evenodd" d="M191.406 15.2107C225.561 15.1931 259.717 15.2107 293.871 15.2633C307.093 15.7851 318.84 19.8904 329.111 27.5791C337.709 34.245 343.338 42.6836 346.002 52.8949C346.537 55.185 346.874 57.5008 347.012 59.8423C347.068 90.0879 347.087 120.334 347.068 150.579C340.409 150.579 333.749 150.579 327.091 150.579C327.11 125.14 327.091 99.7019 327.035 74.2633C326.778 65.1874 323.561 57.1874 317.383 50.2633C308.422 40.8939 297.218 35.5781 283.771 34.316C282.688 34.2252 281.602 34.155 280.516 34.1054C250.812 34.0528 221.11 34.0352 191.406 34.0528C191.406 27.7721 191.406 21.4914 191.406 15.2107Z" fill="black"/>
<path fill-rule="evenodd" clip-rule="evenodd" d="M134.843 15.4207C134.843 15.6312 134.843 15.8417 134.843 16.0522C134.773 16.0406 134.717 16.0055 134.675 15.947C123.307 16.0872 111.916 16.1574 100.501 16.1575C89.1285 16.1224 77.7559 16.0873 66.3834 16.0522C66.3488 15.9672 66.2927 15.897 66.215 15.8417C65.9321 16.138 65.7451 16.103 65.6539 15.7364C65.6165 15.7715 65.579 15.8067 65.5417 15.8417C65.4285 15.6566 65.2602 15.5337 65.0366 15.4733C88.3054 15.4207 111.574 15.4031 134.843 15.4207Z" fill="#5151F9"/>
<path fill-rule="evenodd" clip-rule="evenodd" d="M65.7102 15.3159C88.7734 15.2808 111.818 15.3159 134.843 15.4211C111.574 15.4036 88.3056 15.4211 65.0368 15.4738C65.2604 15.5342 65.4287 15.657 65.5419 15.8422C65.5792 15.8071 65.6167 15.772 65.6541 15.7369C65.7453 16.1035 65.9323 16.1385 66.2152 15.8422C66.2929 15.8975 66.349 15.9677 66.3836 16.0527C77.7561 16.0878 89.1287 16.1229 100.501 16.158C111.916 16.1579 123.307 16.0877 134.675 15.9475C134.717 16.006 134.774 16.041 134.843 16.0527C134.843 21.9475 134.843 27.8422 134.843 33.7369C116.213 33.7545 97.5832 33.7369 78.9532 33.6843C97.5457 33.6317 116.138 33.6141 134.731 33.6317C134.731 28.0177 134.731 22.4036 134.731 16.7896C111.949 16.8071 89.166 16.7896 66.3836 16.7369C89.1286 16.6843 111.874 16.6667 134.619 16.6843C134.619 16.544 134.619 16.4036 134.619 16.2632C111.013 16.2457 87.4078 16.2632 63.8023 16.3159C63.5081 16.4396 63.2275 16.4571 62.9606 16.3685C62.5612 16.6138 62.131 16.7366 61.67 16.7369C61.8385 16.6756 61.9881 16.5879 62.1189 16.4738C62.0954 16.4121 62.0579 16.3595 62.0067 16.3159C61.762 16.2718 61.5189 16.2894 61.2772 16.3685C61.0752 16.1732 60.8507 16.103 60.6038 16.158C60.2586 16.2409 59.9033 16.2936 59.5376 16.3159C59.6289 16.4542 59.7411 16.577 59.8743 16.6843C59.8369 16.7194 59.7995 16.7545 59.7621 16.7896C59.5575 16.6852 59.3891 16.5449 59.257 16.3685C59.2197 16.4036 59.1822 16.4387 59.1448 16.4738C59.1099 16.343 59.166 16.2378 59.3132 16.158C58.6684 16.1191 58.0324 16.1191 57.4053 16.158C60.1305 15.6369 62.8988 15.3563 65.7102 15.3159Z" fill="#5151F9"/>
<path fill-rule="evenodd" clip-rule="evenodd" d="M134.843 33.737C134.843 33.8422 134.843 33.9475 134.843 34.0528C116.213 34.0352 97.5832 34.0528 78.9532 34.1054C64.5898 34.7518 52.7123 40.1028 43.3205 50.158C37.9533 56.329 34.8296 63.3816 33.9494 71.3159C33.8694 71.8315 33.7946 72.3578 33.7249 72.8949C33.5274 73.2318 33.4338 73.6177 33.4444 74.0528C33.3259 73.7057 33.2323 73.3899 33.1638 73.1054C33.0208 73.4072 32.9273 73.723 32.8832 74.0528C32.7897 131.316 32.8084 188.579 32.9393 245.842C33.1922 246.048 33.2296 246.293 33.0516 246.579C32.959 246.673 32.8467 246.708 32.7149 246.684C32.5659 217.777 32.4912 188.864 32.4904 159.948C32.4905 131.253 32.5654 102.568 32.7149 73.8949C32.6594 73.741 32.6221 73.5831 32.6026 73.4212C32.7319 72.6272 32.8816 71.8377 33.0516 71.0528C33.0201 70.9059 32.9453 70.7831 32.8271 70.6844C32.6227 72.2266 32.4544 72.2266 32.3221 70.6844C32.2661 71.1392 32.2473 71.5953 32.266 72.0528C32.384 72.0371 32.4963 72.0546 32.6026 72.1054C32.5028 72.5253 32.3905 72.9464 32.266 73.3686C32.2474 130.852 32.2662 188.342 32.3221 245.842C32.4134 246.426 32.5818 246.988 32.8271 247.526C32.9379 247.871 32.9752 248.221 32.9393 248.579C33.4166 248.572 33.4915 248.414 33.1638 248.105C33.1179 247.746 33.1179 247.378 33.1638 247C33.3834 247.313 33.5704 247.629 33.7249 247.948C33.761 248.111 33.8732 248.18 34.0616 248.158C34.52 253.466 36.1099 258.414 38.8314 263C43.881 271.139 50.97 277.192 60.0987 281.158C66.1672 283.682 72.5268 285.034 79.1776 285.211C79.1776 285.281 79.215 285.316 79.2899 285.316C79.7553 285.402 80.2417 285.455 80.7488 285.474C114.044 285.492 147.338 285.509 180.633 285.526C213.927 285.509 247.221 285.492 280.516 285.474C281.058 285.354 281.619 285.301 282.2 285.316C282.724 285.351 283.247 285.387 283.771 285.421C282.763 285.509 281.753 285.561 280.741 285.579C281.397 285.769 282.071 285.891 282.761 285.948C283.441 285.82 284.114 285.662 284.781 285.474C284.818 285.439 284.856 285.403 284.893 285.369C284.551 285.35 284.214 285.297 283.883 285.211C284.935 285.115 285.982 284.992 287.025 284.842C287.167 284.798 287.241 284.711 287.25 284.579C300.023 282.625 310.497 276.977 318.674 267.632C322.765 262.474 325.421 256.72 326.642 250.369C326.753 249.882 326.792 249.391 326.755 248.895C326.824 248.883 326.88 248.849 326.923 248.79C327.056 247.564 327.113 246.337 327.091 245.105C327.091 245.035 327.091 244.965 327.091 244.895C327.203 232.211 327.24 219.509 327.203 206.79C333.788 206.79 340.371 206.79 346.956 206.79C346.956 224.298 346.956 241.808 346.956 259.316C346.975 260.123 346.956 260.931 346.9 261.737C346.684 262.494 346.553 263.266 346.507 264.053C345.57 268.978 343.83 273.645 341.288 278.053C336.526 285.677 330.11 291.765 322.041 296.316C316.013 299.521 309.579 301.768 302.738 303.053C300.572 303.366 298.402 303.63 296.228 303.842C295.742 303.842 295.255 303.842 294.769 303.842C256.536 303.831 218.304 303.865 180.071 303.948C141.558 303.982 103.064 303.948 64.5879 303.842C103.082 303.86 141.577 303.842 180.071 303.79C180.108 303.755 180.147 303.719 180.184 303.684C180.001 303.633 179.813 303.615 179.622 303.632C179.61 303.566 179.573 303.514 179.51 303.474C141.03 303.491 102.554 303.403 64.0828 303.211C63.2595 303.291 62.4553 303.291 61.6699 303.211C61.1275 303.394 60.5664 303.464 59.9865 303.421C44.93 301.445 32.7158 294.884 23.3438 283.737C18.7637 277.838 15.7709 271.277 14.3655 264.053C14.2684 262.876 14.1375 261.718 13.9727 260.579C13.9727 260.018 13.9727 259.456 13.9727 258.895C14.1223 225.597 14.1971 192.263 14.1971 158.895C14.1971 125.526 14.1223 92.1931 13.9727 58.8949C13.9727 58.7896 13.9727 58.6844 13.9727 58.5791C15.1621 47.7515 19.7821 38.4181 27.8329 30.5791C36.0987 22.8904 45.9561 18.0833 57.4052 16.158C58.0324 16.1192 58.6684 16.1192 59.3131 16.158C59.166 16.2378 59.1099 16.3431 59.1448 16.4738C59.1821 16.4388 59.2196 16.4036 59.257 16.3686C59.3891 16.545 59.5574 16.6853 59.762 16.7896C59.7994 16.7546 59.8369 16.7194 59.8743 16.6844C59.7411 16.5771 59.6288 16.4542 59.5376 16.3159C59.9032 16.2936 60.2585 16.241 60.6037 16.158C60.8507 16.1031 61.0751 16.1733 61.2771 16.3686C61.5189 16.2894 61.762 16.2718 62.0066 16.3159C62.0579 16.3595 62.0954 16.4121 62.1188 16.4738C61.9881 16.5879 61.8385 16.6756 61.6699 16.737C62.131 16.7367 62.5611 16.6138 62.9606 16.3686C63.2274 16.4572 63.508 16.4396 63.8023 16.3159C87.4077 16.2633 111.013 16.2457 134.619 16.2633C134.619 16.4036 134.619 16.544 134.619 16.6844C111.874 16.6668 89.1285 16.6844 66.3835 16.737C89.166 16.7896 111.948 16.8072 134.731 16.7896C134.731 22.4036 134.731 28.0177 134.731 33.6317C116.138 33.6141 97.5457 33.6317 78.9532 33.6844C97.5832 33.737 116.213 33.7546 134.843 33.737Z" fill="#5151F9"/>
<path fill-rule="evenodd" clip-rule="evenodd" d="M83.1055 39.2102C100.37 39.1049 117.653 39.0699 134.955 39.1049C134.955 44.5084 134.955 49.912 134.955 55.3155C121.824 55.3155 108.694 55.3155 95.5629 55.3155C108.637 55.2102 121.731 55.1751 134.843 55.2102C134.843 49.947 134.843 44.6839 134.843 39.4207C117.71 39.2103 100.539 39.1402 83.3299 39.2102C83.2551 39.2102 83.1803 39.2102 83.1055 39.2102Z" fill="#5151F9"/>
<path fill-rule="evenodd" clip-rule="evenodd" d="M191.406 39.1052C219.576 39.0876 247.745 39.1052 275.915 39.1579C287.896 39.6151 298.409 43.4748 307.451 50.7368C313.196 55.5663 317.217 61.4434 319.516 68.3684C320.42 71.3626 320.907 74.4152 320.974 77.5263C321.031 101.877 321.05 126.228 321.031 150.579C314.297 150.579 307.563 150.579 300.829 150.579C300.884 128.787 300.828 106.998 300.661 85.2105C299.896 79.2974 297.539 74.0343 293.591 69.421C286.285 61.371 276.989 56.757 265.702 55.5789C264.768 55.4854 263.833 55.4153 262.896 55.3684C239.066 55.3158 215.236 55.2982 191.406 55.3158C191.406 49.9123 191.406 44.5087 191.406 39.1052Z" fill="black"/>
<path fill-rule="evenodd" clip-rule="evenodd" d="M83.3301 39.2108C100.539 39.1408 117.71 39.2109 134.843 39.4213C117.709 39.4389 100.576 39.4213 83.4423 39.3687C83.3799 39.3284 83.3425 39.2757 83.3301 39.2108Z" fill="#5151F9"/>
<path fill-rule="evenodd" clip-rule="evenodd" d="M83.1054 39.2109C83.1803 39.2109 83.255 39.2109 83.3299 39.2109C83.3423 39.2759 83.3797 39.3285 83.4421 39.3688C100.576 39.4215 117.709 39.439 134.843 39.4215C134.843 44.6846 134.843 49.9478 134.843 55.2109C121.731 55.1759 108.637 55.2109 95.5628 55.3162C95.5254 55.3162 95.488 55.3162 95.4506 55.3162C94.8029 55.2517 94.2044 55.3219 93.6549 55.5267C81.5727 56.5677 71.9024 61.5853 64.6438 70.5794C61.3448 75.0735 59.3434 80.0208 58.6395 85.4215C58.5533 85.5018 58.4972 85.607 58.4712 85.7373C58.4524 109.772 58.4338 133.808 58.4151 157.843C58.4151 181.895 58.4524 205.93 58.5273 229.948C59.3633 238.607 63.1791 245.888 69.9746 251.79C76.1436 256.875 83.3263 259.945 91.5226 261C91.5226 261.106 91.5226 261.211 91.5226 261.316C92.0477 261.298 92.5714 261.316 93.0938 261.369C92.7762 261.647 92.8137 261.735 93.206 261.632C93.3228 261.894 93.4163 261.894 93.4866 261.632C93.5416 261.768 93.5603 261.909 93.5427 262.053C93.6549 262.053 93.7672 262.053 93.8794 262.053C93.8816 261.88 93.8068 261.739 93.6549 261.632C93.9474 261.511 94.2467 261.493 94.5528 261.579C94.3901 261.697 94.203 261.767 93.9916 261.79C94.2785 261.941 94.5777 261.941 94.8894 261.79C94.7622 261.683 94.7995 261.613 95.0017 261.579C151.64 261.597 208.241 261.509 264.804 261.316C265.42 261.229 266.055 261.176 266.712 261.158C266.775 261.118 266.812 261.066 266.824 261C276.993 259.692 285.56 255.552 292.524 248.579C292.665 248.289 292.871 248.044 293.142 247.843C293.196 247.743 293.215 247.637 293.198 247.527C293.33 247.55 293.443 247.515 293.535 247.421C297.256 242.992 299.613 237.975 300.605 232.369C300.789 231.743 300.901 231.076 300.942 230.369C301.035 230.963 301.091 231.558 301.11 232.158C301.236 231.863 301.292 231.547 301.278 231.211C301.292 230.875 301.236 230.559 301.11 230.264C301.054 222.439 301.035 214.614 301.054 206.79C307.675 206.755 314.297 206.79 320.918 206.895C320.337 207.03 320.337 207.099 320.918 207.106C320.918 219.211 320.918 231.316 320.918 243.421C320.953 243.829 320.916 244.215 320.806 244.579C320.669 245.084 320.594 245.61 320.582 246.158C320.182 248.045 319.695 249.905 319.123 251.737C318.877 252.2 318.691 252.691 318.562 253.211C316.842 257.206 314.524 260.855 311.603 264.158C304.017 272.034 294.627 276.964 283.434 278.948C281.687 279.236 279.928 279.429 278.159 279.527C277.527 279.599 276.891 279.652 276.251 279.685C243.966 279.703 211.683 279.719 179.398 279.737C147.113 279.719 114.829 279.703 82.5443 279.685C81.9739 279.661 81.4128 279.609 80.8608 279.527C68.7802 278.643 58.5299 274.151 50.1101 266.053C44.4515 260.245 40.9163 253.438 39.5045 245.632C39.4485 245.072 39.4298 244.51 39.4484 243.948C39.3493 243.464 39.3118 242.972 39.3362 242.474C39.299 186.718 39.3364 130.964 39.4484 75.2109C39.4484 75.1407 39.4484 75.0706 39.4484 75.0004C40.3101 66.4437 43.8828 59.0753 50.1662 52.8951C50.243 52.6995 50.3552 52.524 50.5029 52.3688C58.1269 45.2583 67.2735 40.9951 77.9429 39.5794C79.6552 39.3457 81.3761 39.2228 83.1054 39.2109Z" fill="#5151F9"/>
<path fill-rule="evenodd" clip-rule="evenodd" d="M95.4504 55.3161C94.901 55.521 94.3025 55.5912 93.6548 55.5267C94.2043 55.3218 94.8028 55.2516 95.4504 55.3161Z" fill="#5151F9"/>
<path fill-rule="evenodd" clip-rule="evenodd" d="M13.9725 58.5791C13.9725 58.6844 13.9725 58.7896 13.9725 58.8949C13.8229 125.561 13.8229 192.229 13.9725 258.895C13.9725 259.456 13.9725 260.018 13.9725 260.579C13.8798 260.108 13.8237 259.616 13.8042 259.105C13.7854 225.702 13.7668 192.298 13.748 158.895C13.7668 125.492 13.7854 92.0878 13.8042 58.6844C13.8471 58.6258 13.9033 58.5908 13.9725 58.5791Z" fill="#5151F9"/>
<path fill-rule="evenodd" clip-rule="evenodd" d="M13.9726 58.8945C14.1222 92.1927 14.197 125.526 14.197 158.895C14.197 192.263 14.1222 225.597 13.9726 258.895C13.823 192.228 13.823 125.561 13.9726 58.8945Z" fill="#5151F9"/>
<path fill-rule="evenodd" clip-rule="evenodd" d="M33.7247 72.8951C33.7247 131.246 33.7247 189.597 33.7247 247.948C33.5702 247.629 33.3832 247.313 33.1636 247C33.1177 247.378 33.1177 247.747 33.1636 248.106C33.4913 248.414 33.4164 248.572 32.9391 248.579C32.975 248.221 32.9377 247.871 32.8269 247.527C32.5816 246.988 32.4132 246.427 32.3219 245.842C32.266 188.342 32.2472 130.852 32.2658 73.3688C32.3903 72.9466 32.5026 72.5255 32.6024 72.1056C32.496 72.0548 32.3838 72.0373 32.2658 72.053C32.2471 71.5955 32.2659 71.1394 32.3219 70.6846C32.4542 72.2268 32.6225 72.2268 32.8269 70.6846C32.9451 70.7833 33.0199 70.9061 33.0514 71.053C32.8814 71.8379 32.7317 72.6274 32.6024 73.4214C32.6219 73.5833 32.6592 73.7412 32.7147 73.8951C32.5652 102.569 32.4903 131.253 32.4902 159.948C32.491 188.865 32.5657 217.777 32.7147 246.685C32.8465 246.708 32.9588 246.673 33.0514 246.579C33.2294 246.293 33.192 246.048 32.9391 245.842C32.8082 188.579 32.7895 131.316 32.883 74.053C32.9271 73.7232 33.0206 73.4074 33.1636 73.1056C33.232 73.3901 33.3256 73.7059 33.4442 74.053C33.4336 73.6179 33.5272 73.232 33.7247 72.8951Z" fill="#5151F9"/>
<path fill-rule="evenodd" clip-rule="evenodd" d="M33.9491 71.3154C33.8749 100.771 33.8375 130.227 33.8368 159.684C33.8556 188.613 33.8742 217.544 33.893 246.473C33.9171 247.044 33.9732 247.605 34.0613 248.158C33.8729 248.18 33.7606 248.11 33.7246 247.947C33.7246 189.596 33.7246 131.245 33.7246 72.8944C33.7943 72.3573 33.869 71.831 33.9491 71.3154Z" fill="#5151F9"/>
<path fill-rule="evenodd" clip-rule="evenodd" d="M39.4485 75C39.4485 75.0702 39.4485 75.1403 39.4485 75.2105C39.3598 75.3273 39.3037 75.4676 39.2802 75.6316C39.2614 103.439 39.2428 131.245 39.224 159.053C39.224 186.877 39.2614 214.684 39.3363 242.474C39.3119 242.972 39.3494 243.463 39.4485 243.947C39.3367 243.957 39.2432 243.921 39.1679 243.842C39.1492 215.719 39.1306 187.597 39.1118 159.474C39.1492 131.351 39.1867 103.228 39.224 75.1053C39.3007 75.0671 39.3756 75.032 39.4485 75Z" fill="#5151F9"/>
<path fill-rule="evenodd" clip-rule="evenodd" d="M39.4486 75.2109C39.3366 130.964 39.2992 186.718 39.3363 242.474C39.2615 214.685 39.2241 186.877 39.2241 159.053C39.2429 131.246 39.2615 103.439 39.2802 75.632C39.3038 75.468 39.3599 75.3277 39.4486 75.2109Z" fill="#5151F9"/>
<path fill-rule="evenodd" clip-rule="evenodd" d="M58.6395 85.4209C58.5279 133.596 58.4906 181.771 58.5273 229.947C58.4524 205.929 58.415 181.895 58.415 157.842C58.4338 133.807 58.4524 109.771 58.4712 85.7367C58.4972 85.6065 58.5533 85.5012 58.6395 85.4209Z" fill="#5151F9"/>
<path fill-rule="evenodd" clip-rule="evenodd" d="M75.0249 109.737C78.4289 109.667 81.8519 109.632 85.2938 109.632C88.7551 109.632 92.1781 109.702 95.5628 109.842C95.5254 109.842 95.4879 109.842 95.4506 109.842C88.6609 109.737 81.8525 109.702 75.0249 109.737Z" fill="#5151F9"/>
<path fill-rule="evenodd" clip-rule="evenodd" d="M119.019 110.684C119.05 110.373 119.012 110.075 118.907 109.789C112.098 109.718 105.29 109.718 98.481 109.789C98.375 110.075 98.3377 110.373 98.3688 110.684C98.2208 110.362 98.2208 110.028 98.3688 109.684C105.252 109.613 112.136 109.613 119.019 109.684C119.167 110.028 119.167 110.362 119.019 110.684Z" fill="#5151F9"/>
<path fill-rule="evenodd" clip-rule="evenodd" d="M154.595 109.947C154.558 109.947 154.52 109.947 154.483 109.947C154.471 109.882 154.434 109.829 154.371 109.789C143.409 109.718 132.449 109.718 121.488 109.789C121.382 110.075 121.344 110.373 121.376 110.684C122.144 110.65 122.893 110.685 123.62 110.789C122.835 110.789 122.049 110.789 121.263 110.789C121.231 110.409 121.268 110.041 121.376 109.684C132.411 109.613 143.448 109.613 154.483 109.684C154.567 109.754 154.605 109.842 154.595 109.947Z" fill="#5151F9"/>
<path fill-rule="evenodd" clip-rule="evenodd" d="M179.51 109.737C173.318 109.702 167.146 109.737 160.992 109.842C160.955 109.842 160.917 109.842 160.88 109.842C163.947 109.702 167.051 109.632 170.195 109.632C173.319 109.632 176.424 109.667 179.51 109.737Z" fill="#5151F9"/>
<path fill-rule="evenodd" clip-rule="evenodd" d="M204.649 109.737C215.629 109.614 226.627 109.597 237.645 109.685C237.794 113.362 237.794 117.028 237.645 120.685C237.645 120.65 237.645 120.614 237.645 120.579C237.682 116.983 237.645 113.404 237.532 109.843C226.59 109.737 215.629 109.703 204.649 109.737Z" fill="#5151F9"/>
<path fill-rule="evenodd" clip-rule="evenodd" d="M74.9126 109.737C74.95 109.737 74.9875 109.737 75.0248 109.737C81.8524 109.702 88.6609 109.737 95.4505 109.842C88.5965 109.807 81.7506 109.842 74.9126 109.947C74.9126 109.877 74.9126 109.807 74.9126 109.737Z" fill="#5151F9"/>
<path fill-rule="evenodd" clip-rule="evenodd" d="M179.622 109.737C181.289 109.661 182.935 109.766 184.56 110.052C184.513 110.118 184.439 110.154 184.336 110.158C182.754 109.947 181.183 109.807 179.622 109.737Z" fill="#B4A988"/>
<path fill-rule="evenodd" clip-rule="evenodd" d="M204.649 109.737C215.629 109.702 226.59 109.737 237.532 109.842C226.571 109.842 215.611 109.842 204.649 109.842C204.649 110.087 204.649 110.333 204.649 110.579C205.514 110.607 206.374 110.571 207.231 110.473C207.458 110.649 207.683 110.825 207.904 111C206.755 110.819 205.595 110.748 204.425 110.789C204.361 110.386 204.436 110.036 204.649 109.737Z" fill="#5151F9"/>
<path fill-rule="evenodd" clip-rule="evenodd" d="M278.047 120.369C278.047 116.86 278.047 113.351 278.047 109.842C266.937 109.842 255.826 109.842 244.715 109.842C244.715 110.123 244.715 110.403 244.715 110.684C245.447 110.651 246.159 110.685 246.848 110.79C246.099 110.79 245.352 110.79 244.603 110.79C244.603 110.403 244.603 110.018 244.603 109.632C255.751 109.614 266.9 109.632 278.047 109.684C278.196 113.256 278.196 116.817 278.047 120.369Z" fill="#5151F9"/>
<path fill-rule="evenodd" clip-rule="evenodd" d="M184.897 110.158C185.273 110.14 185.647 110.158 186.019 110.211C186.082 110.251 186.119 110.303 186.131 110.369C185.692 110.376 185.28 110.305 184.897 110.158Z" fill="#C2BA99"/>
<path fill-rule="evenodd" clip-rule="evenodd" d="M160.88 109.842C160.917 109.842 160.955 109.842 160.992 109.842C160.992 110.087 160.992 110.333 160.992 110.579C162.045 110.584 163.092 110.567 164.135 110.526C164.044 110.559 163.97 110.611 163.91 110.684C164.084 110.784 164.27 110.82 164.471 110.789C164.471 110.894 164.471 111 164.471 111.105C163.295 110.832 162.099 110.727 160.88 110.789C160.88 110.473 160.88 110.158 160.88 109.842Z" fill="#CCAB3C"/>
<path fill-rule="evenodd" clip-rule="evenodd" d="M74.9126 109.737C74.9126 109.808 74.9126 109.877 74.9126 109.948C74.9126 110.193 74.9126 110.439 74.9126 110.685C75.6445 110.651 76.3553 110.686 77.0449 110.79C76.2967 110.79 75.5486 110.79 74.8003 110.79C74.7652 110.417 74.8027 110.066 74.9126 109.737Z" fill="#544A25"/>
<path fill-rule="evenodd" clip-rule="evenodd" d="M186.131 110.368C186.818 110.525 187.492 110.7 188.151 110.894C187.406 110.897 186.733 110.722 186.131 110.368Z" fill="#5151F9"/>
<path fill-rule="evenodd" clip-rule="evenodd" d="M246.847 110.789C247.265 110.795 247.677 110.848 248.082 110.947C248.145 110.987 248.182 111.04 248.194 111.105C247.788 111.033 247.376 110.981 246.959 110.947C246.897 110.907 246.86 110.854 246.847 110.789Z" fill="#5151F9"/>
<path fill-rule="evenodd" clip-rule="evenodd" d="M179.51 109.737C179.547 109.737 179.585 109.737 179.622 109.737C181.183 109.807 182.754 109.947 184.336 110.158C184.439 110.153 184.513 110.118 184.56 110.052C184.705 110.027 184.817 110.063 184.897 110.158C185.28 110.305 185.692 110.376 186.131 110.368C186.733 110.722 187.406 110.897 188.152 110.895C193.193 112.385 196.803 115.367 198.982 119.842C199.218 120.638 199.518 121.409 199.879 122.158C200.019 122.872 200.187 123.575 200.385 124.263C200.365 124.65 200.385 125.037 200.441 125.421C200.483 125.48 200.539 125.515 200.609 125.526C200.648 127.847 200.574 130.163 200.385 132.473C200.353 132.901 200.279 133.322 200.16 133.737C199.875 134.626 199.557 135.503 199.206 136.368C198.7 137.248 198.195 138.126 197.691 139C197.486 139.173 197.336 139.384 197.242 139.631C196.862 139.987 196.525 140.373 196.232 140.789C195.708 141.21 195.222 141.666 194.773 142.158C194.278 142.533 193.791 142.937 193.314 143.368C192.227 143.923 191.122 144.466 190.003 145C187.495 145.935 184.895 146.496 182.203 146.684C180.707 146.684 179.21 146.684 177.714 146.684C179.042 146.597 180.389 146.544 181.755 146.526C181.008 146.443 180.26 146.373 179.51 146.316C179.755 146.299 179.96 146.21 180.127 146.052C180.508 146.153 180.9 146.188 181.306 146.158C181.306 146.052 181.306 145.947 181.306 145.842C180.842 145.843 180.411 145.878 180.015 145.947C179.825 145.861 179.807 145.756 179.959 145.631C179.821 145.549 179.672 145.497 179.51 145.473C179.734 145.439 179.959 145.403 180.183 145.368C180.132 145.325 180.095 145.272 180.071 145.21C179.438 145.123 178.803 145.07 178.163 145.052C178.079 144.982 178.041 144.895 178.051 144.789C179.061 144.789 180.071 144.789 181.081 144.789C181.645 144.763 182.206 144.71 182.765 144.631C182.849 144.561 182.887 144.473 182.877 144.368C184.442 143.76 185.77 142.847 186.861 141.631C187.278 141.047 187.671 140.45 188.039 139.842C188.294 139.62 188.443 139.339 188.488 139C188.765 138.387 188.99 137.756 189.162 137.105C189.348 136.901 189.423 136.656 189.386 136.368C189.498 136.368 189.611 136.368 189.723 136.368C189.76 135.737 189.798 135.105 189.835 134.473C189.835 134.403 189.835 134.333 189.835 134.263C189.905 134.251 189.961 134.217 190.003 134.158C190.059 133.773 190.079 133.387 190.059 133C190.059 132.86 190.059 132.719 190.059 132.579C190.275 132.207 190.35 131.786 190.284 131.316C190.284 129.631 190.284 127.947 190.284 126.263C190.351 125.759 190.276 125.302 190.059 124.895C190.059 124.86 190.059 124.824 190.059 124.789C190.082 124.237 190.007 123.71 189.835 123.21C189.835 123.14 189.835 123.07 189.835 123C189.838 122.541 189.801 122.085 189.723 121.631C189.721 121.346 189.796 121.083 189.947 120.842C189.891 120.789 189.835 120.737 189.779 120.684C189.751 120.802 189.695 120.907 189.611 121C189.405 120.616 189.256 120.212 189.162 119.789C189.123 119.681 189.049 119.628 188.937 119.631C188.01 116.782 186.252 114.519 183.662 112.842C183.126 112.716 182.603 112.558 182.091 112.368C181.873 112.193 181.612 112.123 181.306 112.158C179.765 111.886 178.231 111.781 176.704 111.842C176.443 111.842 176.18 111.842 175.919 111.842C176.206 111.675 176.543 111.569 176.929 111.526C176.703 111.357 176.44 111.235 176.143 111.158C173.001 111.105 169.858 111.087 166.716 111.105C166.73 111.284 166.805 111.442 166.94 111.579C166.811 111.761 166.681 111.743 166.548 111.526C166.524 111.824 166.505 112.105 166.491 112.368C166.62 112.498 166.752 112.498 166.884 112.368C166.959 122.613 166.959 132.86 166.884 143.105C166.865 133 166.809 122.895 166.716 112.789C166.65 112.767 166.594 112.732 166.548 112.684C166.491 113.033 166.472 113.384 166.491 113.737C166.461 113.075 166.219 112.478 165.762 111.947C165.396 111.571 164.966 111.291 164.471 111.105C164.471 111 164.471 110.895 164.471 110.789C164.27 110.82 164.084 110.784 163.91 110.684C163.97 110.611 164.044 110.559 164.135 110.526C163.092 110.567 162.045 110.584 160.992 110.579C160.992 110.333 160.992 110.087 160.992 109.842C167.146 109.737 173.318 109.702 179.51 109.737Z" fill="#5151F9"/>
<path fill-rule="evenodd" clip-rule="evenodd" d="M119.019 110.684C118.04 110.652 117.067 110.705 116.101 110.842C115.294 111.07 114.601 111.474 114.024 112.052C113.812 112.381 113.662 112.731 113.575 113.105C113.482 123.32 113.501 133.53 113.632 143.737C113.637 144.037 113.749 144.282 113.968 144.473C114.693 145.368 115.665 145.824 116.886 145.842C116.899 145.907 116.936 145.96 116.998 146C117.634 146.052 118.269 146.07 118.906 146.052C118.906 146.298 118.906 146.544 118.906 146.789C112.098 146.789 105.289 146.789 98.4807 146.789C98.4807 146.544 98.4807 146.298 98.4807 146.052C99.4579 146.073 100.431 146.021 101.399 145.894C101.54 145.85 101.614 145.763 101.623 145.631C103.121 145.104 103.869 144.086 103.868 142.579C103.949 142.534 104.005 142.465 104.036 142.368C104.055 141.807 104.073 141.245 104.092 140.684C104.092 140.083 104.017 139.522 103.868 139C103.868 138.789 103.868 138.579 103.868 138.368C103.98 135.263 104.017 132.141 103.98 129C99.2846 128.965 94.6084 129 89.9513 129.105C89.9513 129.421 89.9513 129.737 89.9513 130.052C89.8764 132 89.839 133.964 89.839 135.947C89.8297 138.405 89.8858 140.861 90.0074 143.316C90.0829 144.283 90.5879 144.967 91.5225 145.368C91.9241 145.451 92.2982 145.592 92.6448 145.789C92.8662 145.842 93.0906 145.859 93.3181 145.842C93.9816 146.048 94.6924 146.118 95.4505 146.052C95.4505 146.298 95.4505 146.544 95.4505 146.789C88.6419 146.789 81.8334 146.789 75.0248 146.789C75.0248 146.544 75.0248 146.298 75.0248 146.052C75.645 146.086 76.2436 146.051 76.8205 145.947C76.8953 145.947 76.9327 145.912 76.9327 145.842C77.0449 145.842 77.1572 145.842 77.2694 145.842C77.4969 145.859 77.7213 145.842 77.9428 145.789C78.0052 145.749 78.0425 145.697 78.055 145.631C78.6482 145.459 79.172 145.178 79.6262 144.789C79.7384 144.789 79.8507 144.789 79.9629 144.789C80.1867 144.247 80.355 143.685 80.4679 143.105C80.5613 133.228 80.5427 123.368 80.4118 113.526C80.2383 112.813 79.9016 112.165 79.4018 111.579C79.0178 111.424 78.6438 111.248 78.2795 111.052C77.8633 110.964 77.4518 110.877 77.0449 110.789C76.3553 110.685 75.6446 110.65 74.9126 110.684C74.9126 110.439 74.9126 110.192 74.9126 109.947C81.7506 109.842 88.5966 109.807 95.4505 109.842C95.4879 109.842 95.5253 109.842 95.5627 109.842C95.5627 110.123 95.5627 110.403 95.5627 110.684C94.172 110.584 92.8252 110.742 91.5225 111.158C90.6947 111.718 90.1896 112.471 90.0074 113.421C89.8056 117.77 89.787 122.122 89.9513 126.473C89.9513 126.508 89.9513 126.544 89.9513 126.579C94.6084 126.684 99.2846 126.719 103.98 126.684C104.016 126.102 103.979 125.541 103.868 125C103.921 120.854 103.865 116.714 103.699 112.579C103.27 112.07 102.802 111.597 102.296 111.158C101.032 110.745 99.723 110.587 98.3684 110.684C98.3373 110.373 98.3747 110.076 98.4807 109.789C105.289 109.719 112.098 109.719 118.906 109.789C119.012 110.076 119.05 110.373 119.019 110.684Z" fill="#5151F9"/>
<path fill-rule="evenodd" clip-rule="evenodd" d="M154.483 109.947C154.518 113.529 154.481 117.108 154.371 120.684C154.071 120.684 153.773 120.684 153.473 120.684C153.526 120.412 153.452 120.202 153.248 120.052C152.819 118.036 151.996 116.177 150.779 114.473C150.662 114.489 150.549 114.471 150.443 114.421C149.706 113.744 148.883 113.2 147.974 112.789C147.793 112.622 147.569 112.499 147.3 112.421C147.156 112.369 147.005 112.351 146.851 112.368C146.814 112.368 146.776 112.368 146.739 112.368C146.496 112.166 146.196 112.026 145.841 111.947C145.954 111.877 146.066 111.807 146.178 111.737C145.975 111.6 145.789 111.618 145.617 111.789C144.982 111.842 144.346 111.86 143.709 111.842C141.277 111.842 138.846 111.842 136.414 111.842C136.414 116.86 136.414 121.877 136.414 126.894C137.255 126.951 138.114 126.951 138.995 126.894C139.302 126.929 139.563 126.859 139.781 126.684C140.812 126.384 141.692 125.858 142.418 125.105C142.665 124.711 142.964 124.361 143.316 124.052C143.526 123.412 143.77 122.781 144.046 122.158C144.153 122.11 144.247 122.04 144.326 121.947C144.328 121.488 144.46 121.067 144.719 120.684C144.794 120.754 144.868 120.824 144.943 120.894C144.981 120.842 145.019 120.789 145.056 120.737C144.928 120.49 144.853 120.227 144.831 119.947C144.869 119.454 144.926 118.963 145 118.473C145.267 118.374 145.547 118.34 145.841 118.368C145.841 124.754 145.841 131.14 145.841 137.526C145.627 137.497 145.44 137.531 145.28 137.631C145.092 137.653 144.979 137.584 144.943 137.421C144.929 136.946 144.892 136.472 144.831 136C144.812 135.691 144.887 135.41 145.056 135.158C145.019 135.105 144.981 135.052 144.943 135C144.868 135.105 144.794 135.21 144.719 135.316C144.559 134.938 144.427 134.551 144.326 134.158C144.279 134.025 144.186 133.956 144.046 133.947C143.791 133.267 143.492 132.601 143.148 131.947C142.666 131.41 142.217 130.866 141.801 130.316C141.417 130.206 141.118 129.996 140.903 129.684C140.229 129.526 139.555 129.368 138.883 129.21C138.871 129.145 138.834 129.092 138.771 129.052C137.965 128.966 137.179 128.984 136.414 129.105C136.395 133.456 136.414 137.807 136.47 142.158C136.49 142.459 136.547 142.74 136.639 143C136.885 143.617 137.297 144.108 137.873 144.473C138.192 144.714 138.567 144.82 138.995 144.789C140.791 144.789 142.587 144.789 144.382 144.789C144.832 144.807 145.281 144.789 145.729 144.737C145.832 144.707 145.906 144.654 145.954 144.579C146.029 144.579 146.103 144.579 146.178 144.579C146.484 144.613 146.746 144.543 146.964 144.368C147.001 144.368 147.039 144.368 147.076 144.368C147.304 144.385 147.528 144.368 147.749 144.316C147.812 144.276 147.849 144.223 147.861 144.158C148.108 144.045 148.37 143.976 148.647 143.947C149.048 143.874 149.44 143.769 149.825 143.631C150.003 143.742 150.171 143.742 150.33 143.631C150.213 143.463 150.288 143.374 150.555 143.368C150.635 143.237 150.728 143.113 150.835 143C150.949 143.088 151.08 143.123 151.228 143.105C151.228 143 151.228 142.894 151.228 142.789C151.341 142.789 151.453 142.789 151.565 142.789C151.593 142.334 151.78 142.229 152.126 142.473C152.248 142.38 152.248 142.274 152.126 142.158C152.27 142.038 152.419 142.038 152.575 142.158C152.973 141.994 153.086 141.731 152.912 141.368C153.074 141.25 153.262 141.181 153.473 141.158C153.356 140.97 153.356 140.778 153.473 140.579C153.911 140.464 154.135 140.183 154.146 139.737C154.308 139.366 154.532 139.014 154.82 138.684C155.072 138.386 155.316 138.07 155.549 137.737C155.628 137.423 155.684 137.107 155.717 136.789C155.851 136.323 156 135.867 156.166 135.421C156.253 135.35 156.327 135.262 156.391 135.158C156.688 135.105 156.987 135.088 157.289 135.105C157.289 135.245 157.289 135.386 157.289 135.526C157.06 136.852 156.873 138.186 156.728 139.526C156.445 140.621 156.258 141.743 156.166 142.894C156.166 142.965 156.166 143.034 156.166 143.105C155.951 143.477 155.876 143.898 155.942 144.368C155.942 144.473 155.942 144.579 155.942 144.684C155.872 144.696 155.816 144.73 155.774 144.789C155.717 145.139 155.698 145.489 155.717 145.842C155.717 145.947 155.717 146.052 155.717 146.158C155.514 146.307 155.44 146.518 155.493 146.789C144.158 146.789 132.823 146.789 121.488 146.789C121.488 146.544 121.488 146.298 121.488 146.052C122.087 146.07 122.686 146.052 123.283 146C123.346 145.96 123.383 145.907 123.396 145.842C123.508 145.842 123.62 145.842 123.732 145.842C124.075 145.883 124.374 145.812 124.63 145.631C125.467 145.372 126.104 144.881 126.538 144.158C126.65 144.158 126.762 144.158 126.875 144.158C126.921 143.562 126.958 142.965 126.987 142.368C127.062 137.473 127.099 132.561 127.099 127.631C127.099 122.684 127.024 117.771 126.875 112.894C126.465 112.246 125.942 111.667 125.303 111.158C124.731 111.019 124.17 110.896 123.62 110.789C122.893 110.685 122.144 110.65 121.375 110.684C121.344 110.373 121.382 110.076 121.488 109.789C132.449 109.719 143.409 109.719 154.371 109.789C154.434 109.829 154.471 109.882 154.483 109.947Z" fill="#5151F9"/>
<path fill-rule="evenodd" clip-rule="evenodd" d="M154.483 109.947C154.52 109.947 154.558 109.947 154.595 109.947C154.614 113.526 154.595 117.105 154.539 120.684C154.159 120.785 153.766 120.82 153.361 120.789C153.306 120.546 153.268 120.301 153.249 120.053C153.452 120.202 153.526 120.413 153.473 120.684C153.773 120.684 154.071 120.684 154.371 120.684C154.481 117.108 154.518 113.529 154.483 109.947Z" fill="#CCBA70"/>
<path fill-rule="evenodd" clip-rule="evenodd" d="M175.919 111.842C175.845 122.089 175.919 132.299 176.143 142.474C176.002 143.49 176.414 144.244 177.378 144.737C177.599 144.79 177.823 144.806 178.051 144.79C178.041 144.895 178.079 144.982 178.163 145.053C178.803 145.071 179.438 145.123 180.071 145.211C180.095 145.273 180.132 145.325 180.183 145.369C179.959 145.403 179.734 145.439 179.51 145.474C179.672 145.497 179.821 145.55 179.959 145.632C179.807 145.756 179.825 145.861 180.015 145.947C180.411 145.878 180.842 145.843 181.306 145.842C181.306 145.947 181.306 146.053 181.306 146.158C180.9 146.189 180.508 146.154 180.127 146.053C179.96 146.211 179.755 146.299 179.51 146.316C180.26 146.374 181.008 146.443 181.755 146.526C180.389 146.544 179.042 146.597 177.714 146.684C177.714 146.755 177.677 146.79 177.602 146.79C172.066 146.79 166.528 146.79 160.992 146.79C160.992 146.544 160.992 146.298 160.992 146.053C161.667 146.071 162.34 146.053 163.012 146C163.075 145.96 163.112 145.907 163.125 145.842C163.54 145.777 163.952 145.69 164.359 145.579C164.829 145.361 165.278 145.134 165.706 144.895C165.839 144.573 166.008 144.257 166.211 143.947C166.231 143.66 166.287 143.38 166.379 143.105C166.491 133.316 166.528 123.526 166.491 113.737C166.472 113.384 166.491 113.034 166.548 112.684C166.594 112.733 166.65 112.767 166.716 112.79C166.809 122.895 166.865 133 166.884 143.105C166.959 132.86 166.959 122.614 166.884 112.369C166.752 112.498 166.62 112.498 166.491 112.369C166.505 112.105 166.524 111.824 166.548 111.526C166.681 111.743 166.811 111.761 166.94 111.579C166.805 111.442 166.73 111.284 166.716 111.105C169.858 111.087 173.001 111.105 176.143 111.158C176.44 111.235 176.703 111.357 176.929 111.526C176.543 111.57 176.206 111.675 175.919 111.842Z" fill="#5151F9"/>
<path fill-rule="evenodd" clip-rule="evenodd" d="M237.532 109.842C237.645 113.403 237.682 116.982 237.645 120.579C237.308 120.579 236.971 120.579 236.635 120.579C236.512 119.787 236.326 118.998 236.073 118.21C236.035 118.102 235.961 118.049 235.849 118.052C235.849 118.018 235.849 117.982 235.849 117.947C235.814 117.584 235.72 117.233 235.568 116.894C235.521 116.762 235.428 116.692 235.288 116.684C235.071 116.106 234.773 115.58 234.39 115.105C234.223 114.858 234.072 114.594 233.941 114.315C233.957 114.234 233.995 114.164 234.053 114.105C233.772 113.968 233.473 113.863 233.156 113.789C233.061 113.683 233.024 113.56 233.043 113.421C232.883 113.429 232.734 113.394 232.594 113.315C232.557 113.175 232.519 113.034 232.482 112.894C232.254 113.131 231.993 113.166 231.697 113C231.125 112.82 230.564 112.609 230.013 112.368C229.788 112.219 229.525 112.148 229.228 112.158C229.115 112.158 229.003 112.158 228.891 112.158C228.534 111.957 228.122 111.886 227.656 111.947C227.395 111.947 227.132 111.947 226.871 111.947C224.459 111.842 222.027 111.807 219.576 111.842C219.557 116.894 219.576 121.947 219.632 127C220.314 127.12 221.007 127.138 221.708 127.052C221.771 127.012 221.808 126.96 221.82 126.894C221.896 126.894 221.97 126.894 222.045 126.894C222.387 126.935 222.687 126.865 222.943 126.684C223.616 126.454 224.252 126.174 224.851 125.842C225.418 125.555 225.829 125.134 226.085 124.579C226.58 123.717 226.992 122.804 227.32 121.842C227.432 121.842 227.544 121.842 227.656 121.842C227.761 121.214 227.835 120.583 227.881 119.947C227.991 119.547 228.029 119.126 227.993 118.684C227.993 118.613 227.993 118.544 227.993 118.473C228.329 118.287 228.702 118.217 229.115 118.263C229.115 124.719 229.115 131.175 229.115 137.631C228.702 137.678 228.329 137.607 227.993 137.421C227.993 137.14 227.993 136.86 227.993 136.579C227.899 135.769 227.861 134.962 227.881 134.158C227.893 134.382 227.856 134.628 227.769 134.894C227.44 134.402 227.347 133.875 227.488 133.315C227.453 133.401 227.397 133.47 227.32 133.526C227.209 133.306 227.059 133.131 226.871 133C226.308 131.826 225.485 130.826 224.402 130C224.133 129.874 223.872 129.751 223.616 129.631C223.454 129.465 223.268 129.307 223.055 129.158C222.383 129.084 221.709 129.031 221.035 129C220.549 129 220.062 129 219.576 129C219.557 133.386 219.576 137.771 219.632 142.158C219.644 142.575 219.737 142.961 219.913 143.315C220.309 144.002 220.907 144.459 221.708 144.684C223.915 144.789 226.121 144.824 228.33 144.789C228.818 144.762 229.305 144.709 229.789 144.631C229.909 144.542 230.021 144.453 230.125 144.368C232.359 143.901 234.267 142.919 235.849 141.421C236.098 141.347 236.304 141.206 236.466 141C236.663 140.765 236.831 140.519 236.971 140.263C237.346 139.666 237.72 139.069 238.094 138.473C238.332 138.222 238.537 137.941 238.711 137.631C238.766 137.46 238.785 137.284 238.767 137.105C238.778 136.873 238.853 136.663 238.991 136.473C239.104 136.477 239.178 136.424 239.216 136.315C239.327 135.952 239.402 135.584 239.44 135.21C239.44 135.175 239.44 135.14 239.44 135.105C239.74 135.105 240.039 135.105 240.338 135.105C240.338 135.491 240.338 135.877 240.338 136.263C240.032 138.098 239.77 139.923 239.553 141.737C239.289 142.502 239.14 143.309 239.104 144.158C239.108 144.254 239.146 144.324 239.216 144.368C239.209 144.485 239.172 144.59 239.104 144.684C238.991 145.171 238.879 145.662 238.767 146.158C238.767 146.403 238.767 146.649 238.767 146.894C227.395 146.894 216.022 146.894 204.649 146.894C204.649 146.649 204.649 146.403 204.649 146.158C205.823 146.243 206.946 146.103 208.016 145.737C208.436 146.002 208.848 145.879 209.251 145.368C209.192 145.309 209.154 145.239 209.139 145.158C209.325 145.001 209.437 144.807 209.475 144.579C209.721 144.443 209.871 144.232 209.924 143.947C210.008 143.565 210.045 143.179 210.036 142.789C210.185 132.79 210.185 122.79 210.036 112.789C209.895 112.311 209.596 111.96 209.139 111.737C209.149 111.631 209.111 111.544 209.026 111.473C208.68 111.229 208.305 111.071 207.904 111C207.683 110.825 207.459 110.649 207.231 110.473C206.374 110.571 205.514 110.607 204.649 110.579C204.649 110.333 204.649 110.087 204.649 109.842C215.611 109.842 226.571 109.842 237.532 109.842Z" fill="#5151F9"/>
<path fill-rule="evenodd" clip-rule="evenodd" d="M278.047 120.368C277.635 120.368 277.224 120.368 276.812 120.368C276.832 119.975 276.794 119.589 276.7 119.21C276.761 118.873 276.685 118.593 276.476 118.368C276.476 118.192 276.476 118.018 276.476 117.842C276.247 116.901 275.854 116.024 275.297 115.21C275.205 115.071 275.075 115.001 274.904 115C274.928 114.823 274.854 114.718 274.68 114.684C274.564 114.328 274.34 114.047 274.007 113.842C274.03 113.78 274.067 113.727 274.119 113.684C273.815 113.642 273.516 113.589 273.221 113.526C271.991 112.884 270.682 112.428 269.293 112.158C268.63 111.951 267.918 111.882 267.161 111.947C267.085 111.947 267.011 111.947 266.936 111.947C264.561 111.842 262.168 111.807 259.754 111.842C259.641 116.947 259.604 122.069 259.641 127.21C260.262 127.244 260.86 127.209 261.437 127.105C261.737 127.105 262.035 127.105 262.335 127.105C262.741 127.124 263.116 127.053 263.457 126.894C264.386 126.721 265.246 126.405 266.038 125.947C266.291 125.886 266.478 125.746 266.599 125.526C266.998 125.344 267.296 125.063 267.497 124.684C267.497 124.649 267.497 124.613 267.497 124.579C267.754 124.408 267.979 124.198 268.171 123.947C268.292 124.07 268.386 124.21 268.451 124.368C268.507 124.315 268.563 124.263 268.62 124.21C268.505 124.033 268.393 123.859 268.283 123.684C268.58 123.212 268.768 122.704 268.844 122.158C268.844 122.123 268.844 122.087 268.844 122.052C268.973 122.022 269.048 121.934 269.069 121.789C269.222 121.472 269.297 121.139 269.293 120.789C269.376 120.775 269.451 120.793 269.517 120.842C269.379 120.966 269.379 121.089 269.517 121.21C269.63 120.583 269.667 119.951 269.63 119.315C269.854 119.315 270.079 119.315 270.303 119.315C270.303 125.421 270.303 131.526 270.303 137.631C270.079 137.631 269.854 137.631 269.63 137.631C269.657 137.495 269.618 137.39 269.517 137.315C269.579 136.946 269.505 136.63 269.293 136.368C269.357 135.965 269.282 135.614 269.069 135.315C269.081 134.921 269.025 134.535 268.9 134.158C268.873 133.987 268.78 133.882 268.62 133.842C268.62 133.771 268.62 133.702 268.62 133.631C268.421 133.048 268.159 132.487 267.834 131.947C267.858 131.885 267.895 131.832 267.946 131.789C267.704 131.728 267.479 131.64 267.273 131.526C267.019 131.325 266.758 131.114 266.487 130.894C266.417 130.631 266.229 130.491 265.926 130.473C265.073 130.02 264.175 129.669 263.233 129.421C262.97 129.259 262.671 129.188 262.335 129.21C262.186 129.21 262.035 129.21 261.886 129.21C261.159 129.106 260.41 129.071 259.641 129.105C259.604 133.509 259.641 137.894 259.754 142.263C259.863 142.698 259.902 143.154 259.866 143.631C259.889 143.92 260.002 144.165 260.202 144.368C260.202 144.403 260.202 144.439 260.202 144.473C260.394 144.759 260.657 144.969 260.988 145.105C261.6 145.577 262.31 145.823 263.12 145.842C263.12 145.912 263.157 145.947 263.233 145.947C263.848 146.051 264.483 146.086 265.14 146.052C265.14 146.298 265.14 146.544 265.14 146.789C258.332 146.789 251.524 146.789 244.715 146.789C244.715 146.544 244.715 146.298 244.715 146.052C245.352 146.07 245.988 146.052 246.623 146C246.686 145.96 246.723 145.907 246.735 145.842C247.875 145.781 248.81 145.36 249.541 144.579C249.639 144.592 249.714 144.558 249.765 144.473C249.965 144.217 250.114 143.935 250.214 143.631C250.528 144.045 250.678 143.975 250.663 143.421C250.551 143.421 250.439 143.421 250.326 143.421C250.363 133.544 250.326 123.684 250.214 113.842C250.12 112.559 249.446 111.647 248.194 111.105C248.182 111.04 248.145 110.987 248.082 110.947C247.677 110.848 247.265 110.795 246.847 110.789C246.158 110.685 245.447 110.65 244.715 110.684C244.715 110.403 244.715 110.123 244.715 109.842C255.826 109.842 266.936 109.842 278.047 109.842C278.047 113.35 278.047 116.86 278.047 120.368Z" fill="#5151F9"/>
<path fill-rule="evenodd" clip-rule="evenodd" d="M146.739 112.368C145.738 112.171 144.728 112.03 143.709 111.947C143.709 111.912 143.709 111.876 143.709 111.842C144.346 111.86 144.982 111.842 145.617 111.789C145.789 111.617 145.975 111.6 146.178 111.736C146.066 111.807 145.954 111.876 145.841 111.947C146.196 112.026 146.496 112.166 146.739 112.368Z" fill="#5151F9"/>
<path fill-rule="evenodd" clip-rule="evenodd" d="M227.656 111.947C228.122 111.886 228.534 111.957 228.891 112.158C228.454 112.142 228.043 112.072 227.656 111.947Z" fill="#5151F9"/>
<path fill-rule="evenodd" clip-rule="evenodd" d="M267.161 111.948C267.918 111.882 268.63 111.952 269.293 112.158C268.562 112.119 267.852 112.049 267.161 111.948Z" fill="#B29D51"/>
<path fill-rule="evenodd" clip-rule="evenodd" d="M181.306 112.158C181.612 112.123 181.874 112.194 182.091 112.369C181.803 112.345 181.541 112.275 181.306 112.158Z" fill="#5151F9"/>
<path fill-rule="evenodd" clip-rule="evenodd" d="M229.228 112.158C229.525 112.149 229.788 112.219 230.013 112.369C229.716 112.378 229.453 112.308 229.228 112.158Z" fill="#5151F9"/>
<path fill-rule="evenodd" clip-rule="evenodd" d="M209.139 111.737C209.597 111.96 209.895 112.312 210.037 112.79C209.74 112.451 209.442 112.099 209.139 111.737Z" fill="#C2A350"/>
<path fill-rule="evenodd" clip-rule="evenodd" d="M146.852 112.368C147.005 112.352 147.156 112.369 147.3 112.421C147.569 112.499 147.793 112.622 147.974 112.789C147.536 112.771 147.162 112.629 146.852 112.368Z" fill="#C5B381"/>
<path fill-rule="evenodd" clip-rule="evenodd" d="M143.709 111.842C143.709 111.877 143.709 111.912 143.709 111.947C141.315 111.947 138.92 111.947 136.526 111.947C136.563 116.947 136.526 121.93 136.414 126.894C136.414 121.877 136.414 116.86 136.414 111.842C138.846 111.842 141.277 111.842 143.709 111.842Z" fill="#A5A18D"/>
<path fill-rule="evenodd" clip-rule="evenodd" d="M226.87 111.947C224.477 111.947 222.082 111.947 219.688 111.947C219.688 116.929 219.688 121.913 219.688 126.895C220.398 126.895 221.11 126.895 221.82 126.895C221.808 126.96 221.771 127.013 221.708 127.053C221.006 127.138 220.314 127.12 219.632 127C219.576 121.947 219.556 116.895 219.576 111.842C222.027 111.807 224.459 111.842 226.87 111.947Z" fill="#BDAA61"/>
<path fill-rule="evenodd" clip-rule="evenodd" d="M259.754 111.842C259.717 116.947 259.754 122.035 259.866 127.105C260.39 127.105 260.913 127.105 261.437 127.105C260.86 127.209 260.262 127.244 259.641 127.21C259.604 122.069 259.641 116.947 259.754 111.842Z" fill="#6D5C20"/>
<path fill-rule="evenodd" clip-rule="evenodd" d="M259.754 111.842C262.168 111.807 264.562 111.842 266.936 111.947C264.579 111.947 262.223 111.947 259.866 111.947C259.866 117 259.866 122.053 259.866 127.105C259.754 122.036 259.717 116.947 259.754 111.842Z" fill="#5151F9"/>
<path fill-rule="evenodd" clip-rule="evenodd" d="M273.221 113.526C273.516 113.59 273.815 113.642 274.119 113.684C274.067 113.727 274.03 113.78 274.007 113.842C274.34 114.047 274.565 114.328 274.68 114.684C274.158 114.335 273.671 113.948 273.221 113.526Z" fill="#5151F9"/>
<path fill-rule="evenodd" clip-rule="evenodd" d="M234.39 115.105C233.591 114.284 232.693 113.583 231.696 113C231.993 113.166 232.254 113.131 232.482 112.895C232.519 113.035 232.557 113.176 232.594 113.316C232.733 113.395 232.883 113.429 233.043 113.421C233.024 113.56 233.061 113.683 233.155 113.789C233.473 113.863 233.771 113.968 234.053 114.105C233.995 114.164 233.957 114.235 233.941 114.316C234.072 114.595 234.223 114.858 234.39 115.105Z" fill="#5151F9"/>
<path fill-rule="evenodd" clip-rule="evenodd" d="M80.4121 113.526C80.5429 123.368 80.5616 133.228 80.4682 143.105C80.3553 143.685 80.1869 144.247 79.9632 144.79C79.8509 144.79 79.7387 144.79 79.6265 144.79C80.1456 143.919 80.3888 142.972 80.356 141.947C80.4121 132.474 80.4308 123 80.4121 113.526Z" fill="#5151F9"/>
<path fill-rule="evenodd" clip-rule="evenodd" d="M249.653 113.947C249.723 113.959 249.779 113.994 249.822 114.053C249.841 118.771 249.859 123.491 249.878 128.21C249.896 132.98 249.839 137.735 249.709 142.474C249.653 132.965 249.634 123.456 249.653 113.947Z" fill="#5151F9"/>
<path fill-rule="evenodd" clip-rule="evenodd" d="M274.905 115C275.075 115.001 275.206 115.072 275.298 115.211C275.854 116.024 276.247 116.901 276.476 117.842C276.109 117.219 275.791 116.553 275.522 115.842C275.342 115.54 275.137 115.259 274.905 115Z" fill="#B8A355"/>
<path fill-rule="evenodd" clip-rule="evenodd" d="M126.875 112.895C127.024 117.771 127.099 122.684 127.099 127.631C127.099 132.561 127.062 137.473 126.987 142.368C127.024 132.842 126.987 123.333 126.875 113.842C126.875 113.526 126.875 113.21 126.875 112.895Z" fill="#5151F9"/>
<path fill-rule="evenodd" clip-rule="evenodd" d="M250.214 113.842C250.327 123.684 250.364 133.544 250.327 143.421C250.439 143.421 250.551 143.421 250.663 143.421C250.678 143.975 250.529 144.045 250.214 143.631C250.115 143.935 249.965 144.217 249.765 144.473C249.714 144.558 249.64 144.592 249.541 144.579C249.831 144.012 250.037 143.415 250.158 142.789C250.214 133.14 250.233 123.491 250.214 113.842Z" fill="#5151F9"/>
<path fill-rule="evenodd" clip-rule="evenodd" d="M235.288 116.685C235.428 116.693 235.521 116.762 235.568 116.895C235.72 117.234 235.814 117.585 235.849 117.948C235.62 117.552 235.433 117.131 235.288 116.685Z" fill="#BDA558"/>
<path fill-rule="evenodd" clip-rule="evenodd" d="M175.919 111.842C176.18 111.842 176.443 111.842 176.704 111.842C176.577 112.022 176.39 112.092 176.143 112.052C176.143 122.192 176.143 132.333 176.143 142.473C175.919 132.299 175.845 122.088 175.919 111.842Z" fill="#B6B6AA"/>
<path fill-rule="evenodd" clip-rule="evenodd" d="M229.115 118.264C228.702 118.217 228.329 118.288 227.993 118.474C227.993 118.369 227.993 118.264 227.993 118.158C228.39 118.126 228.765 118.16 229.115 118.264Z" fill="#5151F9"/>
<path fill-rule="evenodd" clip-rule="evenodd" d="M276.476 118.368C276.685 118.593 276.761 118.873 276.7 119.21C276.602 118.947 276.527 118.666 276.476 118.368Z" fill="#A8955D"/>
<path fill-rule="evenodd" clip-rule="evenodd" d="M145.954 137.632C145.729 137.632 145.505 137.632 145.28 137.632C145.44 137.532 145.627 137.497 145.842 137.527C145.842 131.14 145.842 124.755 145.842 118.369C145.548 118.34 145.267 118.375 145 118.474C144.926 118.963 144.87 119.455 144.832 119.948C144.853 120.228 144.928 120.491 145.056 120.737C145.019 120.79 144.981 120.842 144.944 120.895C144.869 120.824 144.794 120.755 144.719 120.684C144.46 121.068 144.329 121.489 144.326 121.948C144.247 122.04 144.154 122.111 144.046 122.158C144.433 120.848 144.695 119.514 144.832 118.158C145.237 118.128 145.629 118.162 146.01 118.263C146.103 124.737 146.085 131.193 145.954 137.632Z" fill="#5151F9"/>
<path fill-rule="evenodd" clip-rule="evenodd" d="M229.115 118.263C229.228 124.736 229.265 131.227 229.228 137.736C228.816 137.736 228.405 137.736 227.993 137.736C227.993 137.631 227.993 137.526 227.993 137.421C228.329 137.607 228.702 137.677 229.115 137.631C229.115 131.175 229.115 124.718 229.115 118.263Z" fill="#C8B780"/>
<path fill-rule="evenodd" clip-rule="evenodd" d="M227.993 118.685C228.029 119.127 227.991 119.548 227.881 119.948C227.844 119.948 227.806 119.948 227.769 119.948C227.793 119.505 227.867 119.084 227.993 118.685Z" fill="#AE9D6A"/>
<path fill-rule="evenodd" clip-rule="evenodd" d="M235.849 118.053C235.961 118.05 236.035 118.102 236.074 118.211C236.326 118.998 236.512 119.788 236.635 120.579C236.971 120.579 237.308 120.579 237.645 120.579C237.645 120.614 237.645 120.65 237.645 120.684C237.295 120.788 236.92 120.822 236.522 120.79C236.369 119.861 236.144 118.95 235.849 118.053Z" fill="#5151F9"/>
<path fill-rule="evenodd" clip-rule="evenodd" d="M188.938 119.632C189.05 119.629 189.124 119.681 189.162 119.79C189.256 120.213 189.405 120.616 189.611 121C189.695 120.908 189.751 120.802 189.779 120.685C189.835 120.737 189.891 120.79 189.948 120.842C189.796 121.084 189.721 121.347 189.723 121.632C189.802 122.086 189.839 122.541 189.835 123C189.587 121.878 189.288 120.755 188.938 119.632Z" fill="#5151F9"/>
<path fill-rule="evenodd" clip-rule="evenodd" d="M269.293 120.368C269.293 120.508 269.293 120.649 269.293 120.789C269.298 121.139 269.222 121.472 269.069 121.789C269.048 121.934 268.973 122.022 268.844 122.052C268.981 121.477 269.132 120.914 269.293 120.368Z" fill="#B4A468"/>
<path fill-rule="evenodd" clip-rule="evenodd" d="M269.518 137.737C269.518 137.597 269.518 137.456 269.518 137.316C269.619 137.391 269.657 137.496 269.63 137.632C269.854 137.632 270.079 137.632 270.303 137.632C270.303 131.527 270.303 125.421 270.303 119.316C270.079 119.316 269.854 119.316 269.63 119.316C269.667 119.952 269.63 120.584 269.518 121.211C269.38 121.09 269.38 120.967 269.518 120.843C269.452 120.794 269.376 120.776 269.293 120.79C269.293 120.65 269.293 120.509 269.293 120.369C269.26 120.099 269.297 119.854 269.405 119.632C269.51 119.519 269.548 119.379 269.518 119.211C269.817 119.211 270.116 119.211 270.416 119.211C270.416 125.387 270.416 131.561 270.416 137.737C270.116 137.737 269.817 137.737 269.518 137.737Z" fill="#5151F9"/>
<path fill-rule="evenodd" clip-rule="evenodd" d="M269.518 137.842C269.518 137.808 269.518 137.772 269.518 137.737C269.817 137.737 270.116 137.737 270.415 137.737C270.415 131.561 270.415 125.387 270.415 119.211C270.116 119.211 269.817 119.211 269.518 119.211C269.548 119.379 269.51 119.519 269.405 119.632C269.405 119.456 269.405 119.281 269.405 119.105C269.779 119.105 270.154 119.105 270.528 119.105C270.528 125.351 270.528 131.597 270.528 137.842C270.191 137.842 269.854 137.842 269.518 137.842Z" fill="#5F4D0F"/>
<path fill-rule="evenodd" clip-rule="evenodd" d="M227.768 119.947C227.805 119.947 227.843 119.947 227.88 119.947C227.834 120.583 227.76 121.215 227.656 121.842C227.544 121.842 227.432 121.842 227.319 121.842C227.455 121.205 227.604 120.574 227.768 119.947Z" fill="#5151F9"/>
<path fill-rule="evenodd" clip-rule="evenodd" d="M268.844 122.158C268.768 122.705 268.581 123.213 268.283 123.685C268.393 123.859 268.505 124.034 268.62 124.211C268.564 124.263 268.508 124.316 268.452 124.369C268.386 124.211 268.292 124.071 268.171 123.948C267.979 124.198 267.755 124.409 267.498 124.579C268.036 123.815 268.485 123.008 268.844 122.158Z" fill="#5151F9"/>
<path fill-rule="evenodd" clip-rule="evenodd" d="M189.835 123.211C190.007 123.711 190.082 124.237 190.059 124.79C189.922 124.286 189.847 123.759 189.835 123.211Z" fill="#B0A47C"/>
<path fill-rule="evenodd" clip-rule="evenodd" d="M200.385 124.263C200.552 124.656 200.627 125.077 200.609 125.526C200.539 125.514 200.483 125.48 200.441 125.421C200.385 125.036 200.366 124.65 200.385 124.263Z" fill="#B69C42"/>
<path fill-rule="evenodd" clip-rule="evenodd" d="M267.497 124.685C267.297 125.064 266.998 125.345 266.6 125.527C266.787 125.333 266.955 125.122 267.105 124.895C267.197 124.756 267.327 124.686 267.497 124.685Z" fill="#5151F9"/>
<path fill-rule="evenodd" clip-rule="evenodd" d="M226.085 124.579C225.829 125.135 225.418 125.556 224.851 125.842C225.265 125.418 225.677 124.997 226.085 124.579Z" fill="#A5923C"/>
<path fill-rule="evenodd" clip-rule="evenodd" d="M190.06 124.895C190.276 125.302 190.351 125.759 190.284 126.263C190.067 125.856 189.992 125.399 190.06 124.895Z" fill="#5151F9"/>
<path fill-rule="evenodd" clip-rule="evenodd" d="M266.6 125.526C266.479 125.746 266.291 125.886 266.039 125.947C266.16 125.727 266.347 125.587 266.6 125.526Z" fill="#B49D52"/>
<path fill-rule="evenodd" clip-rule="evenodd" d="M103.868 126.263C103.868 126.368 103.868 126.473 103.868 126.578C99.2293 126.578 94.5904 126.578 89.9517 126.578C89.9517 126.544 89.9517 126.508 89.9517 126.473C94.6151 126.542 99.2539 126.472 103.868 126.263Z" fill="#5151F9"/>
<path fill-rule="evenodd" clip-rule="evenodd" d="M103.868 125C103.979 125.541 104.016 126.102 103.98 126.684C99.2849 126.719 94.6088 126.684 89.9517 126.579C94.5904 126.579 99.2293 126.579 103.868 126.579C103.868 126.474 103.868 126.368 103.868 126.263C103.868 125.842 103.868 125.421 103.868 125Z" fill="#5151F9"/>
<path fill-rule="evenodd" clip-rule="evenodd" d="M139.781 126.684C139.563 126.859 139.302 126.93 138.996 126.895C139.221 126.745 139.484 126.675 139.781 126.684Z" fill="#5151F9"/>
<path fill-rule="evenodd" clip-rule="evenodd" d="M222.943 126.685C222.687 126.866 222.387 126.936 222.045 126.895C222.321 126.787 222.621 126.716 222.943 126.685Z" fill="#5151F9"/>
<path fill-rule="evenodd" clip-rule="evenodd" d="M263.457 126.895C263.116 127.053 262.741 127.124 262.335 127.105C262.682 126.97 263.055 126.9 263.457 126.895Z" fill="#5151F9"/>
<path fill-rule="evenodd" clip-rule="evenodd" d="M200.609 125.526C200.775 126.486 200.851 127.468 200.834 128.474C200.782 129.705 200.688 130.933 200.553 132.158C200.527 132.288 200.471 132.394 200.385 132.474C200.574 130.163 200.649 127.847 200.609 125.526Z" fill="#C6A946"/>
<path fill-rule="evenodd" clip-rule="evenodd" d="M89.9517 129.106C94.6088 129 99.2849 128.966 103.98 129C104.017 132.141 103.98 135.263 103.868 138.369C103.868 135.421 103.868 132.474 103.868 129.527C103.868 129.387 103.868 129.246 103.868 129.106C99.2293 129.106 94.5904 129.106 89.9517 129.106Z" fill="#5151F9"/>
<path fill-rule="evenodd" clip-rule="evenodd" d="M136.414 129.105C137.179 128.984 137.965 128.966 138.771 129.053C138.834 129.093 138.871 129.145 138.883 129.211C138.1 129.14 137.314 129.105 136.526 129.105C136.489 129.105 136.451 129.105 136.414 129.105Z" fill="#A59148"/>
<path fill-rule="evenodd" clip-rule="evenodd" d="M89.9517 129.105C94.5904 129.105 99.2293 129.105 103.868 129.105C103.868 129.245 103.868 129.387 103.868 129.527C103.767 129.452 103.729 129.347 103.756 129.211C99.1918 129.211 94.6279 129.211 90.0639 129.211C90.0982 129.515 90.0609 129.795 89.9517 130.053C89.9517 129.737 89.9517 129.421 89.9517 129.105Z" fill="#5271FF"/>
<path fill-rule="evenodd" clip-rule="evenodd" d="M221.035 129.105C221.035 129.071 221.035 129.035 221.035 129C221.709 129.032 222.383 129.084 223.055 129.158C223.268 129.307 223.454 129.465 223.616 129.632C222.78 129.346 221.919 129.172 221.035 129.105Z" fill="#5151F9"/>
<path fill-rule="evenodd" clip-rule="evenodd" d="M262.335 129.211C262.672 129.189 262.97 129.259 263.233 129.422C262.904 129.414 262.605 129.345 262.335 129.211Z" fill="#5151F9"/>
<path fill-rule="evenodd" clip-rule="evenodd" d="M265.926 130.474C266.229 130.492 266.417 130.632 266.487 130.895C266.275 130.779 266.088 130.638 265.926 130.474Z" fill="#5151F9"/>
<path fill-rule="evenodd" clip-rule="evenodd" d="M136.414 129.105C136.451 129.105 136.49 129.105 136.527 129.105C136.495 133.738 136.532 138.37 136.639 143C136.547 142.74 136.491 142.459 136.471 142.158C136.414 137.808 136.395 133.456 136.414 129.105Z" fill="#5151F9"/>
<path fill-rule="evenodd" clip-rule="evenodd" d="M190.284 131.315C190.35 131.786 190.275 132.207 190.059 132.579C189.993 132.108 190.068 131.687 190.284 131.315Z" fill="#C8B05F"/>
<path fill-rule="evenodd" clip-rule="evenodd" d="M221.035 129C221.035 129.035 221.035 129.071 221.035 129.105C220.586 129.105 220.137 129.105 219.688 129.105C219.669 133.386 219.688 137.666 219.744 141.947C219.796 142.405 219.852 142.861 219.912 143.316C219.737 142.961 219.644 142.576 219.632 142.158C219.576 137.772 219.556 133.386 219.576 129C220.061 129 220.549 129 221.035 129Z" fill="#B6A25E"/>
<path fill-rule="evenodd" clip-rule="evenodd" d="M267.273 131.526C267.479 131.64 267.704 131.728 267.946 131.79C267.895 131.833 267.858 131.885 267.834 131.947C268.16 132.487 268.421 133.048 268.62 133.632C268.22 132.905 267.771 132.203 267.273 131.526Z" fill="#C3A94A"/>
<path fill-rule="evenodd" clip-rule="evenodd" d="M190.06 133C190.079 133.387 190.06 133.774 190.003 134.158C189.961 134.217 189.905 134.252 189.835 134.263C189.817 133.815 189.892 133.394 190.06 133Z" fill="#A59450"/>
<path fill-rule="evenodd" clip-rule="evenodd" d="M226.871 133C227.059 133.132 227.208 133.306 227.32 133.526C227.397 133.471 227.453 133.401 227.488 133.316C227.346 133.876 227.44 134.402 227.768 134.895C227.856 134.628 227.893 134.382 227.881 134.158C227.86 134.962 227.899 135.769 227.993 136.579C227.691 135.392 227.317 134.198 226.871 133Z" fill="#5151F9"/>
<path fill-rule="evenodd" clip-rule="evenodd" d="M268.62 133.842C268.78 133.882 268.873 133.987 268.9 134.158C269.025 134.535 269.081 134.921 269.069 135.315C268.922 134.835 268.772 134.344 268.62 133.842Z" fill="#C1AD61"/>
<path fill-rule="evenodd" clip-rule="evenodd" d="M157.289 135.526C157.289 135.386 157.289 135.245 157.289 135.105C156.987 135.088 156.688 135.105 156.391 135.158C156.327 135.262 156.253 135.35 156.166 135.421C156.147 135.282 156.184 135.159 156.279 135.053C156.651 135 157.025 134.982 157.401 135C157.432 135.201 157.395 135.377 157.289 135.526Z" fill="#BCAB7C"/>
<path fill-rule="evenodd" clip-rule="evenodd" d="M144.046 133.947C144.186 133.956 144.279 134.025 144.326 134.158C144.427 134.551 144.559 134.938 144.719 135.316C144.794 135.21 144.869 135.105 144.944 135C144.981 135.053 145.019 135.105 145.056 135.158C144.888 135.41 144.812 135.691 144.832 136C144.892 136.473 144.929 136.946 144.944 137.421C144.907 137.421 144.869 137.421 144.832 137.421C144.688 136.237 144.426 135.079 144.046 133.947Z" fill="#5151F9"/>
<path fill-rule="evenodd" clip-rule="evenodd" d="M239.44 135.105C239.791 135.002 240.165 134.967 240.563 135C240.596 135.452 240.522 135.873 240.338 136.263C240.338 135.877 240.338 135.492 240.338 135.105C240.039 135.105 239.74 135.105 239.44 135.105Z" fill="#5151F9"/>
<path fill-rule="evenodd" clip-rule="evenodd" d="M261.886 129.21C261.175 129.21 260.464 129.21 259.754 129.21C259.754 133.561 259.754 137.913 259.754 142.263C259.641 137.895 259.604 133.509 259.641 129.105C260.41 129.072 261.159 129.106 261.886 129.21Z" fill="#5151F9"/>
<path fill-rule="evenodd" clip-rule="evenodd" d="M189.835 134.474C189.798 135.105 189.76 135.737 189.723 136.368C189.611 136.368 189.498 136.368 189.386 136.368C189.495 135.716 189.644 135.084 189.835 134.474Z" fill="#C9AB41"/>
<path fill-rule="evenodd" clip-rule="evenodd" d="M239.44 135.211C239.402 135.585 239.327 135.953 239.216 136.316C239.178 136.425 239.103 136.477 238.991 136.474C239.077 136.024 239.226 135.603 239.44 135.211Z" fill="#BDA34B"/>
<path fill-rule="evenodd" clip-rule="evenodd" d="M189.386 136.368C189.423 136.656 189.348 136.901 189.162 137.105C189.186 136.834 189.262 136.589 189.386 136.368Z" fill="#B29D5C"/>
<path fill-rule="evenodd" clip-rule="evenodd" d="M269.293 136.368C269.505 136.63 269.579 136.946 269.518 137.316C269.518 137.456 269.518 137.597 269.518 137.737C269.518 137.771 269.518 137.807 269.518 137.842C269.353 137.377 269.277 136.885 269.293 136.368Z" fill="#BDAD66"/>
<path fill-rule="evenodd" clip-rule="evenodd" d="M144.832 137.421C144.869 137.421 144.907 137.421 144.944 137.421C144.98 137.584 145.092 137.654 145.28 137.631C145.505 137.631 145.729 137.631 145.954 137.631C145.604 137.735 145.229 137.769 144.832 137.737C144.832 137.631 144.832 137.526 144.832 137.421Z" fill="#695D38"/>
<path fill-rule="evenodd" clip-rule="evenodd" d="M155.718 136.789C155.684 137.107 155.628 137.423 155.549 137.736C155.316 138.07 155.072 138.386 154.82 138.684C155.1 138.032 155.399 137.401 155.718 136.789Z" fill="#BEA23F"/>
<path fill-rule="evenodd" clip-rule="evenodd" d="M238.767 137.105C238.785 137.284 238.766 137.46 238.711 137.632C238.537 137.941 238.332 138.222 238.094 138.474C238.234 137.97 238.458 137.514 238.767 137.105Z" fill="#BBA24F"/>
<path fill-rule="evenodd" clip-rule="evenodd" d="M197.691 139C197.653 139.284 197.503 139.495 197.242 139.632C197.336 139.384 197.486 139.174 197.691 139Z" fill="#A79874"/>
<path fill-rule="evenodd" clip-rule="evenodd" d="M188.488 139C188.444 139.339 188.294 139.62 188.04 139.842C188.127 139.522 188.276 139.241 188.488 139Z" fill="#A9945E"/>
<path fill-rule="evenodd" clip-rule="evenodd" d="M103.868 139C104.017 139.522 104.092 140.083 104.092 140.684C104.073 141.245 104.055 141.807 104.036 142.368C104.005 142.465 103.949 142.535 103.868 142.579C103.868 141.386 103.868 140.193 103.868 139Z" fill="#C7AD56"/>
<path fill-rule="evenodd" clip-rule="evenodd" d="M154.147 139.737C154.135 140.184 153.911 140.465 153.473 140.579C153.658 140.267 153.883 139.986 154.147 139.737Z" fill="#CBAA44"/>
<path fill-rule="evenodd" clip-rule="evenodd" d="M236.971 140.263C236.831 140.518 236.663 140.765 236.466 141C236.304 141.206 236.098 141.347 235.849 141.421C236.198 141.01 236.572 140.625 236.971 140.263Z" fill="#AF9B4B"/>
<path fill-rule="evenodd" clip-rule="evenodd" d="M196.232 140.789C195.858 141.35 195.371 141.807 194.773 142.157C195.222 141.666 195.708 141.21 196.232 140.789Z" fill="#5151F9"/>
<path fill-rule="evenodd" clip-rule="evenodd" d="M156.728 139.526C156.609 140.544 156.479 141.561 156.335 142.579C156.309 142.71 156.253 142.815 156.167 142.895C156.259 141.743 156.445 140.621 156.728 139.526Z" fill="#CAB680"/>
<path fill-rule="evenodd" clip-rule="evenodd" d="M239.552 141.737C239.458 142.617 239.346 143.494 239.216 144.369C239.146 144.325 239.108 144.255 239.104 144.158C239.139 143.31 239.289 142.503 239.552 141.737Z" fill="#5151F9"/>
<path fill-rule="evenodd" clip-rule="evenodd" d="M126.875 113.842C126.987 123.333 127.024 132.842 126.987 142.368C126.958 142.965 126.921 143.562 126.875 144.158C126.763 144.158 126.65 144.158 126.538 144.158C126.697 143.608 126.792 143.047 126.819 142.473C126.875 132.929 126.894 123.386 126.875 113.842Z" fill="#A99654"/>
<path fill-rule="evenodd" clip-rule="evenodd" d="M153.473 140.579C153.356 140.778 153.356 140.971 153.473 141.158C153.262 141.181 153.074 141.251 152.912 141.369C153.086 141.732 152.973 141.995 152.575 142.158C152.419 142.038 152.27 142.038 152.126 142.158C152.248 142.275 152.248 142.38 152.126 142.474C151.78 142.23 151.593 142.335 151.565 142.79C151.453 142.79 151.34 142.79 151.228 142.79C151.228 142.895 151.228 143 151.228 143.105C151.08 143.123 150.949 143.089 150.835 143C150.728 143.114 150.635 143.237 150.555 143.369C150.288 143.375 150.213 143.463 150.33 143.632C150.171 143.742 150.003 143.742 149.825 143.632C149.44 143.77 149.048 143.875 148.647 143.948C150.556 143.21 152.165 142.086 153.473 140.579Z" fill="#5151F9"/>
<path fill-rule="evenodd" clip-rule="evenodd" d="M156.167 143.105C156.162 143.551 156.087 143.972 155.942 144.369C155.876 143.898 155.951 143.477 156.167 143.105Z" fill="#C8AB48"/>
<path fill-rule="evenodd" clip-rule="evenodd" d="M259.866 143.632C260.067 143.835 260.179 144.08 260.202 144.369C260.002 144.166 259.889 143.92 259.866 143.632Z" fill="#AC965D"/>
<path fill-rule="evenodd" clip-rule="evenodd" d="M113.632 143.737C113.827 143.936 113.939 144.183 113.969 144.474C113.75 144.283 113.637 144.037 113.632 143.737Z" fill="#5151F9"/>
<path fill-rule="evenodd" clip-rule="evenodd" d="M147.862 144.158C147.849 144.223 147.812 144.276 147.75 144.316C147.528 144.369 147.304 144.386 147.076 144.369C147.312 144.252 147.573 144.181 147.862 144.158Z" fill="#5151F9"/>
<path fill-rule="evenodd" clip-rule="evenodd" d="M146.964 144.368C146.746 144.543 146.485 144.613 146.178 144.579C146.404 144.429 146.666 144.359 146.964 144.368Z" fill="#AA9548"/>
<path fill-rule="evenodd" clip-rule="evenodd" d="M210.036 142.789C210.045 143.179 210.008 143.565 209.924 143.947C209.871 144.232 209.721 144.443 209.475 144.579C209.746 144.001 209.933 143.404 210.036 142.789Z" fill="#C3AB58"/>
<path fill-rule="evenodd" clip-rule="evenodd" d="M260.203 144.474C260.352 144.474 260.502 144.474 260.652 144.474C260.665 144.732 260.777 144.942 260.988 145.105C260.657 144.969 260.395 144.759 260.203 144.474Z" fill="#BFB590"/>
<path fill-rule="evenodd" clip-rule="evenodd" d="M182.877 144.368C182.887 144.473 182.849 144.561 182.764 144.631C182.206 144.71 181.644 144.763 181.081 144.789C181.657 144.61 182.255 144.47 182.877 144.368Z" fill="#5151F9"/>
<path fill-rule="evenodd" clip-rule="evenodd" d="M137.873 144.474C138.275 144.524 138.65 144.629 138.995 144.789C138.567 144.82 138.192 144.715 137.873 144.474Z" fill="#B2A774"/>
<path fill-rule="evenodd" clip-rule="evenodd" d="M145.954 144.579C145.906 144.655 145.832 144.708 145.729 144.737C145.281 144.79 144.832 144.808 144.382 144.79C144.883 144.67 145.407 144.599 145.954 144.579Z" fill="#5151F9"/>
<path fill-rule="evenodd" clip-rule="evenodd" d="M230.125 144.368C230.021 144.453 229.909 144.542 229.789 144.631C229.305 144.709 228.818 144.762 228.33 144.789C228.904 144.614 229.502 144.474 230.125 144.368Z" fill="#BEA64D"/>
<path fill-rule="evenodd" clip-rule="evenodd" d="M155.942 144.685C155.95 145.097 155.875 145.484 155.718 145.842C155.699 145.49 155.718 145.139 155.774 144.79C155.816 144.731 155.872 144.696 155.942 144.685Z" fill="#BFA84D"/>
<path fill-rule="evenodd" clip-rule="evenodd" d="M209.475 144.579C209.437 144.808 209.325 145.001 209.139 145.158C209.154 145.239 209.192 145.31 209.251 145.369C208.848 145.879 208.436 146.002 208.016 145.737C206.946 146.103 205.823 146.243 204.649 146.158C205.259 145.984 205.894 145.879 206.557 145.842C207.728 145.804 208.701 145.383 209.475 144.579Z" fill="#5151F9"/>
<path fill-rule="evenodd" clip-rule="evenodd" d="M78.0551 145.632C78.0427 145.697 78.0053 145.75 77.9429 145.79C77.7215 145.842 77.497 145.859 77.2695 145.842C77.5116 145.747 77.7734 145.677 78.0551 145.632Z" fill="#5151F9"/>
<path fill-rule="evenodd" clip-rule="evenodd" d="M124.63 145.632C124.374 145.813 124.075 145.883 123.732 145.842C124.009 145.734 124.308 145.663 124.63 145.632Z" fill="#5151F9"/>
<path fill-rule="evenodd" clip-rule="evenodd" d="M76.9327 145.842C76.9327 145.912 76.8953 145.947 76.8205 145.947C76.1845 145.947 75.5486 145.947 74.9126 145.947C74.9126 146.263 74.9126 146.579 74.9126 146.894C74.8027 146.566 74.7652 146.214 74.8003 145.842C75.5111 145.842 76.2219 145.842 76.9327 145.842Z" fill="#44340D"/>
<path fill-rule="evenodd" clip-rule="evenodd" d="M263.121 145.842C263.869 145.842 264.617 145.842 265.365 145.842C265.4 146.214 265.363 146.566 265.253 146.894C265.253 146.579 265.253 146.263 265.253 145.947C264.58 145.947 263.906 145.947 263.233 145.947C263.158 145.947 263.121 145.912 263.121 145.842Z" fill="#594712"/>
<path fill-rule="evenodd" clip-rule="evenodd" d="M239.104 144.685C239.119 145.092 239.082 145.496 238.992 145.895C238.971 146.04 238.896 146.128 238.767 146.158C238.879 145.662 238.992 145.172 239.104 144.685Z" fill="#5151F9"/>
<path fill-rule="evenodd" clip-rule="evenodd" d="M206.557 145.842C205.894 145.879 205.259 145.984 204.649 146.158C204.649 146.403 204.649 146.649 204.649 146.894C204.436 146.595 204.361 146.245 204.425 145.842C205.135 145.842 205.847 145.842 206.557 145.842Z" fill="#5151F9"/>
<path fill-rule="evenodd" clip-rule="evenodd" d="M177.714 146.685C179.21 146.685 180.707 146.685 182.203 146.685C182.191 146.75 182.154 146.802 182.091 146.842C180.595 146.895 179.099 146.913 177.602 146.895C177.602 146.86 177.602 146.825 177.602 146.79C177.677 146.79 177.714 146.755 177.714 146.685Z" fill="#AA9240"/>
<path fill-rule="evenodd" clip-rule="evenodd" d="M93.3181 145.842C94.0664 145.842 94.8145 145.842 95.5627 145.842C95.5627 146.192 95.5627 146.544 95.5627 146.894C88.6794 146.894 81.7959 146.894 74.9126 146.894C74.9126 146.579 74.9126 146.263 74.9126 145.947C75.5486 145.947 76.1845 145.947 76.8205 145.947C76.2436 146.051 75.645 146.086 75.0248 146.052C75.0248 146.298 75.0248 146.544 75.0248 146.789C81.8334 146.789 88.6419 146.789 95.4505 146.789C95.4505 146.544 95.4505 146.298 95.4505 146.052C94.6924 146.118 93.9816 146.048 93.3181 145.842Z" fill="#5151F9"/>
<path fill-rule="evenodd" clip-rule="evenodd" d="M101.623 145.632C101.615 145.764 101.54 145.851 101.399 145.895C100.431 146.022 99.4581 146.074 98.4808 146.053C98.4808 146.298 98.4808 146.545 98.4808 146.79C105.289 146.79 112.098 146.79 118.906 146.79C118.906 146.545 118.906 146.298 118.906 146.053C118.269 146.071 117.634 146.053 116.999 146C116.936 145.96 116.899 145.908 116.886 145.843C117.635 145.843 118.382 145.843 119.131 145.843C119.131 146.193 119.131 146.545 119.131 146.895C112.173 146.895 105.215 146.895 98.2563 146.895C98.2563 146.545 98.2563 146.193 98.2563 145.843C99.2297 145.86 100.202 145.843 101.174 145.79C101.294 145.665 101.443 145.612 101.623 145.632Z" fill="#5151F9"/>
<path fill-rule="evenodd" clip-rule="evenodd" d="M123.396 145.842C123.383 145.907 123.346 145.96 123.283 146C122.686 146.052 122.087 146.07 121.488 146.052C121.488 146.298 121.488 146.544 121.488 146.789C132.823 146.789 144.158 146.789 155.493 146.789C155.44 146.518 155.514 146.307 155.718 146.158C155.747 146.399 155.709 146.627 155.605 146.842C144.195 146.894 132.786 146.912 121.375 146.894C121.375 146.544 121.375 146.192 121.375 145.842C122.049 145.842 122.722 145.842 123.396 145.842Z" fill="#5151F9"/>
<path fill-rule="evenodd" clip-rule="evenodd" d="M163.124 145.842C163.112 145.907 163.075 145.96 163.012 146C162.34 146.052 161.667 146.07 160.992 146.052C160.992 146.298 160.992 146.544 160.992 146.789C166.528 146.789 172.066 146.789 177.602 146.789C177.602 146.824 177.602 146.86 177.602 146.894C172.028 146.894 166.454 146.894 160.88 146.894C160.88 146.544 160.88 146.192 160.88 145.842C161.628 145.842 162.376 145.842 163.124 145.842Z" fill="#5151F9"/>
<path fill-rule="evenodd" clip-rule="evenodd" d="M246.735 145.842C246.723 145.907 246.686 145.96 246.623 146C245.988 146.052 245.353 146.07 244.715 146.052C244.715 146.298 244.715 146.544 244.715 146.789C251.524 146.789 258.332 146.789 265.141 146.789C265.141 146.544 265.141 146.298 265.141 146.052C264.483 146.086 263.848 146.051 263.233 145.947C263.906 145.947 264.58 145.947 265.253 145.947C265.253 146.263 265.253 146.579 265.253 146.894C258.37 146.894 251.486 146.894 244.603 146.894C244.603 146.544 244.603 146.192 244.603 145.842C245.313 145.842 246.025 145.842 246.735 145.842Z" fill="#5151F9"/>
<path fill-rule="evenodd" clip-rule="evenodd" d="M220.137 160.895C222.62 160.753 224.285 161.77 225.131 163.948C225.316 167.458 223.539 169.09 219.8 168.842C217.467 167.993 216.438 166.396 216.714 164.053C217.249 162.411 218.389 161.358 220.137 160.895Z" fill="#020202"/>
<path fill-rule="evenodd" clip-rule="evenodd" d="M143.036 209C143.036 208.684 143.036 208.368 143.036 208.052C143.47 208.085 143.882 208.05 144.27 207.947C145.174 207.998 146.034 207.84 146.852 207.473C147.432 207.141 147.694 206.65 147.637 206C147.628 205.659 147.572 205.326 147.469 205C146.495 202.821 145.522 200.646 144.551 198.473C139.863 198.333 135.168 198.333 130.466 198.473C129.518 200.316 128.714 202.211 128.053 204.158C127.693 205.992 128.459 207.167 130.354 207.684C131.321 207.825 132.294 207.913 133.272 207.947C133.272 208.298 133.272 208.649 133.272 209C128.858 209 124.443 209 120.029 209C120.029 208.649 120.029 208.298 120.029 207.947C122.026 207.669 123.542 206.722 124.574 205.105C124.874 204.613 125.172 204.123 125.472 203.631C130.778 192.835 135.96 181.993 141.016 171.105C141.243 171.088 141.468 171.105 141.689 171.158C146.464 181.226 151.197 191.313 155.886 201.421C156.677 203.15 157.612 204.799 158.692 206.368C159.577 207.389 160.719 207.915 162.115 207.947C162.115 208.298 162.115 208.649 162.115 209C155.755 209 149.396 209 143.036 209Z" fill="#010101"/>
<path fill-rule="evenodd" clip-rule="evenodd" d="M86.3604 171.842C98.1818 171.842 110.003 171.842 121.825 171.842C121.825 175.175 121.825 178.508 121.825 181.842C121.488 181.842 121.151 181.842 120.815 181.842C119.576 175.562 115.572 172.93 108.806 173.947C108.787 184.333 108.806 194.719 108.862 205.105C109.07 206.633 109.987 207.564 111.612 207.894C112.547 207.947 113.482 207.965 114.418 207.947C114.418 208.298 114.418 208.649 114.418 209C107.534 209 100.651 209 93.7675 209C93.7675 208.684 93.7675 208.368 93.7675 208.052C94.2761 208.086 94.7625 208.05 95.2264 207.947C96.5829 208.028 97.724 207.607 98.6494 206.684C98.799 206.403 98.9487 206.123 99.0983 205.842C99.2644 195.212 99.3205 184.581 99.2667 173.947C97.542 173.911 95.8212 173.964 94.1041 174.105C92.3297 174.308 90.8895 175.063 89.7833 176.368C88.4699 178 87.6656 179.825 87.3704 181.842C87.0337 181.842 86.697 181.842 86.3604 181.842C86.3604 178.508 86.3604 175.175 86.3604 171.842Z" fill="#010101"/>
<path fill-rule="evenodd" clip-rule="evenodd" d="M193.314 172.894C193.117 172.793 192.892 172.759 192.641 172.789C192.641 172.473 192.641 172.158 192.641 171.842C197.766 171.842 202.891 171.842 208.016 171.842C208.016 172.192 208.016 172.544 208.016 172.894C206.236 172.855 204.665 173.364 203.303 174.421C198.047 178.218 192.884 182.112 187.815 186.105C193.099 192.488 198.505 198.786 204.032 205C204.969 205.949 206.035 206.739 207.231 207.368C208.107 207.81 209.043 208.004 210.036 207.947C210.036 208.298 210.036 208.649 210.036 209C203.153 209 196.269 209 189.386 209C189.386 208.649 189.386 208.298 189.386 207.947C190.238 207.918 191.061 207.76 191.855 207.473C192.65 206.806 192.743 206.051 192.136 205.21C191.48 204.191 190.77 203.209 190.004 202.263C186.896 198.647 183.791 195.032 180.689 191.421C180.221 191.746 179.772 192.097 179.342 192.473C179.234 196.932 179.271 201.389 179.454 205.842C179.806 206.733 180.461 207.348 181.418 207.684C182.301 207.887 183.199 207.974 184.112 207.947C184.112 208.298 184.112 208.649 184.112 209C177.453 209 170.793 209 164.135 209C164.135 208.649 164.135 208.298 164.135 207.947C165.309 208.006 166.469 207.918 167.614 207.684C168.531 207.386 169.148 206.807 169.466 205.947C169.53 205.489 169.605 205.033 169.69 204.579C169.765 195.105 169.765 185.631 169.69 176.158C169.638 174.214 168.572 173.144 166.492 172.947C165.707 172.894 164.921 172.877 164.135 172.894C164.135 172.544 164.135 172.192 164.135 171.842C170.719 171.842 177.303 171.842 183.887 171.842C183.887 172.192 183.887 172.544 183.887 172.894C182.306 172.663 180.978 173.084 179.903 174.158C179.694 174.409 179.545 174.689 179.454 175C179.326 177.522 179.27 180.048 179.286 182.579C179.323 184.929 179.361 187.281 179.398 189.631C184.282 185.909 189.183 182.208 194.1 178.526C195.343 177.677 196.297 176.606 196.962 175.315C197.092 174.102 196.512 173.347 195.222 173.052C194.589 172.958 193.954 172.905 193.314 172.894Z" fill="#010101"/>
<path fill-rule="evenodd" clip-rule="evenodd" d="M210.598 171.842C217.481 171.842 224.365 171.842 231.248 171.842C231.248 172.158 231.248 172.473 231.248 172.789C230.516 172.755 229.805 172.79 229.115 172.894C227.397 172.982 226.293 173.789 225.805 175.315C225.676 180.261 225.619 185.208 225.636 190.158C225.655 194.824 225.673 199.491 225.692 204.158C225.614 206.452 226.792 207.715 229.228 207.947C229.88 208.051 230.553 208.086 231.248 208.052C231.248 208.368 231.248 208.684 231.248 209C224.365 209 217.481 209 210.598 209C210.598 208.684 210.598 208.368 210.598 208.052C211.106 208.086 211.593 208.05 212.057 207.947C214.908 208.027 216.274 206.728 216.153 204.052C216.262 194.471 216.225 184.892 216.041 175.315C215.834 174.244 215.179 173.525 214.077 173.158C213.49 172.994 212.892 172.907 212.281 172.894C211.741 172.79 211.18 172.755 210.598 172.789C210.598 172.473 210.598 172.158 210.598 171.842Z" fill="black"/>
<path fill-rule="evenodd" clip-rule="evenodd" d="M234.166 171.842C240.6 171.824 247.035 171.842 253.469 171.894C256.626 171.933 259.619 172.6 262.447 173.894C267.026 176.799 268.392 180.71 266.544 185.631C264.85 188.795 262.137 190.743 258.407 191.473C257.554 191.654 256.693 191.794 255.826 191.894C253.472 192.068 251.115 192.155 248.755 192.157C248.736 196.123 248.755 200.087 248.811 204.052C248.578 206.303 249.644 207.584 252.01 207.894C252.757 207.947 253.506 207.965 254.254 207.947C254.254 208.297 254.254 208.649 254.254 209C247.558 209 240.862 209 234.166 209C234.166 208.649 234.166 208.297 234.166 207.947C235.627 208.105 237.012 207.876 238.318 207.263C238.896 206.88 239.27 206.371 239.44 205.736C239.578 205.232 239.671 204.706 239.721 204.157C239.814 195.017 239.796 185.894 239.665 176.789C239.688 175.756 239.408 174.809 238.823 173.947C237.876 173.189 236.771 172.837 235.512 172.894C235.086 172.791 234.637 172.755 234.166 172.789C234.166 172.473 234.166 172.157 234.166 171.842Z" fill="black"/>
<path fill-rule="evenodd" clip-rule="evenodd" d="M86.36 171.842C86.36 175.175 86.36 178.508 86.36 181.842C86.6967 181.842 87.0334 181.842 87.3701 181.842C87.0194 181.945 86.6453 181.98 86.2478 181.947C86.2106 178.561 86.248 175.192 86.36 171.842Z" fill="#5151F9"/>
<path fill-rule="evenodd" clip-rule="evenodd" d="M121.825 171.842C121.937 175.192 121.974 178.561 121.937 181.947C121.539 181.98 121.165 181.945 120.814 181.842C121.151 181.842 121.488 181.842 121.825 181.842C121.825 178.508 121.825 175.175 121.825 171.842Z" fill="#787878"/>
<path fill-rule="evenodd" clip-rule="evenodd" d="M192.641 171.842C192.641 172.158 192.641 172.473 192.641 172.789C192.892 172.759 193.117 172.793 193.314 172.894C193.053 172.894 192.79 172.894 192.529 172.894C192.494 172.522 192.531 172.17 192.641 171.842Z" fill="#4D4D4D"/>
<path fill-rule="evenodd" clip-rule="evenodd" d="M210.598 171.842C210.598 172.158 210.598 172.473 210.598 172.789C211.18 172.755 211.741 172.79 212.281 172.894C211.683 172.894 211.083 172.894 210.485 172.894C210.45 172.522 210.488 172.17 210.598 171.842Z" fill="#7D7D7D"/>
<path fill-rule="evenodd" clip-rule="evenodd" d="M231.248 171.842C231.358 172.17 231.395 172.522 231.36 172.894C230.611 172.894 229.864 172.894 229.115 172.894C229.804 172.79 230.516 172.755 231.248 172.789C231.248 172.473 231.248 172.158 231.248 171.842Z" fill="#6F6F6F"/>
<path fill-rule="evenodd" clip-rule="evenodd" d="M234.165 171.842C234.165 172.158 234.165 172.473 234.165 172.789C234.637 172.755 235.086 172.791 235.512 172.894C235.026 172.894 234.539 172.894 234.053 172.894C234.018 172.522 234.055 172.17 234.165 171.842Z" fill="#6E6E6E"/>
<path fill-rule="evenodd" clip-rule="evenodd" d="M251 174.052C250.289 174.052 249.578 174.052 248.867 174.052C248.867 179.386 248.867 184.719 248.867 190.052C248.755 184.702 248.718 179.333 248.755 173.947C249.524 173.913 250.272 173.948 251 174.052Z" fill="#C3C3C3"/>
<path fill-rule="evenodd" clip-rule="evenodd" d="M251 174.053C254.845 174.325 257.014 176.256 257.509 179.842C257.659 181.176 257.659 182.509 257.509 183.842C257.239 187.305 255.294 189.358 251.673 190C250.739 190.053 249.804 190.071 248.868 190.053C248.868 184.719 248.868 179.386 248.868 174.053C249.578 174.053 250.29 174.053 251 174.053Z" fill="#FEFEFE"/>
<path fill-rule="evenodd" clip-rule="evenodd" d="M239.665 176.789C239.796 185.894 239.814 195.017 239.721 204.157C239.672 204.706 239.578 205.232 239.44 205.736C239.467 205.139 239.523 204.542 239.609 203.947C239.665 194.894 239.684 185.842 239.665 176.789Z" fill="#1E1E1E"/>
<path fill-rule="evenodd" clip-rule="evenodd" d="M257.509 179.842C257.682 180.447 257.757 181.079 257.734 181.737C257.751 182.463 257.676 183.164 257.509 183.842C257.659 182.508 257.659 181.175 257.509 179.842Z" fill="#545454"/>
<path fill-rule="evenodd" clip-rule="evenodd" d="M143.485 196.369C139.501 196.403 135.534 196.369 131.588 196.263C133.559 192.039 135.561 187.829 137.593 183.632C139.588 187.86 141.552 192.106 143.485 196.369Z" fill="white"/>
<path fill-rule="evenodd" clip-rule="evenodd" d="M131.588 196.263C135.534 196.368 139.5 196.403 143.485 196.368C139.5 196.508 135.497 196.508 131.476 196.368C131.49 196.304 131.528 196.269 131.588 196.263Z" fill="#3F3F3F"/>
<path fill-rule="evenodd" clip-rule="evenodd" d="M300.829 206.685C300.849 214.545 300.829 222.404 300.773 230.264C300.753 230.705 300.697 231.126 300.605 231.527C300.676 223.229 300.75 214.949 300.829 206.685Z" fill="#5271FF"/>
<path fill-rule="evenodd" clip-rule="evenodd" d="M300.829 206.685C307.6 206.685 314.372 206.685 321.143 206.685C321.162 218.229 321.143 229.772 321.087 241.316C321.068 242.037 321.012 242.738 320.918 243.421C320.918 231.316 320.918 219.211 320.918 207.106C320.337 207.099 320.337 207.03 320.918 206.895C314.297 206.79 307.675 206.755 301.054 206.79C301.035 214.614 301.054 222.439 301.11 230.264C301.236 230.559 301.292 230.875 301.278 231.211C301.292 231.547 301.236 231.862 301.11 232.158C301.091 231.558 301.035 230.962 300.942 230.369C300.901 231.076 300.789 231.742 300.605 232.369C300.605 232.088 300.605 231.808 300.605 231.527C300.697 231.126 300.753 230.705 300.773 230.264C300.829 222.404 300.849 214.545 300.829 206.685Z" fill="#5151F9"/>
<path fill-rule="evenodd" clip-rule="evenodd" d="M327.091 207.105C327.091 219.702 327.091 232.298 327.091 244.895C327.091 244.965 327.091 245.035 327.091 245.105C327.016 245.913 326.942 246.719 326.867 247.527C326.936 234.036 327.011 220.562 327.091 207.105Z" fill="#5271FF"/>
<path fill-rule="evenodd" clip-rule="evenodd" d="M347.068 259.316C347.031 259.316 346.992 259.316 346.955 259.316C346.955 241.808 346.955 224.298 346.955 206.79C340.371 206.79 333.788 206.79 327.203 206.79C327.24 219.509 327.203 232.211 327.091 244.895C327.091 232.298 327.091 219.702 327.091 207.106C327.091 206.966 327.091 206.825 327.091 206.685C333.788 206.685 340.483 206.685 347.18 206.685C347.217 224.246 347.18 241.79 347.068 259.316Z" fill="#5151F9"/>
<path fill-rule="evenodd" clip-rule="evenodd" d="M229.228 207.947C229.938 207.947 230.649 207.947 231.36 207.947C231.395 208.32 231.358 208.671 231.248 209C231.248 208.684 231.248 208.368 231.248 208.053C230.553 208.086 229.88 208.051 229.228 207.947Z" fill="#5E5E5E"/>
<path fill-rule="evenodd" clip-rule="evenodd" d="M212.056 207.947C211.593 208.05 211.106 208.086 210.598 208.053C210.598 208.368 210.598 208.684 210.598 209C210.488 208.671 210.45 208.32 210.485 207.947C211.009 207.947 211.532 207.947 212.056 207.947Z" fill="#5151F9"/>
<path fill-rule="evenodd" clip-rule="evenodd" d="M95.226 207.947C94.7621 208.05 94.2757 208.086 93.7671 208.053C93.7671 208.368 93.7671 208.684 93.7671 209C93.6572 208.671 93.6197 208.32 93.6548 207.947C94.1786 207.947 94.7023 207.947 95.226 207.947Z" fill="#464646"/>
<path fill-rule="evenodd" clip-rule="evenodd" d="M144.27 207.947C143.882 208.05 143.47 208.085 143.035 208.053C143.035 208.368 143.035 208.684 143.035 209C142.926 208.671 142.888 208.32 142.923 207.947C143.372 207.947 143.821 207.947 144.27 207.947Z" fill="#686868"/>
<path fill-rule="evenodd" clip-rule="evenodd" d="M320.806 244.579C320.825 245.072 320.806 245.563 320.75 246.053C320.707 246.112 320.651 246.146 320.582 246.158C320.594 245.61 320.669 245.083 320.806 244.579Z" fill="#5271FF"/>
<path fill-rule="evenodd" clip-rule="evenodd" d="M327.091 245.105C327.112 246.337 327.056 247.564 326.923 248.79C326.88 248.849 326.824 248.883 326.754 248.895C326.852 248.445 326.89 247.99 326.867 247.527C326.942 246.719 327.016 245.913 327.091 245.105Z" fill="#5151F9"/>
<path fill-rule="evenodd" clip-rule="evenodd" d="M319.123 251.737C319.131 252.307 318.943 252.798 318.562 253.211C318.691 252.691 318.877 252.2 319.123 251.737Z" fill="#5151F9"/>
<path fill-rule="evenodd" clip-rule="evenodd" d="M346.956 259.315C346.993 259.315 347.031 259.315 347.068 259.315C347.124 260.801 347.012 262.274 346.731 263.736C346.716 263.898 346.64 264.003 346.507 264.052C346.553 263.266 346.684 262.493 346.9 261.736C346.956 260.93 346.975 260.123 346.956 259.315Z" fill="#5151F9"/>
<path fill-rule="evenodd" clip-rule="evenodd" d="M95.1138 261.105C151.079 261.087 207.043 261.105 263.008 261.158C234.997 261.281 206.978 261.334 178.949 261.316C150.967 261.316 123.022 261.245 95.1138 261.105Z" fill="#F6FEFE"/>
<path fill-rule="evenodd" clip-rule="evenodd" d="M266.824 261C266.812 261.065 266.775 261.118 266.712 261.158C266.056 261.176 265.42 261.228 264.804 261.316C264.318 261.316 263.831 261.316 263.345 261.316C264.484 261.167 265.644 261.062 266.824 261Z" fill="#5151F9"/>
<path fill-rule="evenodd" clip-rule="evenodd" d="M91.5225 261C92.6605 261.202 93.8202 261.325 95.0016 261.368C151.124 261.456 207.238 261.439 263.345 261.316C263.831 261.316 264.318 261.316 264.804 261.316C208.24 261.508 151.64 261.597 95.0016 261.579C94.7994 261.613 94.7621 261.682 94.8893 261.789C94.5776 261.941 94.2784 261.941 93.9915 261.789C94.2029 261.766 94.39 261.697 94.5526 261.579C94.2466 261.493 93.9473 261.511 93.6548 261.632C93.8067 261.739 93.8815 261.88 93.8793 262.053C93.767 262.053 93.6548 262.053 93.5426 262.053C93.5602 261.908 93.5415 261.767 93.4865 261.632C93.4162 261.894 93.3227 261.894 93.2059 261.632C92.8135 261.735 92.7761 261.646 93.0937 261.368C92.5712 261.316 92.0476 261.298 91.5225 261.316C91.5225 261.211 91.5225 261.105 91.5225 261Z" fill="#5151F9"/>
<path fill-rule="evenodd" clip-rule="evenodd" d="M95.002 261.737C151.266 261.719 207.53 261.737 263.794 261.79C263.686 261.944 263.537 262.032 263.345 262.053C207.196 262.018 151.082 261.913 95.002 261.737Z" fill="#5151F9"/>
<path fill-rule="evenodd" clip-rule="evenodd" d="M80.8608 279.526C81.4128 279.608 81.9739 279.661 82.5443 279.684C114.829 279.702 147.113 279.719 179.398 279.737C211.683 279.719 243.966 279.702 276.251 279.684C276.891 279.652 277.527 279.599 278.159 279.526C278.169 279.632 278.131 279.719 278.047 279.79C212.318 279.842 146.59 279.86 80.8608 279.842C80.8608 279.737 80.8608 279.632 80.8608 279.526Z" fill="#5271FF"/>
<path fill-rule="evenodd" clip-rule="evenodd" d="M282.424 285.105C281.808 285.193 281.172 285.245 280.516 285.263C213.44 285.316 146.365 285.334 79.2895 285.316C79.2146 285.316 79.1772 285.281 79.1772 285.211C146.926 285.245 214.676 285.21 282.424 285.105Z" fill="#5151F9"/>
<path fill-rule="evenodd" clip-rule="evenodd" d="M287.25 284.579C287.241 284.711 287.167 284.798 287.025 284.842C285.981 284.992 284.934 285.115 283.883 285.211C284.214 285.297 284.551 285.35 284.893 285.369C284.856 285.403 284.818 285.439 284.781 285.474C284.114 285.662 283.441 285.82 282.76 285.948C282.07 285.891 281.397 285.769 280.74 285.579C281.753 285.561 282.763 285.509 283.771 285.421C283.246 285.386 282.723 285.351 282.199 285.316C281.619 285.301 281.058 285.354 280.516 285.474C247.221 285.492 213.927 285.509 180.632 285.526C147.337 285.509 114.043 285.492 80.7485 285.474C80.2414 285.455 79.755 285.402 79.2896 285.316C146.365 285.334 213.44 285.316 280.516 285.263C281.172 285.245 281.808 285.193 282.424 285.105C284.06 285.06 285.668 284.884 287.25 284.579Z" fill="#5151F9"/>
<path fill-rule="evenodd" clip-rule="evenodd" d="M179.622 303.632C141.24 303.561 102.895 303.632 64.5877 303.843C64.1014 303.843 63.615 303.843 63.1287 303.843C62.0791 303.719 61.0315 303.579 59.9863 303.421C60.5662 303.465 61.1274 303.394 61.6698 303.211C62.4551 303.291 63.2594 303.291 64.0827 303.211C102.554 303.404 141.03 303.491 179.51 303.474C179.573 303.514 179.61 303.567 179.622 303.632Z" fill="#5151F9"/>
<path fill-rule="evenodd" clip-rule="evenodd" d="M179.622 303.632C179.813 303.615 180.001 303.633 180.184 303.685C180.147 303.719 180.108 303.755 180.071 303.79C141.577 303.842 103.082 303.86 64.5879 303.842C102.895 303.632 141.24 303.561 179.622 303.632Z" fill="#5151F9"/>
<path fill-rule="evenodd" clip-rule="evenodd" d="M63.1289 303.842C63.6152 303.842 64.1016 303.842 64.5879 303.842C103.064 303.947 141.558 303.982 180.071 303.947C180.071 303.982 180.071 304.018 180.071 304.052C141.165 304.07 102.259 304.052 63.3534 304C63.2506 303.97 63.1758 303.918 63.1289 303.842Z" fill="#5151F9"/>
<path fill-rule="evenodd" clip-rule="evenodd" d="M294.769 303.842C266.188 303.913 237.608 303.982 209.026 304.053C199.375 304.053 189.723 304.053 180.071 304.053C180.071 304.018 180.071 303.982 180.071 303.947C218.304 303.865 256.536 303.83 294.769 303.842Z" fill="#5151F9"/>
<path fill-rule="evenodd" clip-rule="evenodd" d="M294.769 303.842C295.255 303.842 295.742 303.842 296.228 303.842C267.199 304.052 238.132 304.123 209.026 304.052C237.608 303.982 266.188 303.912 294.769 303.842Z" fill="#5151F9"/>
</svg>
