<svg width="24" height="24" viewBox="0 0 24 24" fill="none" xmlns="http://www.w3.org/2000/svg">
<g clip-path="url(#clip0_1427_4828)">
<path d="M4.5957 7.27668C4.5957 4.80903 6.59614 2.80859 9.06379 2.80859C11.5314 2.80859 13.5319 4.80903 13.5319 7.27668C13.5319 9.74433 11.5314 11.7448 9.06379 11.7448C6.59614 11.7448 4.5957 9.74433 4.5957 7.27668Z" fill="#4A4B68"/>
<path d="M14.1133 10.9695C13.884 11.2825 14.0374 11.7448 14.4254 11.7448C16.8931 11.7448 18.8935 9.74433 18.8935 7.27668C18.8935 4.80903 16.8931 2.80859 14.4254 2.80859C14.0374 2.80859 13.884 3.2709 14.1133 3.5839C14.8714 4.61883 15.319 5.89548 15.319 7.27668C15.319 8.65788 14.8714 9.93453 14.1133 10.9695Z" fill="#4A4B68"/>
<path d="M18.8935 20.6812C18.3999 20.6812 17.9998 20.2811 17.9998 19.7875V18.0003C17.9998 16.6602 17.5582 15.345 16.7672 14.274C16.5534 13.9846 16.7464 13.5322 17.1062 13.5322C18.2913 13.5322 19.4278 14.003 20.2657 14.8409C21.1036 15.6788 21.5743 16.8153 21.5743 18.0003V19.7875C21.5743 20.2811 21.1742 20.6812 20.6807 20.6812H18.8935Z" fill="#4A4B68"/>
<path d="M3.22347 14.8409C4.0614 14.003 5.19787 13.5322 6.38288 13.5322H11.7446C12.9296 13.5322 14.0661 14.003 14.904 14.8409C15.7419 15.6788 16.2127 16.8153 16.2127 18.0003V19.7875C16.2127 20.2811 15.8126 20.6812 15.3191 20.6812H2.80841C2.31489 20.6812 1.91479 20.2811 1.91479 19.7875V18.0003C1.91479 16.8153 2.38553 15.6788 3.22347 14.8409Z" fill="#4A4B68"/>
</g>
<defs>
<clipPath id="clip0_1427_4828">
<rect width="21.4468" height="21.4468" fill="white" transform="translate(1.02124 1.02148)"/>
</clipPath>
</defs>
</svg>
