<svg width="24" height="24" viewBox="0 0 24 24" fill="none" xmlns="http://www.w3.org/2000/svg">
<path d="M11.7446 17.8721C12.3077 17.8721 12.7659 18.2157 12.7659 18.638C12.7659 19.0604 12.3077 19.404 11.7446 19.404C11.1814 19.404 10.7233 19.0604 10.7233 18.638C10.7233 18.2157 11.1814 17.8721 11.7446 17.8721Z" fill="#4A4B68"/>
<path d="M11.7448 13.7871C13.1306 13.7871 14.3904 14.2931 15.3191 15.115L14.0725 15.444L14.9303 17.8722H14.0741C13.7607 16.9611 12.8352 16.2988 11.7448 16.2988C10.6545 16.2988 9.72896 16.9611 9.41563 17.8722H8.55944L9.41721 15.444L8.17016 15.1149C9.09892 14.293 10.359 13.7871 11.7448 13.7871Z" fill="#4A4B68"/>
<path d="M13.8368 19.4043H15.1642L15.5444 20.5011L16.3403 20.3786C15.6993 22.0136 14.1414 23.2352 12.2552 23.4894V20.8903C13.0055 20.6667 13.5988 20.1092 13.8368 19.4043Z" fill="#4A4B68"/>
<path d="M3.68405 14.943L5.56315 10.3009C5.83596 9.62694 6.48254 9.19141 7.21042 9.19141H16.2788C17.0067 9.19141 17.6532 9.62689 17.9261 10.3009L19.8051 14.943C20.0482 15.5437 19.8784 16.2279 19.3827 16.6456L16.8074 18.8155L16.3308 18.8935L15.555 16.515L16.2482 16.3169L17.0788 16.3399L17.1159 15.0056L16.5066 14.9886C15.4044 13.5673 13.6798 12.6505 11.7446 12.6505C9.8096 12.6505 8.08562 13.5675 6.9834 14.9886L6.37335 15.0055L6.41041 16.3399L7.24102 16.3169L7.93424 16.5149L7.15847 18.8935L6.68189 18.8154L4.10655 16.6455C3.61072 16.2279 3.44095 15.5437 3.68405 14.943Z" fill="#4A4B68"/>
<path d="M8.32505 19.4043H9.65253C9.89045 20.1092 10.4838 20.6668 11.2341 20.8903V23.4894C9.34798 23.2352 7.78999 22.0136 7.14902 20.3786L7.94476 20.5011L8.32505 19.4043Z" fill="#4A4B68"/>
<path d="M11.7447 8.17021C9.48858 8.17021 7.65962 6.34125 7.65962 4.08511C7.65962 1.82896 9.48858 0 11.7447 0C14.0009 0 15.8298 1.82896 15.8298 4.08511C15.8298 6.34125 14.0009 8.17021 11.7447 8.17021Z" fill="#4A4B68"/>
</svg>
