<svg width="24" height="24" viewBox="0 0 24 24" fill="none" xmlns="http://www.w3.org/2000/svg">
<g clip-path="url(#clip0_1427_4787)">
<path d="M19.8353 15.3867C19.5673 15.242 19.2308 15.3382 19.0837 15.6015C18.9365 15.8648 19.0343 16.1956 19.3023 16.3402C19.9616 16.6962 20.3398 17.0908 20.3398 17.423C20.3398 17.8292 19.7542 18.4588 18.1105 19.0076C16.4866 19.5498 14.3165 19.8484 12 19.8484C9.68353 19.8484 7.51346 19.5498 5.88961 19.0076C4.2459 18.4588 3.66027 17.8292 3.66027 17.423C3.66027 17.0908 4.03844 16.6962 4.6978 16.3402C4.96574 16.1956 5.0636 15.8648 4.9164 15.6015C4.7692 15.3382 4.43277 15.242 4.16475 15.3866C3.4296 15.7836 2.55322 16.4591 2.55322 17.423C2.55322 18.1618 3.07029 19.2153 5.53347 20.0377C7.26902 20.6172 9.56556 20.9364 12 20.9364C14.4345 20.9364 16.731 20.6172 18.4666 20.0377C20.9298 19.2153 21.4468 18.1618 21.4468 17.423C21.4468 16.4591 20.5705 15.7836 19.8353 15.3867Z" fill="#4A4B68"/>
<path d="M7.73249 17.9497C8.87992 18.2291 10.3955 18.3831 11.9999 18.3831C13.6044 18.3831 15.1199 18.2292 16.2673 17.9497C17.6711 17.6078 18.3829 17.1129 18.3829 16.4787C18.3829 15.8446 17.6711 15.3497 16.2673 15.0078C15.9557 14.932 15.6168 14.8654 15.2565 14.8086C15.0608 15.1001 14.8558 15.4001 14.6414 15.7088C15.0402 15.7604 15.4147 15.8236 15.7547 15.8983C16.7878 16.1252 17.1652 16.3806 17.2428 16.4788C17.1652 16.577 16.7879 16.8324 15.7548 17.0592C14.7769 17.2739 13.5189 17.3964 12.1939 17.4074C12.1297 17.4115 12.065 17.4138 11.9999 17.4138C11.9348 17.4138 11.8701 17.4115 11.8059 17.4074C10.4809 17.3964 9.22286 17.274 8.24505 17.0592C7.21195 16.8324 6.83457 16.577 6.75698 16.4788C6.83457 16.3806 7.21199 16.1252 8.24508 15.8983C8.58513 15.8237 8.95958 15.7604 9.35844 15.7088C9.14407 15.4001 8.93904 15.1 8.74336 14.8086C8.38304 14.8654 8.04409 14.932 7.73249 15.0078C6.32872 15.3497 5.61694 15.8446 5.61694 16.4787C5.61694 17.1129 6.32872 17.6078 7.73249 17.9497Z" fill="#4A4B68"/>
<path d="M11.9999 16.8515C12.5133 16.8515 12.9797 16.5935 13.2476 16.1615C15.1244 13.1342 17.3616 9.14445 17.3616 7.32895C17.3616 4.41425 14.9564 2.04297 11.9999 2.04297C9.04341 2.04297 6.63818 4.41425 6.63818 7.32895C6.63818 9.14445 8.87542 13.1342 10.7522 16.1615C11.0201 16.5935 11.4865 16.8515 11.9999 16.8515ZM9.84478 6.96601C9.84478 5.79451 10.8116 4.8414 11.9999 4.8414C13.1882 4.8414 14.155 5.79451 14.155 6.96601C14.155 8.13755 13.1882 9.09065 11.9999 9.09065C10.8116 9.09065 9.84478 8.13759 9.84478 6.96601Z" fill="#4A4B68"/>
</g>
<defs>
<clipPath id="clip0_1427_4787">
<rect width="24" height="24" fill="white"/>
</clipPath>
</defs>
</svg>
