<svg width="24" height="24" viewBox="0 0 24 24" fill="none" xmlns="http://www.w3.org/2000/svg">
<g clip-path="url(#clip0_1427_4750)">
<path d="M6.65342 12.0645H5.73743C5.49713 12.0645 5.28021 12.1968 5.18515 12.4006L2.64941 17.8622L8.67148 15.0172C7.95059 14.0945 7.23734 13.0768 6.65342 12.0645Z" fill="#4A4B68"/>
<path d="M18.3042 12.4006C18.2093 12.1968 17.9922 12.0645 17.752 12.0645H16.836C15.7334 13.9758 14.1269 15.9511 13.1049 17.0378C12.3862 17.8003 11.1024 17.7995 10.3848 17.0378C10.3114 16.9598 9.92821 16.5494 9.4004 15.9184L8.3147 16.4315L12.4216 20.223L20.2033 16.4913L18.3042 12.4006Z" fill="#4A4B68"/>
<path d="M1.90863 19.4585L1.58107 20.1641C1.41152 20.5292 1.702 20.937 2.13319 20.937H10.9517C11.0069 20.8991 11.0075 20.9014 11.3036 20.7594L7.19064 16.9629L1.90863 19.4585Z" fill="#4A4B68"/>
<path d="M21.9085 20.164L20.678 17.5137L13.5396 20.9369H21.3564C21.7866 20.9369 22.0783 20.5298 21.9085 20.164Z" fill="#4A4B68"/>
<path d="M12.3455 7.03696C12.3455 6.73108 12.0759 6.48242 11.7448 6.48242C11.4135 6.48242 11.144 6.73108 11.144 7.03696C11.144 7.34269 11.4135 7.59149 11.7448 7.59149C12.0759 7.59149 12.3455 7.34269 12.3455 7.03696Z" fill="#4A4B68"/>
<path d="M12.198 16.2729C12.4003 16.0581 17.1512 10.9746 17.1512 7.4802C17.1512 0.274589 6.33813 0.186659 6.33813 7.4802C6.33813 10.9746 11.0891 16.0581 11.2913 16.2729C11.5309 16.527 11.9589 16.5267 12.198 16.2729ZM9.94243 7.03666C9.94243 6.11931 10.7509 5.37306 11.7447 5.37306C12.7383 5.37306 13.5467 6.11931 13.5467 7.03666C13.5467 7.95387 12.7383 8.70012 11.7447 8.70012C10.7509 8.70012 9.94243 7.95387 9.94243 7.03666Z" fill="#4A4B68"/>
</g>
<defs>
<clipPath id="clip0_1427_4750">
<rect width="24" height="24" fill="white"/>
</clipPath>
</defs>
</svg>
