<svg width="24" height="24" viewBox="0 0 24 24" fill="none" xmlns="http://www.w3.org/2000/svg">
<g clip-path="url(#clip0_1427_4814)">
<g clip-path="url(#clip1_1427_4814)">
<path d="M5.40422 6.72058C5.34855 6.70215 5.29306 6.70215 5.23758 6.70215C4.97839 6.70215 4.75643 6.86879 4.68233 7.1278C4.64528 7.27583 4.66389 7.42404 4.73782 7.55345C4.81192 7.68305 4.94152 7.77559 5.08955 7.83108C5.40422 7.92362 5.71872 7.73854 5.81126 7.44248C5.84831 7.29445 5.82987 7.14642 5.75577 7.01682C5.68184 6.86879 5.55225 6.77625 5.40422 6.72058Z" fill="#4A4B68"/>
<path d="M8.53209 9.42326C9.05028 9.42326 9.55004 9.29366 9.99431 9.03448C10.1794 8.9235 10.4015 8.97899 10.5125 9.16407C10.6235 9.34915 10.568 9.57129 10.3829 9.68226C9.82766 10.0156 9.17987 10.182 8.53209 10.182C8.42111 10.182 8.30995 10.182 8.19897 10.1636" fill="#4A4B68"/>
<path d="M6.77386 8.83127C7.25519 9.20144 7.8473 9.40495 8.45822 9.42357C8.88387 7.57275 7.75476 5.68487 5.8855 5.16668C5.70042 5.11119 5.51534 5.09257 5.34869 5.05552L5.95961 5.31471C5.84845 5.53684 5.77453 5.77741 5.71886 6.0366C6.03353 6.14758 6.29272 6.35109 6.45919 6.64733C6.62583 6.96201 6.68132 7.31356 6.58878 7.64667C6.42232 8.23897 5.8855 8.60914 5.2932 8.60914C5.18223 8.60914 5.05263 8.5907 4.92304 8.55365C4.57149 8.46111 4.29387 8.23897 4.10879 7.92429C3.94214 7.6098 3.88665 7.25807 3.97919 6.92496C4.10879 6.44364 4.49739 6.11052 4.94166 5.99955C4.99715 5.66643 5.08969 5.35176 5.23772 5.03708C4.49739 4.96298 3.77549 5.11119 3.10927 5.48135C2.25796 5.96249 1.64705 6.72126 1.36942 7.66529C0.94377 9.09046 1.40648 10.5711 2.51697 11.4595C2.57246 11.515 2.59107 11.5891 2.57246 11.6446L1.83213 14.4763C1.83213 14.5318 1.83213 14.5688 1.85075 14.6059L2.2764 15.5683C2.31345 15.6609 2.2764 15.7534 2.20229 15.8089L1.49902 16.2716C1.42509 16.3271 1.38804 16.4196 1.42509 16.5122L1.77664 17.2525C1.81369 17.3451 1.79526 17.4376 1.70272 17.4931L1.01788 17.9374C0.94377 17.9928 0.906717 18.0854 0.94377 18.1779L1.2955 18.9183C1.33255 19.0108 1.2955 19.1218 1.22139 19.1588L0.610658 19.4919C0.518117 19.5476 0.481064 19.6586 0.536553 19.7511L1.22139 20.9912C1.24001 21.0283 1.2955 21.0651 1.33255 21.0838H1.38804C1.42509 21.0838 1.46196 21.0838 1.48058 21.0651L2.90575 20.2323C2.94262 20.2138 2.97968 20.1768 2.99829 20.1213L5.20066 12.5514C5.21928 12.4774 5.27477 12.4219 5.34869 12.4219C6.53329 12.2553 7.62535 11.3669 8.16198 10.1823C7.47714 10.1268 6.81092 9.86766 6.25567 9.44201C6.08902 9.31241 6.05215 9.07184 6.18156 8.90538C6.36665 8.73873 6.6074 8.70168 6.77386 8.83127Z" fill="#4A4B68"/>
<path d="M5.21924 5.01827C5.81136 3.79662 7.0885 2.94531 8.5321 2.94531C10.2349 2.94531 11.734 4.14835 12.1042 5.77704C12.1412 5.98055 12.0116 6.18425 11.8081 6.22131C11.6046 6.25818 11.4009 6.12876 11.3454 5.92507C11.0493 4.62949 9.86473 3.68564 8.51367 3.68564C7.38456 3.68564 6.38522 4.33343 5.9039 5.29589" fill="#4A4B68"/>
<path d="M23.3758 12.8283L16.8794 6.40612C16.7312 6.25791 16.3242 5.9248 15.8429 5.90636L11.6415 5.51758C11.623 5.51758 11.623 5.51758 11.6046 5.51758H11.5121C11.0678 5.51758 10.6976 5.68422 10.3645 6.01734C10.0128 6.36907 9.86475 6.73923 9.86475 7.25742V7.29448L10.2349 11.4588C10.2349 11.94 10.5866 12.3288 10.7347 12.4768L17.231 18.8992C17.3051 18.9731 17.3976 19.0102 17.5086 19.0102C17.6198 19.0102 17.7123 18.9731 17.7862 18.8992L23.3942 13.3651C23.5238 13.2171 23.5238 12.9765 23.3758 12.8283ZM14.6214 12.3842C14.5289 12.3842 14.4177 12.3472 14.3438 12.2731C14.1957 12.1251 14.1957 11.8845 14.3438 11.7365L16.1946 9.90407C16.3426 9.75604 16.5832 9.75604 16.7312 9.90407C16.8794 10.0521 16.8794 10.2928 16.7312 10.4409L14.8804 12.2731C14.8065 12.3472 14.7139 12.3842 14.6214 12.3842ZM18.8967 12.5693L17.0459 14.4015C16.972 14.4756 16.8794 14.5127 16.7683 14.5127C16.6573 14.5127 16.5648 14.4756 16.4907 14.4015C16.3426 14.2535 16.3426 14.0129 16.4907 13.8649L18.3415 12.0325C18.4895 11.8845 18.7303 11.8845 18.8783 12.0325C19.0448 12.1805 19.0448 12.4213 18.8967 12.5693Z" fill="#4A4B68"/>
</g>
</g>
<defs>
<clipPath id="clip0_1427_4814">
<rect width="24" height="24" fill="white"/>
</clipPath>
<clipPath id="clip1_1427_4814">
<rect width="22.9787" height="22.9787" fill="white" transform="translate(0.510498 0.510742)"/>
</clipPath>
</defs>
</svg>
