<svg width="24" height="24" viewBox="0 0 24 24" fill="none" xmlns="http://www.w3.org/2000/svg">
<g clip-path="url(#clip0_1427_4765)">
<path d="M5.99164 20.0045C5.1114 20.0045 4.39529 19.2884 4.39529 18.4082C4.39529 17.5279 5.1114 16.8119 5.99164 16.8119H12.1009C13.6852 16.8119 14.9741 15.5229 14.9741 13.9386C14.9741 12.3543 13.6852 11.0654 12.1009 11.0654H7.79243V12.3423H12.1009C12.9811 12.3423 13.6972 13.0584 13.6972 13.9387C13.6972 14.8189 12.9811 15.535 12.1009 15.535H5.99164C4.40733 15.535 3.11841 16.8239 3.11841 18.4082C3.11841 19.9924 4.40733 21.2814 5.99164 21.2814H16.3733V20.0045H5.99164Z" fill="#4A4B68"/>
<path d="M7.10174 4.9924C5.74859 3.63925 3.55474 3.63925 2.20163 4.9924C0.84848 6.34555 0.84848 8.5394 2.20163 9.89251L4.65171 12.3426L7.10174 9.89251C8.45489 8.53936 8.45489 6.34551 7.10174 4.9924ZM4.63119 8.49088C4.03663 8.49088 3.55466 8.0089 3.55466 7.41434C3.55466 6.81979 4.03663 6.33777 4.63119 6.33777C5.22575 6.33777 5.70777 6.81974 5.70777 7.41434C5.70777 8.0089 5.22579 8.49088 4.63119 8.49088Z" fill="#4A4B68"/>
<path d="M21.9638 13.9319C20.6107 12.5787 18.4168 12.5787 17.0637 13.9319C15.7105 15.285 15.7105 17.4789 17.0637 18.832L19.5138 21.282L21.9638 18.832C23.317 17.4789 23.317 15.285 21.9638 13.9319ZM19.4933 17.4304C18.8987 17.4304 18.4167 16.9484 18.4167 16.3538C18.4167 15.7593 18.8987 15.2773 19.4933 15.2773C20.0878 15.2773 20.5698 15.7592 20.5698 16.3538C20.5698 16.9484 20.0879 17.4304 19.4933 17.4304Z" fill="#4A4B68"/>
</g>
<defs>
<clipPath id="clip0_1427_4765">
<rect width="24" height="24" fill="white"/>
</clipPath>
</defs>
</svg>
