<svg width="24" height="24" viewBox="0 0 24 24" fill="none" xmlns="http://www.w3.org/2000/svg">
<path d="M2.34232 8.72404L2.92049 8.16992C3.07662 8.19226 3.60759 8.27354 3.91914 8.30738C6.68669 8.60863 9.47009 8.74776 12.2545 8.72404C17.17 8.68586 19.0076 8.52132 21.5886 8.16997C22.1346 8.73863 23.0232 9.29972 22.977 10.1802L22.9771 15.2489C22.9765 15.465 22.9323 15.679 22.8471 15.8784C22.7619 16.0778 22.6374 16.2587 22.4807 16.4108C22.324 16.5628 22.1382 16.683 21.934 16.7645C21.7298 16.846 21.5112 16.8871 21.2908 16.8854C20.568 16.9542 19.6395 17.0315 18.597 17.1045C14.6683 17.4256 10.72 17.4457 6.78815 17.1646C5.62557 17.0907 4.13406 16.9736 3.21834 16.8855C2.91407 16.8802 2.61596 16.8004 2.35108 16.6535C2.10028 16.5111 1.89238 16.3061 1.74852 16.0594C1.60465 15.8127 1.52995 15.5331 1.53199 15.2489V10.1802C1.5471 9.89345 1.62777 9.61369 1.76803 9.36162C1.9083 9.10956 2.10457 8.89166 2.34232 8.72404ZM18.0539 15.2918H20.7739C20.8887 15.2898 20.9981 15.2437 21.0786 15.1633C21.1591 15.083 21.2042 14.9749 21.2041 14.8623C21.2041 14.7496 21.1591 14.6415 21.0786 14.5612C20.9981 14.4809 20.8887 14.4347 20.7739 14.4327H18.0538C17.9386 14.4341 17.8285 14.48 17.7475 14.5604C17.6666 14.6408 17.6211 14.7493 17.6211 14.8623C17.6211 14.9753 17.6666 15.0838 17.7476 15.1642C17.8286 15.2446 17.9386 15.2904 18.0539 15.2918ZM17.4844 12.8262C17.4853 13.0458 17.5747 13.2562 17.733 13.4115C17.8913 13.5668 18.1059 13.6544 18.3298 13.6552H20.498C20.7221 13.6551 20.9371 13.5677 21.0956 13.4123C21.2541 13.2568 21.3432 13.046 21.3433 12.8262V11.9671C21.3432 11.7473 21.2541 11.5365 21.0956 11.3811C20.9371 11.2256 20.7221 11.1382 20.498 11.1381H18.3298C18.1059 11.139 17.8914 11.2266 17.733 11.3819C17.5747 11.5371 17.4853 11.7475 17.4844 11.9671V12.8262ZM8.37376 12.2248L8.74169 14.3812C8.80039 14.7334 8.98521 15.0536 9.26297 15.2843C9.54073 15.515 9.89324 15.641 10.2572 15.6397H14.2519C14.6159 15.641 14.9684 15.515 15.2461 15.2843C15.5239 15.0536 15.7087 14.7334 15.7674 14.3812L16.1354 12.2291C16.1701 12.0134 16.157 11.7929 16.097 11.5826C16.037 11.3724 15.9315 11.1772 15.7877 11.0105C15.6438 10.8438 15.4651 10.7094 15.2636 10.6165C15.062 10.5237 14.8425 10.4745 14.6198 10.4723H9.88928C9.66702 10.4744 9.44783 10.5235 9.2466 10.6161C9.04537 10.7087 8.86681 10.8426 8.72305 11.0089C8.57928 11.1751 8.47368 11.3698 8.41341 11.5796C8.35315 11.7894 8.33962 12.0094 8.37376 12.2248ZM3.7352 15.2918H6.45526C6.5703 15.2901 6.68006 15.2441 6.76081 15.1637C6.84155 15.0834 6.88682 14.9751 6.88681 14.8622C6.88681 14.7494 6.84154 14.6411 6.76079 14.5607C6.68004 14.4804 6.57028 14.4344 6.45524 14.4327H3.73518C3.62013 14.4344 3.51037 14.4804 3.42961 14.5608C3.34886 14.6411 3.30359 14.7494 3.3036 14.8623C3.3036 14.9751 3.34887 15.0834 3.42963 15.1638C3.51039 15.2442 3.62015 15.2901 3.7352 15.2918ZM3.16578 12.8262C3.16591 13.046 3.25501 13.2568 3.41352 13.4123C3.57203 13.5677 3.78698 13.6551 4.01115 13.6552H6.17931C6.40324 13.6544 6.61775 13.5667 6.7761 13.4115C6.93444 13.2562 7.02379 13.0458 7.02468 12.8262V11.9671C7.0238 11.7475 6.93445 11.5371 6.77611 11.3819C6.61776 11.2266 6.40325 11.139 6.17931 11.1381H4.01115C3.78698 11.1382 3.57204 11.2256 3.41353 11.3811C3.25502 11.5365 3.16591 11.7473 3.16578 11.9671V12.8262Z" fill="#4A4B68"/>
<path d="M10.3389 11.7451H11.0475L11.2341 15.3196H10.6953C10.5436 15.3201 10.3967 15.264 10.2808 15.1612C10.165 15.0584 10.0878 14.9158 10.0631 14.7587L9.71099 12.5286C9.6957 12.4326 9.70044 12.3342 9.72489 12.2404C9.74934 12.1465 9.79293 12.0593 9.85263 11.9848C9.91233 11.9103 9.98672 11.8503 10.0707 11.8089C10.1546 11.7675 10.2462 11.7458 10.3389 11.7451Z" fill="#4A4B68"/>
<path d="M13.011 15.3196H11.4997L11.2341 11.7451H13.2766L13.011 15.3196Z" fill="#4A4B68"/>
<path d="M14.1719 11.7451C14.2647 11.7458 14.3562 11.7675 14.4401 11.8089C14.5241 11.8503 14.5985 11.9103 14.6582 11.9848C14.7179 12.0593 14.7615 12.1465 14.7859 12.2404C14.8104 12.3342 14.8151 12.4326 14.7998 12.5286L14.4477 14.7587C14.423 14.9158 14.3458 15.0584 14.23 15.1612C14.1141 15.264 13.9672 15.3201 13.8155 15.3196H13.2767L13.4634 11.7451H14.1719Z" fill="#4A4B68"/>
<path d="M19.5385 7.83968C17.1184 8.07323 14.6873 8.18306 12.2553 8.16872C9.82332 8.18306 7.39224 8.07323 4.97219 7.83968C4.62431 7.79615 4.31255 7.76625 4.08511 7.73535L4.52865 6.96091L5.24992 5.70093C5.61994 5.05622 6.16137 4.51904 6.81807 4.1451C7.47478 3.77115 8.22285 3.57405 8.98475 3.57422H15.5259C16.2878 3.57405 17.0359 3.77116 17.6926 4.14511C18.3493 4.51906 18.8907 5.05623 19.2607 5.70095L19.982 6.95692L20.4255 7.73537C20.1985 7.76631 19.8863 7.79618 19.5385 7.83968Z" fill="#4A4B68"/>
<path d="M1.54849 6.12793H3.41998C3.66341 6.12893 3.89878 6.20991 4.08521 6.35678L3.34459 7.60921C3.11604 7.83681 1.8371 8.94512 1.6771 9.18617C1.53092 9.20081 1.38309 9.18661 1.2431 9.14448C1.10311 9.10236 0.974063 9.03323 0.864232 8.94155C0.7544 8.84986 0.666217 8.73764 0.60534 8.6121C0.544463 8.48655 0.512239 8.35044 0.510737 8.21252V7.10156C0.511095 6.84344 0.620544 6.59598 0.815083 6.41346C1.00962 6.23094 1.27337 6.12826 1.54849 6.12793Z" fill="#4A4B68"/>
<path d="M21.1262 7.55511C20.9841 7.28678 20.5726 6.61311 20.4255 6.35678C20.6112 6.20864 20.847 6.12749 21.0908 6.12793H22.9623C23.2374 6.12826 23.5011 6.23095 23.6957 6.41347C23.8902 6.59599 23.9996 6.84345 24 7.10157V8.21253C23.9985 8.35045 23.9663 8.48655 23.9054 8.6121C23.8445 8.73765 23.7563 8.84987 23.6465 8.94155C23.5367 9.03323 23.4076 9.10236 23.2676 9.14448C23.1276 9.18661 22.9798 9.20081 22.8336 9.18617C22.6483 8.90474 21.3566 7.83222 21.1262 7.55511Z" fill="#4A4B68"/>
<path d="M17.8245 17.8235C19.1685 17.6541 20.2824 17.7215 21.4468 17.3613V18.5008C21.4451 18.877 21.3179 19.237 21.0929 19.502C20.868 19.767 20.5638 19.9154 20.2469 19.9145H18.0464C17.7302 19.9143 17.427 19.7654 17.203 19.5005C16.979 19.2356 16.8524 18.8762 16.851 18.5008V17.9095C17.1746 17.8849 17.5049 17.8587 17.8245 17.8235Z" fill="#4A4B68"/>
<path d="M3.91063 17.5548C4.96408 17.6752 6.43691 17.8067 7.65967 17.9096V18.5009C7.65826 18.8762 7.53172 19.2356 7.30773 19.5005C7.08373 19.7654 6.7805 19.9143 6.46432 19.9145H4.2638C3.94692 19.9154 3.64267 19.7671 3.41776 19.5021C3.19284 19.2371 3.0656 18.877 3.06392 18.5009V17.3613C3.33682 17.4739 3.62201 17.5391 3.91063 17.5548Z" fill="#4A4B68"/>
</svg>
