<?xml version="1.0" encoding="UTF-8"?>
<svg width="112" height="58" id="Layer_1" data-name="Layer 1" xmlns="http://www.w3.org/2000/svg" xmlns:xlink="http://www.w3.org/1999/xlink" viewBox="0 0 1291.29 500">
  <defs>
    <style>
      .cls-1 {
        clip-path: url(#clippath-1);
      }

      .cls-2 {
        fill: #5151f9;
      }

      .cls-3 {
        clip-rule: evenodd;
        fill: none;
      }

      .cls-4 {
        fill:rgb(182, 182, 182);
      }

      .cls-5 {
        clip-path: url(#clippath-2);
      }

      .cls-6 {
        clip-path: url(#clippath);
      }
    </style>
    <clipPath id="clippath">
      <polygon class="cls-3" points="310.52 73.02 425.58 73.02 425.58 188.08 368.93 188.08 368.93 129.67 310.52 129.67 310.52 73.02"/>
    </clipPath>
    <clipPath id="clippath-1">
      <path class="cls-3" d="M314.49,265.44c-22.46,22.46-58.87,22.46-81.33,0-22.46-22.46-22.46-58.87,0-81.33,22.46-22.46,58.87-22.46,81.33,0,22.46,22.46,22.46,58.87,0,81.33"/>
    </clipPath>
    <clipPath id="clippath-2">
      <path class="cls-3" d="M341.08,292.03c-37.15,37.15-97.35,37.15-134.5,0-37.15-37.15-37.15-97.35,0-134.5,17.93-17.93,41.89-27.86,67.25-27.86v-56.65c-38.84,0-77.68,14.82-107.31,44.45-59.26,59.26-59.26,155.35,0,214.62l107.31,107.31,107.31-107.31c29.63-29.63,44.45-68.47,44.45-107.31h-56.65c0,25.36-9.92,49.32-27.86,67.25"/>
    </clipPath>
  </defs>
  <g>
    <path class="cls-4" d="M511.09,226.76V73.02h40.42v60.86h47.24v-60.86h40.42v153.75h-40.42v-59.5h-47.24v59.5h-40.42Z"/>
    <path class="cls-4" d="M662.11,226.76V73.02h107.65v32.7h-67.22v27.25h53.6v32.48h-53.6v28.62h67.22v32.7h-107.65Z"/>
    <path class="cls-4" d="M787.7,226.76V73.02h61.32c12.57,0,23.24,1.59,32.02,4.77,8.78,3.18,15.86,7.91,21.23,14.19,5.37,6.28,9.27,14.08,11.7,23.39,2.42,9.31,3.63,20.02,3.63,32.14s-1.14,23.24-3.41,32.93c-2.27,9.69-5.98,18.02-11.13,24.98-5.15,6.97-12.04,12.26-20.67,15.9-8.63,3.63-19.23,5.45-31.79,5.45h-62.91ZM828.12,193.38h19.53c6.36,0,11.47-1.14,15.33-3.41,3.86-2.27,6.77-5.45,8.74-9.54,1.97-4.09,3.25-8.93,3.86-14.53.6-5.6.91-11.73.91-18.4s-.38-12.07-1.13-17.15c-.76-5.07-2.12-9.42-4.09-13.06-1.97-3.63-4.85-6.36-8.63-8.18-3.79-1.82-8.78-2.73-14.99-2.73h-19.53v86.98Z"/>
    <path class="cls-4" d="M935.99,226.76V73.02h107.65v32.7h-67.22v27.25h53.6v32.48h-53.6v28.62h67.22v32.7h-107.65Z"/>
    <path class="cls-4" d="M1061.58,226.76V73.02h104.24v33.38h-63.82v37.24h50.87v33.38h-50.87v49.74h-40.42Z"/>
    <path class="cls-2" d="M549.92,439.39v-138.99h-47.01v-17.71h113.55v17.71h-46.56v138.99h-19.98Z"/>
    <path class="cls-2" d="M634.18,439.39l42.24-156.7h41.56l42.24,156.7h-19.98l-10.9-38.61h-64.5l-10.9,38.61h-19.76ZM668.7,383.53h56.78l-22.71-84.03h-11.35l-22.71,84.03Z"/>
    <path class="cls-2" d="M805.86,439.39v-156.7h19.98v71.76l24.75-.91,38.38-70.86h22.48l-43.15,78.58,45.65,78.12h-23.16l-39.97-68.13-24.98.91v67.22h-19.98Z"/>
    <path class="cls-2" d="M958.25,439.39v-156.7h19.98v156.7h-19.98Z"/>
    <path class="cls-2" d="M1037.51,439.39v-156.7h57.68c11.66,0,21.27,1.86,28.84,5.56,7.57,3.71,13.21,9.31,16.92,16.81,3.71,7.49,5.56,17.15,5.56,28.96s-1.86,21.46-5.56,29.41c-3.71,7.95-9.35,14.01-16.92,18.17-7.57,4.17-17.19,6.25-28.84,6.25h-37.7v51.55h-19.98ZM1057.49,370.58h37.47c11.05,0,19-3.18,23.85-9.54,4.84-6.36,7.27-15.36,7.27-27.02s-2.42-20.44-7.27-25.89c-4.85-5.45-12.8-8.18-23.85-8.18h-37.47v70.63Z"/>
  </g>
  <g>
    <g class="cls-6">
      <rect class="cls-2" x="310.52" y="73.02" width="115.06" height="115.06"/>
    </g>
    <g class="cls-1">
      <rect class="cls-2" x="210.7" y="161.65" width="126.25" height="126.25"/>
    </g>
    <g class="cls-5">
      <rect class="cls-4" x="107.25" y="73.02" width="318.33" height="366.37"/>
    </g>
  </g>
</svg>