<?xml version="1.0" encoding="UTF-8"?>
<svg id="Layer_1" data-name="Layer 1" xmlns="http://www.w3.org/2000/svg" xmlns:xlink="http://www.w3.org/1999/xlink" viewBox="0 0 500 500">
  <defs>
    <style>
      .cls-1 {
        clip-path: url(#clippath-1);
      }

      .cls-2 {
        fill: #5151f9;
      }

      .cls-3 {
        clip-rule: evenodd;
        fill: none;
      }

      .cls-4 {
        fill: #1b1b28;
      }

      .cls-5 {
        clip-path: url(#clippath-2);
      }

      .cls-6 {
        clip-path: url(#clippath);
      }
    </style>
    <clipPath id="clippath">
      <polygon class="cls-3" points="284.93 75.62 394.46 75.62 394.46 185.15 340.54 185.15 340.54 129.54 284.93 129.54 284.93 75.62"/>
    </clipPath>
    <clipPath id="clippath-1">
      <path class="cls-3" d="M288.71,258.79c-21.38,21.38-56.04,21.38-77.42,0-21.38-21.38-21.38-56.04,0-77.42,21.38-21.38,56.04-21.38,77.42,0,21.38,21.38,21.38,56.04,0,77.42"/>
    </clipPath>
    <clipPath id="clippath-2">
      <path class="cls-3" d="M314.02,284.1c-35.37,35.37-92.67,35.37-128.04,0-35.37-35.37-35.37-92.67,0-128.04,17.07-17.07,39.88-26.52,64.02-26.52v-53.93c-36.97,0-73.94,14.1-102.15,42.31-56.42,56.42-56.42,147.89,0,204.3l102.15,102.15,102.15-102.15c28.21-28.21,42.31-65.18,42.31-102.15h-53.93c0,24.14-9.45,46.95-26.52,64.02"/>
    </clipPath>
  </defs>
  <g class="cls-6">
    <rect class="cls-2" x="284.93" y="75.62" width="109.53" height="109.53"/>
  </g>
  <g class="cls-1">
    <rect class="cls-2" x="189.91" y="159.99" width="120.18" height="120.18"/>
  </g>
  <g class="cls-5">
    <rect class="cls-4" x="91.43" y="75.62" width="303.03" height="348.77"/>
  </g>
</svg>