<svg width="33" height="32" viewBox="0 0 33 32" fill="none" xmlns="http://www.w3.org/2000/svg">
    <path
        d="M21.9253 22.928C21.6354 22.9271 21.3523 22.8407 21.1113 22.6797C20.8703 22.5187 20.6821 22.2902 20.5702 22.0228C20.4584 21.7554 20.4279 21.461 20.4825 21.1763C20.5371 20.8917 20.6745 20.6295 20.8774 20.4225C21.9828 19.3117 22.6033 17.8083 22.6033 16.2412C22.6033 14.6741 21.9828 13.1708 20.8774 12.06C20.6101 11.7806 20.4633 11.4073 20.4686 11.0206C20.474 10.634 20.6311 10.2649 20.9061 9.99304C21.181 9.72116 21.5519 9.56823 21.9385 9.56724C22.3252 9.56626 22.6968 9.71728 22.9732 9.98775C24.6243 11.6502 25.551 13.8981 25.551 16.2412C25.551 18.5843 24.6243 20.8323 22.9732 22.4947C22.8358 22.6325 22.6724 22.7418 22.4926 22.8162C22.3127 22.8905 22.1199 22.9285 21.9253 22.928ZM12.5267 22.5021C12.8045 22.2272 12.9619 21.8533 12.9641 21.4625C12.9663 21.0717 12.8132 20.696 12.5385 20.4181C11.4331 19.3072 10.8125 17.8039 10.8125 16.2368C10.8125 14.6697 11.4331 13.1664 12.5385 12.0555C12.6782 11.9187 12.7894 11.7555 12.8654 11.5753C12.9415 11.3951 12.9809 11.2016 12.9814 11.006C12.9819 10.8104 12.9435 10.6167 12.8684 10.4361C12.7932 10.2555 12.6829 10.0917 12.5438 9.95417C12.4048 9.81666 12.2397 9.7082 12.0583 9.63512C11.8769 9.56204 11.6827 9.52581 11.4871 9.52852C11.2916 9.53123 11.0985 9.57284 10.9192 9.65093C10.7399 9.72901 10.5779 9.84201 10.4427 9.98333C8.7915 11.6457 7.86483 13.8937 7.86483 16.2368C7.86483 18.5799 8.7915 20.8278 10.4427 22.4903C10.7175 22.7681 11.0914 22.9255 11.4822 22.9277C11.873 22.9299 12.2487 22.7768 12.5267 22.5021ZM27.6614 26.0687C30.0974 23.3734 31.4461 19.8698 31.4461 16.2368C31.4461 12.6038 30.0974 9.10015 27.6614 6.40486C27.3992 6.11502 27.0325 5.94124 26.6421 5.92176C26.2517 5.90227 25.8695 6.03867 25.5797 6.30096C25.2898 6.56324 25.116 6.92992 25.0966 7.32033C25.0771 7.71074 25.2135 8.0929 25.4758 8.38274C27.4213 10.536 28.4983 13.3348 28.4983 16.2368C28.4983 19.1388 27.4213 21.9375 25.4758 24.0908C25.2135 24.3807 25.0771 24.7628 25.0966 25.1533C25.116 25.5437 25.2898 25.9104 25.5797 26.1726C25.8695 26.4349 26.2517 26.5713 26.6421 26.5518C27.0325 26.5323 27.3992 26.3586 27.6614 26.0687ZM7.83546 26.1719C8.12519 25.9097 8.29897 25.5433 8.31859 25.153C8.33822 24.7628 8.20208 24.3807 7.9401 24.0908C5.99459 21.9375 4.91752 19.1388 4.91752 16.2368C4.91752 13.3348 5.99459 10.536 7.9401 8.38274C8.06997 8.23923 8.1703 8.07154 8.23536 7.88925C8.30043 7.70696 8.32895 7.51364 8.3193 7.32033C8.30965 7.12702 8.26202 6.9375 8.17913 6.7626C8.09624 6.58769 7.97971 6.43083 7.8362 6.30096C7.69268 6.17109 7.52499 6.07076 7.3427 6.00569C7.16041 5.94063 6.96709 5.91211 6.77378 5.92176C6.38337 5.94124 6.01669 6.11502 5.75441 6.40486C3.31841 9.10015 1.96973 12.6038 1.96973 16.2368C1.96973 19.8698 3.31841 23.3734 5.75441 26.0687C6.01676 26.3583 6.38334 26.5318 6.77358 26.5511C7.16381 26.5705 7.54575 26.4341 7.83546 26.1719ZM16.7079 14.026C16.2707 14.026 15.8433 14.1557 15.4797 14.3986C15.1161 14.6415 14.8328 14.9868 14.6655 15.3908C14.4981 15.7947 14.4544 16.2392 14.5397 16.6681C14.625 17.0969 14.8355 17.4909 15.1447 17.8C15.4539 18.1092 15.8478 18.3198 16.2766 18.4051C16.7055 18.4904 17.15 18.4466 17.5539 18.2793C17.9579 18.1119 18.3032 17.8286 18.5461 17.465C18.789 17.1015 18.9187 16.674 18.9187 16.2368C18.9187 15.6505 18.6858 15.0882 18.2712 14.6736C17.8566 14.259 17.2943 14.026 16.7079 14.026Z"
        fill="currentColor" />
</svg>