<svg width="33" height="32" viewBox="0 0 33 32" fill="none" xmlns="http://www.w3.org/2000/svg">
  <path
    d="M14.0103 3.02349C11.6935 3.51633 9.54539 4.60514 7.7782 6.18233C6.01101 7.75953 4.68593 9.77053 3.93388 12.0166C3.18183 14.2627 3.02884 16.6662 3.49003 18.9895C3.95122 21.3128 5.01063 23.4756 6.56358 25.2641C6.74855 25.4865 6.85792 25.7621 6.87585 26.0508C6.89377 26.3395 6.81931 26.6265 6.66326 26.8701L6.03769 27.878C5.90979 28.0841 5.8393 28.3206 5.83352 28.5631C5.82773 28.8056 5.88685 29.0452 6.00477 29.2572C6.12268 29.4692 6.29511 29.6458 6.50419 29.7687C6.71328 29.8917 6.95142 29.9565 7.19398 29.9566H16.4543C19.9724 29.9945 23.3734 28.694 25.9685 26.3183C28.5637 23.9426 30.1588 20.6694 30.431 17.1617C30.5554 15.0685 30.195 12.9749 29.3779 11.0439C28.5608 9.11284 27.309 7.39644 25.72 6.02832C24.131 4.6602 22.2477 3.67729 20.2167 3.15611C18.1856 2.63493 16.0617 2.58954 14.0103 3.02349ZM16.8452 7.68611C17.2216 7.68614 17.5896 7.7978 17.9026 8.00697C18.2156 8.21615 18.4596 8.51343 18.6036 8.86124C18.7477 9.20906 18.7853 9.59177 18.7119 9.96099C18.6384 10.3302 18.4571 10.6694 18.1909 10.9355C17.9247 11.2017 17.5855 11.383 17.2163 11.4564C16.8471 11.5299 16.4644 11.4922 16.1166 11.3481C15.7688 11.204 15.4715 10.9601 15.2624 10.647C15.0532 10.334 14.9416 9.96602 14.9416 9.58956C14.9416 9.08472 15.1422 8.60057 15.4992 8.24361C15.8562 7.88665 16.3403 7.68612 16.8452 7.68611ZM18.3676 23.7703H16.8452C16.6827 23.7704 16.5218 23.7384 16.3717 23.6762C16.2215 23.6141 16.0851 23.5229 15.9702 23.408C15.8553 23.2931 15.7642 23.1567 15.702 23.0066C15.6399 22.8565 15.6079 22.6956 15.6079 22.5331V16.1565H15.3228C14.9946 16.1565 14.6799 16.0262 14.4479 15.7942C14.2159 15.5621 14.0855 15.2474 14.0855 14.9193C14.0855 14.5912 14.2159 14.2765 14.4479 14.0444C14.6799 13.8124 14.9946 13.6821 15.3228 13.6821H16.8452C17.0077 13.682 17.1686 13.714 17.3187 13.7761C17.4688 13.8383 17.6052 13.9294 17.7201 14.0443C17.835 14.1592 17.9262 14.2956 17.9883 14.4458C18.0505 14.5959 18.0825 14.7568 18.0824 14.9193V21.2958H18.3676C18.6957 21.2958 19.0104 21.4262 19.2424 21.6582C19.4745 21.8902 19.6048 22.2049 19.6048 22.5331C19.6048 22.8612 19.4745 23.1759 19.2424 23.4079C19.0104 23.64 18.6957 23.7703 18.3676 23.7703Z"
    fill="currentColor"
  />
</svg>