<svg width="33" height="32" viewBox="0 0 33 32" fill="none" xmlns="http://www.w3.org/2000/svg">
    <g clip-path="url(#clip0_687_14410)">
        <path
            d="M27.8613 5.0101C28.6419 5.0101 29.3352 5.39197 29.8923 5.69883C30.3016 5.92417 30.6246 6.1021 30.957 6.1021C31.101 6.1021 31.819 6.05141 31.819 5.04888V2.5632C31.819 1.41531 30.8852 0.481445 29.7372 0.481445H19.2927C18.1448 0.481445 17.2109 1.41531 17.2109 2.5632V13.0078C17.2109 14.1556 18.1448 15.0895 19.2927 15.0895H29.7372C30.8851 15.0895 31.8189 14.1556 31.8189 13.0078V10.5222C31.8189 9.51968 31.101 9.46892 30.9569 9.46892C30.6245 9.46892 30.3014 9.64693 29.8924 9.87219C29.3353 10.1791 28.642 10.5609 27.8613 10.5609C26.3584 10.5609 25.1358 9.31589 25.1358 7.78547C25.1357 6.25513 26.3585 5.0101 27.8613 5.0101Z"
            fill="currentColor" />
        <path
            d="M13.5224 0.481445H11.0368C10.0343 0.481445 9.98357 1.19954 9.98357 1.34351C9.98357 1.67579 10.1616 1.99901 10.3868 2.40813C10.6936 2.96523 11.0756 3.65856 11.0756 4.43904C11.0756 5.94192 9.83047 7.1646 8.30012 7.1646C6.76971 7.1646 5.52467 5.94192 5.52467 4.43904C5.52467 3.65864 5.90655 2.9653 6.21333 2.4082C6.43874 1.99901 6.61668 1.67586 6.61668 1.34351C6.61668 1.19954 6.56591 0.481445 5.56339 0.481445H3.07785C1.92996 0.481445 0.996094 1.41539 0.996094 2.5632V13.0078C0.996094 14.1556 1.92996 15.0895 3.07785 15.0895H13.5224C14.6703 15.0895 15.6042 14.1556 15.6042 13.0078V2.5632C15.6042 1.41539 14.6703 0.481445 13.5224 0.481445Z"
            fill="currentColor" />
        <path
            d="M13.5224 16.5781H3.07785C1.92996 16.5781 0.996094 17.512 0.996094 18.6599V21.1453C0.996094 22.148 1.71412 22.1987 1.85809 22.1987C2.19044 22.1987 2.51358 22.0206 2.9227 21.7954C3.47981 21.4886 4.17314 21.1066 4.95369 21.1066C6.45657 21.1066 7.67925 22.3517 7.67925 23.8822C7.67925 25.4124 6.45657 26.6575 4.95369 26.6575C4.17329 26.6575 3.47995 26.2756 2.92285 25.9687C2.51358 25.7434 2.19044 25.5655 1.85809 25.5655C1.71412 25.5657 0.996094 25.6163 0.996094 26.6189V29.1044C0.996094 30.2524 1.92996 31.1862 3.07785 31.1862H13.5224C14.6703 31.1862 15.6042 30.2524 15.6042 29.1044V18.6599C15.6042 17.512 14.6703 16.5781 13.5224 16.5781Z"
            fill="currentColor" />
        <path
            d="M29.7372 16.5781H19.2927C18.1448 16.5781 17.2109 17.512 17.2109 18.6599V29.1044C17.2109 30.2523 18.1448 31.1862 19.2927 31.1862H21.7782C22.7808 31.1862 22.8314 30.4681 22.8314 30.324C22.8314 29.9918 22.6533 29.6685 22.4281 29.2594C22.1214 28.7023 21.7394 28.0091 21.7394 27.2285C21.7394 25.7256 22.9845 24.5031 24.5148 24.5031C26.0452 24.5031 27.2903 25.7256 27.2903 27.2285C27.2903 28.009 26.9084 28.7023 26.6016 29.2594C26.3761 29.6687 26.1983 29.9917 26.1983 30.324C26.1983 30.468 26.249 31.1861 27.2516 31.1861H29.7371C30.8851 31.1861 31.8188 30.2523 31.8188 29.1044V18.6599C31.819 17.512 30.8851 16.5781 29.7372 16.5781Z"
            fill="currentColor" />
    </g>
    <defs>
        <clipPath id="clip0_687_14410">
            <rect width="32" height="32" fill="white" transform="translate(0.5)" />
        </clipPath>
    </defs>
</svg>